SplineFontDB: 3.2
FontName: twemoji_faces
FullName: twemoji_faces
FamilyName: twemoji_faces
Weight: Regular
Copyright: dragon dick cock
UComments: "2023-7-8: Created with FontForge (http://fontforge.org)"
Version: 001.000
ItalicAngle: 0
UnderlinePosition: -108
UnderlineWidth: 48
Ascent: 672
Descent: 96
InvalidEm: 0
LayerCount: 2
Layer: 0 0 "Back" 1
Layer: 1 1 "Fore" 0
XUID: [1021 677 1622773792 2229825]
BaseHoriz: 6 'icfb' 'icft' 'ideo' 'idtp' 'math' 'romn'
BaseScript: 'DFLT' 5  -144 720 -144 720 288 0
StyleMap: 0x0000
FSType: 0
OS2Version: 0
OS2_WeightWidthSlopeOnly: 1
OS2_UseTypoMetrics: 1
CreationTime: 1688857346
ModificationTime: 1690708121
PfmFamily: 81
TTFWeight: 400
TTFWidth: 5
LineGap: 0
VLineGap: 0
Panose: 5 2 1 3 1 2 2 2 2 2
OS2TypoAscent: 756
OS2TypoAOffset: 0
OS2TypoDescent: -108
OS2TypoDOffset: 0
OS2TypoLinegap: 0
OS2WinAscent: 770
OS2WinAOffset: 0
OS2WinDescent: -120
OS2WinDOffset: 0
HheadAscent: 756
HheadAOffset: 0
HheadDescent: -108
HheadDOffset: 0
OS2FamilyClass: 3072
OS2Vendor: '12;;'
Lookup: 4 0 0 "'ccmp' Glyph Composition/Decomposition lookup 0" { "'ccmp' Glyph Composition/Decomposition lookup 0-1"  } ['ccmp' ('DFLT' <'dflt' > ) ]
MarkAttachClasses: 1
DEI: 91125
LangName: 1033 "" "" "" "" "" "" "" "" "" "" "" "" "" "" "" "" "" "" "" "+9hT6dQAA"
GaspTable: 1 65535 2 0
Encoding: Custom
UnicodeInterp: none
NameList: AGL For New Fonts
DisplaySize: -72
AntiAlias: 1
FitToEm: 0
WinInfo: 342 18 8
BeginPrivate: 0
EndPrivate
Grid
432 1056 m 0
 432 -480 l 1024
  Named: "right"
-432 1056 m 0
 -432 -480 l 1024
  Named: "left"
-1200 -144 m 0
 1104 -144 l 1024
  Named: "bottom"
-1200 720 m 0
 1104 720 l 1024
  Named: "top"
EndSplineSet
TeXData: 1 0 0 346030 173015 115343 233017 1048576 115343 783286 444596 497025 792723 393216 433062 380633 303038 157286 324010 404750 52429 2506097 1059062 262144
BeginChars: 561 513

StartChar: eyebrow_weary
Encoding: 10 -1 0
Width: 0
GlyphClass: 5
Flags: MW
LayerCount: 2
Back
SplineSet
5.8314261128 -23.2853812618 m 5
 5.8314261128 -23.2853812618 5.83359665285 -23.2940484132 5.81245051345 -23.2901251617 c 1
 3.96614122503 -23.7609122709 2.01233346598 -24.008800147 0.00108527002429 -24.008800147 c 1
 -13.2473398977 -24.008800147 -24.0033813013 -13.2527587434 -24.0033813013 -0.00433357566378 c 1
 -24.0033813013 11.2328433961 -16.2652090599 20.6769355205 -5.8314261128 23.2853812618 c 1
 -5.8314261128 23.2853812618 -5.96332255109 23.2517728656 -5.91115970543 23.2652546695 c 1
 -5.85588158214 23.2795416359 -3.67888864072 23.8446529662 0.100196149161 25.114758598 c 1
 3.50132956663 26.2578392507 8.19982496417 27.9719360955 13.8176101408 30.3634430382 c 1
 19.4354583357 32.7549768079 25.9719623664 35.8238607971 33.0534937519 39.66926733 c 1
 38.7188176825 42.7456462186 44.7326968248 46.3186849405 50.9089731424 50.4362024856 c 1
 62.0284206749 57.8491675072 73.6638489507 67.0211503294 84.8054437021 78.2417634832 c 1
 90.9961992535 84.4764251024 97.0369434376 91.3441818967 102.769155593 98.9091421566 c 1
 109.934814975 108.365862701 116.620572793 118.911450657 122.519752004 130.70980908 c 9
 122.544003939 130.758312949 l 17
 126.482562047 138.635429165 134.627050937 144.049661279 144.026122598 144.049661279 c 1
 157.273236157 144.049661279 168.0282127 133.294684736 168.0282127 120.047571177 c 1
 168.0282127 116.199529278 167.12071291 112.561772712 165.480247996 109.29019092 c 1
 158.210702927 94.7511007837 149.921327099 81.6688542288 141.048821808 69.9595615324 c 1
 133.950502226 60.5917111996 126.480374816 52.1022230135 118.860528626 44.4283353612 c 1
 105.143040243 30.6135598266 90.9482597092 19.4439280575 77.486088586 10.4691473087 c 1
 70.0059100949 5.48236164793 62.7487017599 1.17142704698 55.9089152548 -2.54270740763 c 1
 47.3590585957 -7.18544255381 39.4610137092 -10.8961690255 32.5845304543 -13.8235072786 c 1
 25.7079841812 -16.7508723587 19.8523655964 -18.8949090986 15.3829808389 -20.3970163725 c 1
 9.79634106831 -22.2746198216 6.37509893212 -23.1494630568 5.8314261128 -23.2853812618 c 5
0 0 m 17
 0 0 96 24 144 120 c 1033
EndSplineSet
Fore
SplineSet
-24 0 m 131,-1,1
 -24 10 -24 10 -17 17 c 1,2,3
 -13 21 -13 21 -7 23 c 1,4,5
 81 51 81 51 122 130 c 1,6,7
 124 134 124 134 127 137 c 1,8,9
 134 144 134 144 144 144 c 131,-1,10
 154 144 154 144 161 137 c 129,-1,11
 168 130 168 130 168 120 c 3,12,13
 168 115 168 115 166 110 c 1,14,15
 114 11 114 11 7 -23 c 1,16,17
 4 -24 4 -24 0 -24 c 3,18,19
 -10 -24 -10 -24 -17 -17 c 129,-1,0
 -24 -10 -24 -10 -24 0 c 131,-1,1
EndSplineSet
Colour: ff00ff
EndChar

StartChar: eyebrow_smiling
Encoding: 11 -1 1
Width: 0
GlyphClass: 5
Flags: MW
LayerCount: 2
Back
SplineSet
-199.065429688 79.0654296875 m 0
 -203.416015625 74.728515625 -209.4140625 72.041015625 -216.036132812 72.041015625 c 0
 -229.279296875 72.041015625 -240.03125 82.79296875 -240.03125 96.0361328125 c 0
 -240.03125 102.658203125 -237.34375 108.65625 -233 113 c 0
 -226.135742188 119.864257812 -218.895507812 125.97265625 -211.423828125 131.380859375 c 0
 -205.446289062 135.70703125 -199.3203125 139.586914062 -193.11328125 143.060546875 c 0
 -181.940429688 149.313476562 -170.509765625 154.25 -159.1484375 158.140625 c 0
 -152.836914062 160.301757812 -146.543945312 162.141601562 -140.319335938 163.704101562 c 0
 -132.5390625 165.657226562 -124.865234375 167.177734375 -117.387695312 168.350585938 c 0
 -109.91015625 169.5234375 -102.627929688 170.348632812 -95.6298828125 170.904296875 c 0
 -86.880859375 171.598632812 -78.57421875 171.873046875 -70.880859375 171.873046875 c 0
 -57.5869140625 171.873046875 -46.14453125 171.055664062 -37.4296875 170.138671875 c 0
 -26.5380859375 168.9921875 -19.9072265625 167.686523438 -19.3076171875 167.56640625 c 0
 -8.3193359375 165.369140625 -0.029296875 155.659179688 -0.029296875 144.029296875 c 0
 -0.029296875 130.78125 -10.78515625 120.025390625 -24.033203125 120.025390625 c 0
 -25.6513671875 120.025390625 -27.2314453125 120.185546875 -28.72265625 120.491210938 c 0
 -28.759765625 120.491210938 -28.7578125 120.499023438 -28.7578125 120.499023438 c 1
 -28.7578125 120.499023438 -28.6787109375 120.483398438 -28.712890625 120.489257812 c 0
 -28.767578125 120.5 -30.212890625 120.78125 -32.8193359375 121.17578125 c 0
 -35.1640625 121.530273438 -38.44921875 121.977539062 -42.50390625 122.404296875 c 0
 -49.802734375 123.172851562 -59.5986328125 123.873046875 -70.880859375 123.873046875 c 0
 -77.4091796875 123.873046875 -84.4423828125 123.638671875 -91.7861328125 123.055664062 c 0
 -97.66015625 122.58984375 -103.733398438 121.900390625 -109.904296875 120.931640625 c 0
 -116.075195312 119.963867188 -122.342773438 118.71875 -128.611328125 117.14453125 c 0
 -133.625976562 115.885742188 -138.640625 114.416992188 -143.608398438 112.715820312 c 0
 -152.55078125 109.653320312 -161.333007812 105.838867188 -169.723632812 101.143554688 c 0
 -174.385742188 98.5341796875 -178.928710938 95.6533203125 -183.322265625 92.47265625 c 0
 -188.81640625 88.49609375 -194.078125 84.052734375 -199.065429688 79.0654296875 c 0
-216.033203125 96.033203125 m 17
 -144.033203125 168.033203125 -24.033203125 144.033203125 -24.033203125 144.033203125 c 1033
5.83142609649 23.2853812659 m 0
 16.2863551915 20.6808587817 24.0245274409 11.2367666534 24.0245274409 -0.00041032424048 c 0
 24.0245274409 -13.2488354919 13.2684860373 -24.0048768955 0.0200608696366 -24.0048768955 c 0
 -1.99118732046 -24.0048768955 -3.94499507399 -23.7569890209 -5.81245049688 -23.2901251658 c 2
 -5.83142609649 -23.2853812659 l 1
 -5.83142609649 -23.2853812659 -5.75222579672 -23.3049189376 -5.79712945513 -23.2939367678 c 0
 -5.92277131018 -23.26320831 -7.77061051583 -22.8144055961 -10.9526046839 -22.1924451305 c 0
 -13.8161762229 -21.632724341 -17.7604482126 -20.9328800569 -22.4959267622 -20.2682514886 c 0
 -27.2310945183 -19.6036665404 -32.7576609216 -18.9746871989 -38.7757879122 -18.5495656455 c 0
 -43.5899673713 -18.2094911583 -48.7184353201 -18 -54 -18 c 0
 -58.5845150254 -18 -63.2922595014 -18.1578401133 -68.0188758573 -18.51920222 c 0
 -71.8001212626 -18.8082882601 -75.5931809216 -19.227567773 -79.3441593038 -19.7958978309 c 0
 -83.0951752852 -20.3642335856 -86.80373041 -21.0816900279 -90.4174793649 -21.9614416462 c 0
 -93.3085352446 -22.665256748 -96.1387160832 -23.472790749 -98.8836665386 -24.3877742341 c 0
 -102.589785802 -25.6231473219 -106.138836809 -27.0541210455 -109.485653615 -28.6846215409 c 0
 -112.461214903 -30.1342539628 -115.276580607 -31.7406596393 -117.918770447 -33.5108396309 c 0
 -121.222682124 -35.7243514143 -124.255969151 -38.1904391507 -127.032765 -40.967235 c 0
 -131.376168137 -45.3106381374 -137.374991601 -47.9986209489 -143.996672904 -47.9986209489 c 0
 -157.240035511 -47.9986209489 -167.991966757 -37.2466897028 -167.991966757 -24.0033270959 c 0
 -167.991966757 -17.3816457925 -165.303983946 -11.3828223293 -160.967235 -7.032765 c 0
 -155.842796281 -1.90832628135 -150.324541369 2.55135949232 -144.587173455 6.39520664223 c 0
 -139.996339623 9.47091379737 -135.265249559 12.1546099384 -130.463134679 14.4941018031 c 0
 -125.060065797 17.12636613 -119.566592799 19.3241075414 -114.054605066 21.1614367855 c 0
 -109.971328117 22.5225291019 -105.876939719 23.6859884316 -101.794660742 24.6798016656 c 0
 -96.6917411266 25.9220854671 -91.6074314012 26.89953164 -86.582308545 27.660913891 c 0
 -81.5571480896 28.4223018388 -76.5907949235 28.9675557221 -71.7222758091 29.3397666636 c 0
 -65.6366865152 29.8050257839 -59.7035508182 30 -54 30 c 0
 -47.4297128281 30 -41.1745502327 29.7412698506 -35.3507849341 29.3298780414 c 0
 -28.0714809775 28.8156667244 -21.4657504749 28.0627429007 -15.7756781761 27.2641362622 c 0
 -10.0859166708 26.465573244 -5.31200545673 25.6209375199 -1.70637345293 24.916171753 c 0
 2.80032790385 24.0352807374 5.48178837658 23.3727906958 5.83142609649 23.2853812659 c 0
0 0 m 17
 0 0 -96 24 -144 -24 c 1033
EndSplineSet
Fore
SplineSet
0 144 m 131,-1,1
 0 134 0 134 -7 127 c 128,-1,2
 -14 120 -14 120 -24 120 c 3,3,4
 -27 120 -27 120 -32 121 c 1,5,6
 -51 124 -51 124 -71 124 c 1,7,8
 -155 123 -155 123 -199 79 c 1,9,10
 -206 72 -206 72 -216 72 c 131,-1,11
 -226 72 -226 72 -233 79 c 128,-1,12
 -240 86 -240 86 -240 96 c 131,-1,13
 -240 106 -240 106 -233 113 c 1,14,15
 -174 171 -174 171 -71 172 c 1,16,17
 -34 171 -34 171 -17 167 c 1,18,19
 -11 165 -11 165 -7 161 c 0,20,0
 0 154 0 154 0 144 c 131,-1,1
24 0 m 131,-1,22
 24 -10 24 -10 17 -17 c 129,-1,23
 10 -24 10 -24 -0 -24 c 3,24,25
 -4 -24 -4 -24 -7 -23 c 1,26,27
 -46 -15 -46 -15 -78 -19.5 c 129,-1,28
 -110 -24 -110 -24 -127 -41 c 1,29,30
 -134 -48 -134 -48 -144 -48 c 131,-1,31
 -154 -48 -154 -48 -161 -41 c 129,-1,32
 -168 -34 -168 -34 -168 -24 c 131,-1,33
 -168 -14 -168 -14 -161 -7 c 1,34,35
 -132 21 -132 21 -87.5 27.5 c 129,-1,36
 -43 34 -43 34 7 23 c 1,37,38
 13 21 13 21 17 17 c 1,39,21
 24 10 24 10 24 0 c 131,-1,22
-144 -24 m 1049,40,-1
EndSplineSet
Colour: ff00ff
EndChar

StartChar: eyebrow_holding_tears
Encoding: 12 -1 2
Width: 0
GlyphClass: 5
Flags: MW
LayerCount: 2
Back
SplineSet
0 -24 m 0
 -13.245960024 -24 -24.000000024 -13.24596 -24.000000024 0 c 0
 -24.000000024 13.24596 -13.245960024 24 -2.4000000012e-08 24 c 2
 0 24 l 2
 0.0001953125 24 -0.258670434394 23.9982217383 -0.258670434394 23.9982217383 c 1
 -0.258670434394 23.9982217383 -0.291049530209 23.9974760732 -0.269862840249 23.9980330217 c 0
 -0.198867012659 23.9998993359 0.673301822821 24.02556228 2.224758882 24.1853113678 c 0
 3.62112425528 24.3290911091 5.56760321835 24.5814407623 7.97696088527 25.0211045701 c 0
 12.8573364326 25.9116840495 19.6292754899 27.5701237626 27.6103879471 30.6397824 c 0
 33.9968361486 33.0961086313 41.1581613823 36.4537999039 48.7850233658 41.0601224881 c 0
 53.0227305859 43.619529819 57.4052811616 46.5651430963 61.8836508786 49.9630858611 c 0
 67.4817061045 54.2105849408 73.230301368 59.164771368 79.032765 64.967235 c 0
 83.3761681374 69.3106381374 89.3749916006 71.9986209489 95.9966729041 71.9986209489 c 0
 109.240035511 71.9986209489 119.991966757 61.2466897028 119.991966757 48.0033270959 c 0
 119.991966757 41.3816457925 117.303983946 35.3828223293 112.967235 31.032765 c 0
 101.917141166 19.982671166 90.7464841803 11.0928533247 79.9660986327 3.99178025066 c 0
 71.3413557661 -1.68936436795 62.9691958555 -6.22642954009 55.1049188675 -9.83974599402 c 0
 40.9458548403 -16.3452618984 28.4448736943 -19.8568554479 18.9475285284 -21.7563244811 c 0
 14.1972275474 -22.7063846773 10.194087029 -23.2539948715 7.09422520878 -23.5703073022 c 0
 3.21924899468 -23.9657130383 0.755218442327 -23.9999999996 0 -24 c 0
0 0 m 0
 0 0 48 0 96 48 c 1024
EndSplineSet
Fore
SplineSet
-24 0 m 131,-1,1
 -24 10 -24 10 -17 17 c 128,-1,2
 -10 24 -10 24 0 24 c 1,3,4
 16 25 16 25 37.5 35 c 128,-1,5
 59 45 59 45 79 65 c 1,6,7
 86 72 86 72 96 72 c 131,-1,8
 106 72 106 72 113 65 c 128,-1,9
 120 58 120 58 120 48 c 131,-1,10
 120 38 120 38 113 31 c 1,11,12
 83 2 83 2 52.5 -11 c 128,-1,13
 22 -24 22 -24 0 -24 c 1,14,15
 -10 -24 -10 -24 -17 -17 c 128,-1,0
 -24 -10 -24 -10 -24 0 c 131,-1,1
96 48 m 1049,16,-1
EndSplineSet
Colour: ff00ff
EndChar

StartChar: circle32
Encoding: 1 -1 3
Width: 0
GlyphClass: 5
Flags: MW
LayerCount: 2
Back
SplineSet
-354.76953125 -146.950195312 m 0
 -435.8984375 48.912109375 -342.8125 273.640625 -146.950195312 354.76953125 c 0
 48.912109375 435.8984375 273.640625 342.8125 354.76953125 146.950195312 c 0
 435.8984375 -48.912109375 342.8125 -273.640625 146.950195312 -354.76953125 c 0
 -48.912109375 -435.8984375 -273.640625 -342.8125 -354.76953125 -146.950195312 c 0
0 0 m 1049
-354.76953125 146.950195312 m 0
 -273.640625 342.8125 -48.912109375 435.8984375 146.950195312 354.76953125 c 0
 342.8125 273.640625 435.8984375 48.912109375 354.76953125 -146.950195312 c 0
 273.640625 -342.8125 48.912109375 -435.8984375 -146.950195312 -354.76953125 c 0
 -342.8125 -273.640625 -435.8984375 -48.912109375 -354.76953125 146.950195312 c 0
0 0 m 1049
-271.529296875 271.529296875 m 0
 -121.622070312 421.435546875 121.622070312 421.435546875 271.529296875 271.529296875 c 0
 421.435546875 121.622070312 421.435546875 -121.622070312 271.529296875 -271.529296875 c 0
 121.622070312 -421.435546875 -121.622070312 -421.435546875 -271.529296875 -271.529296875 c 0
 -421.435546875 -121.622070312 -421.435546875 121.622070312 -271.529296875 271.529296875 c 0
0 0 m 1049
-384 0 m 0
 -384 212 -212 384 0 384 c 0
 212 384 384 212 384 0 c 0
 384 -212 212 -384 0 -384 c 0
 -212 -384 -384 -212 -384 0 c 0
0 0 m 1049
EndSplineSet
Fore
SplineSet
0 384 m 131,-1,1
 158 384 158 384 271 271 c 128,-1,2
 384 158 384 158 384 0 c 131,-1,3
 384 -158 384 -158 271 -271 c 128,-1,4
 158 -384 158 -384 0 -384 c 131,-1,5
 -158 -384 -158 -384 -271 -271 c 128,-1,6
 -384 -158 -384 -158 -384 0 c 131,-1,7
 -384 158 -384 158 -271 271 c 128,-1,0
 -158 384 -158 384 0 384 c 131,-1,1
EndSplineSet
Colour: ff00ff
EndChar

StartChar: SmilingFaceWithHalo.3
Encoding: 143 -1 4
Width: 0
GlyphClass: 5
Flags: MW
LayerCount: 2
Back
SplineSet
224.0390625 176.904296875 m 1
 219.768554688 180.768554688 213.384765625 181.0078125 208.799804688 177.599609375 c 1
 207.865234375 176.904296875 114.672851562 108 0 108 c 1
 -114.384765625 108 -207.888671875 176.904296875 -208.799804688 177.599609375 c 1
 -213.384765625 181.0078125 -219.768554688 180.719726562 -224.0390625 176.904296875 c 1
 -228.288085938 173.064453125 -229.247070312 166.727539062 -226.295898438 161.831054688 c 1
 -223.200195312 156.672851562 -149.087890625 36 0 36 c 1
 149.087890625 36 223.223632812 156.672851562 226.295898438 161.831054688 c 1
 229.247070312 166.752929688 228.311523438 173.064453125 224.0390625 176.904296875 c 1
192 264 m 1
 181.943359375 264 172.583984375 270.361328125 169.247070312 280.416015625 c 1
 164.376953125 294.791992188 144.791992188 336 120 336 c 1
 94.51171875 336 74.6650390625 292.153320312 70.7529296875 280.416015625 c 1
 66.552734375 267.865234375 53.087890625 261.0234375 40.392578125 265.247070312 c 1
 27.8388671875 269.423828125 21.0234375 283.0078125 25.2236328125 295.607421875 c 1
 28.2470703125 304.630859375 56.51953125 384 120 384 c 1
 183.48046875 384 211.752929688 304.630859375 214.752929688 295.583984375 c 1
 218.953125 283.0078125 212.161132812 269.400390625 199.583984375 265.223632812 c 1
 197.064453125 264.408203125 194.49609375 264 192 264 c 1
-48 264 m 1
 -58.056640625 264 -67.416015625 270.361328125 -70.7763671875 280.416015625 c 1
 -75.646484375 294.791992188 -95.1845703125 336 -120 336 c 1
 -145.48828125 336 -165.311523438 292.153320312 -169.223632812 280.416015625 c 1
 -173.423828125 267.865234375 -186.935546875 261.0234375 -199.583984375 265.247070312 c 1
 -212.161132812 269.423828125 -218.953125 283.0078125 -214.752929688 295.607421875 c 1
 -211.752929688 304.630859375 -183.48046875 384 -120 384 c 1
 -56.51953125 384 -28.2470703125 304.630859375 -25.2236328125 295.583984375 c 1
 -21.0234375 283.0078125 -27.8154296875 269.400390625 -40.392578125 265.223632812 c 1
 -42.935546875 264.408203125 -45.50390625 264 -48 264 c 1
EndSplineSet
Fore
Refer: 489 -1 N 1 0 0 1 0 24 0
Refer: 8 -1 N 1 0 0 1 120 360 0
Refer: 8 -1 N 1 0 0 1 -120 360 0
Colour: ffff
EndChar

StartChar: lickinglipsmouth
Encoding: 47 -1 6
Width: 0
GlyphClass: 5
Flags: MW
LayerCount: 2
Fore
SplineSet
0 -24 m 129,-1,1
 -107 -24 -107 -24 -182 33 c 129,-1,2
 -257 90 -257 90 -287 185 c 1,3,4
 -288 189 -288 189 -288 192 c 1,5,6
 -288 202 -288 202 -281 209 c 129,-1,7
 -274 216 -274 216 -264 216 c 129,-1,8
 -254 216 -254 216 -247 209 c 1,9,10
 -242 204 -242 204 -240 195 c 1,11,12
 -214 117 -214 117 -152 70.5 c 129,-1,13
 -90 24 -90 24 0 24 c 129,-1,14
 90 24 90 24 152 70.5 c 129,-1,15
 214 117 214 117 240 195 c 1,16,17
 242 204 242 204 247 209 c 1,18,19
 254 216 254 216 264 216 c 129,-1,20
 274 216 274 216 281 209 c 129,-1,21
 288 202 288 202 288 192 c 1,22,23
 288 189 288 189 287 185 c 1,24,25
 257 90 257 90 182 33 c 129,-1,0
 107 -24 107 -24 0 -24 c 129,-1,1
EndSplineSet
Colour: ff00ff
EndChar

StartChar: mouth_smiling1
Encoding: 45 -1 7
Width: 0
GlyphClass: 5
Flags: MW
LayerCount: 2
Back
SplineSet
-111.516601562 116.483398438 m 4
 -111.515625 116.483398438 -111.638671875 116.603515625 -111.638671875 116.603515625 c 5
 -111.638671875 116.603515625 -111.767578125 116.725585938 -111.766601562 116.724609375 c 5
 -111.766601562 116.724609375 -111.778320312 116.735351562 -111.774414062 116.731445312 c 4
 -111.768554688 116.7265625 -111.569335938 116.55078125 -111.141601562 116.232421875 c 4
 -110.756835938 115.946289062 -110.186523438 115.544921875 -109.40625 115.05078125 c 4
 -107.2109375 113.662109375 -103.346679688 111.536132812 -97.26171875 109.196289062 c 4
 -90.41796875 106.564453125 -80.7646484375 103.662109375 -67.5595703125 101.251953125 c 4
 -51.0537109375 98.240234375 -29.0009765625 96 0 96 c 4
 29.0009765625 96 51.0537109375 98.240234375 67.5595703125 101.251953125 c 4
 80.7646484375 103.662109375 90.41796875 106.564453125 97.26171875 109.196289062 c 4
 103.346679688 111.536132812 107.2109375 113.662109375 109.40625 115.05078125 c 4
 110.186523438 115.544921875 110.756835938 115.946289062 111.141601562 116.232421875 c 4
 111.569335938 116.55078125 111.768554688 116.7265625 111.774414062 116.731445312 c 4
 111.778320312 116.735351562 111.766601562 116.724609375 111.766601562 116.724609375 c 5
 111.767578125 116.725585938 111.638671875 116.603515625 111.638671875 116.603515625 c 5
 111.638671875 116.603515625 111.515625 116.483398438 111.516601562 116.483398438 c 4
 112.932617188 117.899414062 114.72265625 118.979492188 116.788085938 119.551757812 c 4
 123.170898438 121.319335938 129.788085938 117.571289062 131.555664062 111.1875 c 4
 132.127929688 109.122070312 132.122070312 107.03125 131.63671875 105.087890625 c 5
 131.87890625 106.057617188 131.400390625 104.114257812 131.642578125 105.083984375 c 5
 131.549804688 104.7109375 130.408203125 100.211914062 127.756835938 93.2265625 c 4
 125.635742188 87.638671875 122.548828125 80.45703125 118.233398438 72.525390625 c 4
 113.91796875 64.5947265625 108.372070312 55.90625 101.303710938 47.3408203125 c 4
 95.6494140625 40.4892578125 89.0166015625 33.71484375 81.265625 27.513671875 c 4
 76.421875 23.6396484375 71.142578125 19.990234375 65.40625 16.697265625 c 4
 58.2353515625 12.580078125 50.3515625 9.021484375 41.73828125 6.2646484375 c 4
 34.84765625 4.0595703125 27.4931640625 2.369140625 19.671875 1.3037109375 c 4
 13.4140625 0.4521484375 6.8583984375 0 0 0 c 4
 -6.8583984375 0 -13.4140625 0.4521484375 -19.671875 1.3037109375 c 4
 -27.4931640625 2.369140625 -34.84765625 4.0595703125 -41.73828125 6.2646484375 c 4
 -50.3515625 9.021484375 -58.2353515625 12.580078125 -65.40625 16.697265625 c 4
 -71.142578125 19.990234375 -76.421875 23.6396484375 -81.265625 27.513671875 c 4
 -89.0166015625 33.71484375 -95.6494140625 40.4892578125 -101.303710938 47.3408203125 c 4
 -108.372070312 55.90625 -113.91796875 64.5947265625 -118.233398438 72.525390625 c 4
 -122.548828125 80.45703125 -125.635742188 87.638671875 -127.756835938 93.2265625 c 4
 -130.408203125 100.211914062 -131.549804688 104.7109375 -131.642578125 105.083984375 c 4
 -132.127929688 107.02734375 -132.133789062 109.118164062 -131.561523438 111.184570312 c 4
 -129.793945312 117.568359375 -123.176757812 121.315429688 -116.794921875 119.547851562 c 4
 -114.728515625 118.9765625 -111.516601562 116.483398438 -111.516601562 116.483398438 c 4
-120 108 m 5
 -120 108 -96 84 0 84 c 4
 96 84 120 108 120 108 c 5
 120 108 96 12 0 12 c 4
 -96 12 -120 108 -120 108 c 5
EndSplineSet
Fore
SplineSet
0 0 m 259,0,1
 -48 7.1054273576e-15 -48 7.1054273576e-15 -82 28 c 128,-1,2
 -116 56 -116 56 -131 103 c 1,3,4
 -132 106 -132 106 -132 108 c 259,5,6
 -132 113 -132 113 -128.5 116.5 c 128,-1,7
 -125 120 -125 120 -120 120 c 259,8,9
 -116 120 -116 120 -112 117 c 257,10,11
 -101 108 -101 108 -71 102 c 128,-1,12
 -41 96 -41 96 0 96 c 259,13,14
 41 96 41 96 71 102 c 128,-1,15
 101 108 101 108 112 117 c 257,16,17
 116 120 116 120 120 120 c 259,18,19
 125 120 125 120 128.5 116.5 c 128,-1,20
 132 113 132 113 132 108 c 259,21,22
 132 106 132 106 131 103 c 1,23,24
 116 56 116 56 82 28 c 128,-1,25
 48 0 48 0 0 0 c 259,0,1
EndSplineSet
Colour: ff00ff
EndChar

StartChar: eye_smiling
Encoding: 30 -1 8
Width: 0
GlyphClass: 5
Flags: MW
LayerCount: 2
Back
SplineSet
-49.2253944924 -79.5854692707 m 1
 -49.2253944924 -79.5854692707 -49.2166189314 -79.5883921204 -49.2290340361 -79.5963879016 c 0
 -52.3950307313 -89.1236275104 -61.3979218845 -96.0060852912 -71.9956122195 -96.0060852912 c 0
 -85.2441242007 -96.0060852912 -96.0002360858 -85.249973406 -96.0002360858 -72.0014614248 c 0
 -96.0002360858 -69.3506397786 -95.5696280581 -66.7995983784 -94.7746055076 -64.4145307293 c 0
 -94.6454282987 -64.026999103 -93.7823162978 -61.4674141233 -92.1586799158 -57.4317088775 c 0
 -90.8595482286 -54.2025914328 -89.0738326085 -50.0283738772 -86.7731761207 -45.2566419024 c 0
 -84.4722446196 -40.4843395297 -81.657534282 -35.1138413053 -78.2714485584 -29.4842996084 c 0
 -75.5622975337 -24.9801966702 -72.4869857112 -20.3085789533 -68.9891882799 -15.644849045 c 0
 -66.0743080083 -11.7583420162 -62.8650231725 -7.87553800403 -59.3094853112 -4.11027705907 c 0
 -56.4652117033 -1.09823422599 -53.3981156825 1.83948048091 -50.0751315066 4.62914620883 c 0
 -46.7527262098 7.41832596415 -43.1726404712 10.0607623943 -39.3073117685 12.4573722346 c 0
 -36.2156274634 14.3743013237 -32.9409706757 16.1333427768 -29.4813901257 17.6709341323 c 0
 -25.5900515448 19.4004179461 -21.4640889861 20.848617289 -17.1283703442 21.9191651018 c 0
 -14.1179171743 22.6624868722 -11.0076581782 23.2234126985 -7.8139258327 23.5738908708 c 0
 -5.25902155558 23.8542644541 -2.65107328538 24 0 24 c 0
 2.65107328538 24 5.25902155558 23.8542644541 7.8139258327 23.5738908708 c 0
 11.0076581782 23.2234126985 14.1179171743 22.6624868722 17.1283703442 21.9191651018 c 0
 21.4640889861 20.848617289 25.5900515448 19.4004179461 29.4813901257 17.6709341323 c 0
 32.9409706757 16.1333427768 36.2156274634 14.3743013237 39.3073117685 12.4573722346 c 0
 43.1726404712 10.0607623943 46.7527262098 7.41832596415 50.0751315066 4.62914620883 c 0
 53.3981156825 1.83948048091 56.4652117033 -1.09823422599 59.3094853112 -4.11027705907 c 0
 62.8650231725 -7.87553800403 66.0743080083 -11.7583420162 68.9891882799 -15.644849045 c 0
 72.4869857112 -20.3085789533 75.5622975337 -24.9801966702 78.2714485584 -29.4842996084 c 0
 81.657534282 -35.1138413053 84.4722446196 -40.4843395297 86.7731761207 -45.2566419024 c 0
 89.0738326085 -50.0283738772 90.8595482286 -54.2025914328 92.1586799158 -57.4317088775 c 0
 93.7823164036 -61.4674143862 94.6454281206 -64.0269985433 94.7746056561 -64.414531175 c 0
 95.5696281117 -66.7995986963 96.0002360858 -69.3506399437 96.0002360858 -72.0014614248 c 0
 96.0002360858 -85.2499734061 85.2441242006 -96.0060852913 71.9956122194 -96.0060852913 c 0
 61.3979217191 -96.0060852913 52.3950304504 -89.1236272959 49.2290338848 -79.5963874485 c 0
 49.2166187826 -79.5883916745 49.2253943439 -79.585468825 49.2253943439 -79.585468825 c 1
 49.2253943439 -79.585468825 49.2566895203 -79.6783188059 49.2434193101 -79.6392666462 c 0
 49.2249530152 -79.5849232196 48.6731742696 -77.9676029056 47.6075481321 -75.3188860866 c 0
 46.6486681115 -72.9354970641 45.2731673407 -69.7168170283 43.5094027545 -66.0586386274 c 0
 41.7459131815 -62.4010306242 39.592997762 -58.3046056886 37.1082530454 -54.1735897811 c 0
 35.1207397179 -50.8692466358 32.921336191 -47.5444922248 30.5663672756 -44.404533671 c 0
 28.6039422584 -41.7879669814 26.5344975018 -39.3015053763 24.409881467 -37.0515690542 c 0
 22.7100319581 -35.2514540735 20.9760933078 -33.6036147108 19.2411312582 -32.1471033605 c 0
 17.5055903295 -30.6901060377 15.7708182884 -29.4257423812 14.064377657 -28.3677023738 c 0
 12.6986464949 -27.5209115846 11.3514644206 -26.8056093125 10.0247827138 -26.2159729983 c 0
 8.53157625585 -25.5523256837 7.06489541666 -25.0467126562 5.59987230171 -24.6849785537 c 0
 4.58203258492 -24.4336601051 3.56364261848 -24.2514553842 2.52836992543 -24.1378452121 c 0
 1.70007017176 -24.0469481198 0.860586522581 -24 0 -24 c 0
 -0.860586522581 -24 -1.70007017176 -24.0469481198 -2.52836992543 -24.1378452121 c 0
 -3.56364261848 -24.2514553842 -4.58203258492 -24.4336601051 -5.59987230171 -24.6849785537 c 0
 -7.06489541666 -25.0467126562 -8.53157625585 -25.5523256837 -10.0247827138 -26.2159729983 c 0
 -11.3514644206 -26.8056093125 -12.6986464949 -27.5209115846 -14.064377657 -28.3677023738 c 0
 -15.7708182884 -29.4257423812 -17.5055903295 -30.6901060377 -19.2411312582 -32.1471033605 c 0
 -20.9760933078 -33.6036147108 -22.7100319581 -35.2514540735 -24.409881467 -37.0515690542 c 0
 -26.5344975018 -39.3015053763 -28.6039422584 -41.7879669814 -30.5663672756 -44.404533671 c 0
 -32.921336191 -47.5444922248 -35.1207397179 -50.8692466358 -37.1082530454 -54.1735897811 c 0
 -39.592997762 -58.3046056886 -41.7459131815 -62.4010306242 -43.5094027545 -66.0586386274 c 0
 -45.2731673407 -69.7168170283 -46.6486681115 -72.9354970641 -47.6075481321 -75.3188860866 c 0
 -48.6731742696 -77.9676029056 -49.2249530152 -79.5849232196 -49.2434193101 -79.6392666462 c 0
 -49.2566893565 -79.6783183237 -49.2253944924 -79.5854692707 -49.2253944924 -79.5854692707 c 1
-72 -72 m 17
 -72 -72 -48 0 0 0 c 1
 48 0 72 -72 72 -72 c 1025
EndSplineSet
Fore
SplineSet
0 24 m 128,-1,1
 29 24 29 24 54 1 c 128,-1,2
 79 -22 79 -22 95 -65 c 0,3,4
 96 -69 96 -69 96 -72 c 0,5,6
 96 -82 96 -82 89 -89 c 128,-1,7
 82 -96 82 -96 72 -96 c 128,-1,8
 62 -96 62 -96 55 -89 c 0,9,10
 51 -85 51 -85 49 -79 c 0,11,12
 41 -57 41 -57 27.5 -40.5 c 128,-1,13
 14 -24 14 -24 0 -24 c 128,-1,14
 -14 -24 -14 -24 -27.5 -40.5 c 128,-1,15
 -41 -57 -41 -57 -49 -79 c 0,16,17
 -51 -85 -51 -85 -55 -89 c 0,18,19
 -62 -96 -62 -96 -72 -96 c 128,-1,20
 -82 -96 -82 -96 -89 -89 c 128,-1,21
 -96 -82 -96 -82 -96 -72 c 0,22,23
 -96 -69 -96 -69 -95 -65 c 0,24,25
 -79 -22 -79 -22 -54 1 c 128,-1,0
 -29 24 -29 24 0 24 c 128,-1,1
EndSplineSet
Colour: ff00ff
EndChar

StartChar: heart
Encoding: 2 -1 9
Width: 0
GlyphClass: 5
Flags: MW
LayerCount: 2
Back
SplineSet
0 0 m 1
 -132 47.9833984375 -316.166992188 222.731445312 -342.825195312 388.373046875 c 0
 -346.091796875 402.403320312 -348 416.958007812 -348 431.978515625 c 0
 -348 538.041015625 -262.036132812 623.98828125 -155.990234375 623.98828125 c 0
 -91.6455078125 623.98828125 -34.849609375 592.213867188 0 543.646484375 c 1
 34.849609375 592.213867188 91.6455078125 623.98828125 156.01171875 623.98828125 c 0
 262.036132812 623.98828125 348 538.021484375 348 431.978515625 c 0
 348 416.939453125 346.091796875 402.384765625 342.78515625 388.354492188 c 4
 316.166992188 222.731445312 131.981445312 47.9833984375 0 0 c 1
EndSplineSet
Fore
SplineSet
0 0 m 1,0,1
 -113 43 -113 43 -217.5 157 c 129,-1,2
 -322 271 -322 271 -343 389 c 1,3,4
 -348 413 -348 413 -348 432 c 1,5,6
 -348 511 -348 511 -291.5 567.5 c 129,-1,7
 -235 624 -235 624 -156 624 c 1,8,9
 -62 624 -62 624 0 544 c 1,10,11
 62 624 62 624 156 624 c 1,12,13
 235 624 235 624 291.5 567.5 c 129,-1,14
 348 511 348 511 348 432 c 1,15,16
 348 413 348 413 343 389 c 1,17,18
 321 271 321 271 217 157 c 129,-1,19
 113 43 113 43 0 0 c 1,0,1
EndSplineSet
Colour: ff00ff
EndChar

StartChar: mouth_smiling2
Encoding: 46 -1 10
Width: 0
GlyphClass: 5
Flags: MW
LayerCount: 2
Back
SplineSet
-208.810078846 141.605705253 m 1
 -208.810078846 141.605705253 -208.822391319 141.614920012 -208.817223283 141.611058262 c 1
 -208.809988133 141.605651886 -208.592772661 141.443421648 -208.173213376 141.139371039 c 1
 -207.795610235 140.865725648 -207.254108786 140.4772058 -206.5542865 139.984745946 c 1
 -205.294607477 139.098318979 -203.521961441 137.875129329 -201.268966144 136.378912552 c 1
 -197.213584392 133.685728848 -191.601783801 130.108002155 -184.624892339 126.016840669 c 1
 -172.066403611 118.652700682 -155.084435073 109.627055889 -134.808372677 101.089766459 c 1
 -114.531759118 92.5522449605 -90.9649569402 84.5070610003 -65.2506638192 79.0576743786 c 1
 -44.6786336224 74.6980388402 -22.736815396 72 0 72 c 1
 22.736815396 72 44.6786336224 74.6980388402 65.2506638192 79.0576743786 c 1
 90.9649569402 84.5070610003 114.531759118 92.5522449605 134.808372677 101.089766459 c 1
 155.084435073 109.627055889 172.066403611 118.652700682 184.624892339 126.016840669 c 1
 191.601783801 130.108002155 197.213584392 133.685728848 201.268966144 136.378912552 c 1
 203.521961441 137.875129329 205.294607477 139.098318979 206.5542865 139.984745946 c 1
 207.254108786 140.4772058 207.795610235 140.865725648 208.173213376 141.139371039 c 1
 208.592772661 141.443421648 208.809988133 141.605651886 208.817223283 141.611058262 c 1
 208.822391152 141.614919887 208.810079 141.605705369 208.810079 141.605705369 c 1
 210.651601353 142.986847086 212.909079865 143.854173234 215.378754688 143.981760708 c 1
 221.99159382 144.323390884 227.637696206 139.232833494 227.979271076 132.62106488 c 1
 228.106837896 130.15178986 227.476617912 127.817318349 226.292370973 125.843573453 c 1
 226.806866729 126.701066378 225.783049798 124.981415096 226.297545554 125.838908022 c 1
 226.141793838 125.579321829 223.840074311 121.764100685 219.374734955 115.59797135 c 1
 215.80243317 110.665026042 210.845186513 104.227194326 204.48931793 96.9035597439 c 1
 198.133511704 89.5799970151 190.378801949 81.3700436516 181.207388834 72.8989624936 c 1
 173.870355181 66.1221870116 165.6262697 59.1781554331 156.465714141 52.3925587229 c 1
 139.978460169 40.1797780024 120.514461639 28.474534744 98.0569392919 19.2327560002 c 1
 85.5815675974 14.0988581835 72.1842189956 9.72693998177 57.8764003411 6.45583375073 c 1
 39.9917448497 2.36697789994 20.686111417 0 0 0 c 1
 -20.686111417 0 -39.9917448497 2.36697789994 -57.8764003411 6.45583375073 c 1
 -72.1842189956 9.72693998177 -85.5815675974 14.0988581835 -98.0569392919 19.2327560002 c 1
 -120.514461639 28.474534744 -139.978460169 40.1797780024 -156.465714141 52.3925587229 c 1
 -165.6262697 59.1781554331 -173.870355181 66.1221870116 -181.207388834 72.8989624936 c 1
 -190.378801949 81.3700436516 -198.133511704 89.5799970151 -204.48931793 96.9035597439 c 1
 -210.845186513 104.227194326 -215.80243317 110.665026042 -219.374734955 115.59797135 c 1
 -223.840074408 121.76410082 -226.141793666 125.579321528 -226.297545697 125.838908261 c 5
 -227.481792583 127.812653172 -228.112012513 130.14712468 -227.984445645 132.616399683 c 1
 -227.642870646 139.228168289 -221.996768161 144.318725569 -215.383929035 143.977095265 c 1
 -212.91425423 143.849507743 -210.656775747 142.982181561 -208.810078846 141.605705253 c 1
-216 132 m 1
 -216 132 -120 60 0 60 c 0
 120 60 216 132 216 132 c 1
 216 132 144 12 0 12 c 0
 -144 12 -216 132 -216 132 c 1
EndSplineSet
Fore
SplineSet
0 0 m 131,-1,1
 -63 -3.5527136788e-15 -63 -3.5527136788e-15 -120 29.5 c 128,-1,2
 -177 59 -177 59 -219 115 c 1,3,4
 -224 122 -224 122 -226 125.5 c 128,-1,5
 -228 129 -228 129 -228 132 c 3,6,7
 -228 137 -228 137 -224.5 140.5 c 128,-1,8
 -221 144 -221 144 -216 144 c 3,9,10
 -212 144 -212 144 -208 141 c 1,11,12
 -165 111 -165 111 -109.5 91.5 c 128,-1,13
 -54 72 -54 72 0 72 c 131,-1,14
 54 72 54 72 109.5 91.5 c 128,-1,15
 165 111 165 111 208 141 c 1,16,17
 212 144 212 144 216 144 c 3,18,19
 221 144 221 144 224.5 140.5 c 128,-1,20
 228 137 228 137 228 132 c 3,21,22
 228 129 228 129 226 125.5 c 128,-1,23
 224 122 224 122 219 115 c 1,24,25
 177 59 177 59 120 29.5 c 128,-1,0
 63 -3.5527136788e-15 63 -3.5527136788e-15 0 0 c 131,-1,1
EndSplineSet
Colour: ff00ff
EndChar

StartChar: eyebrow_2
Encoding: 13 -1 11
Width: 0
GlyphClass: 5
Flags: MW
LayerCount: 2
Back
SplineSet
0 24 m 5
 13.24609375 24 24 13.24609375 24 0 c 5
 24 -13.24609375 13.24609375 -24 0 -24 c 13
 0 -24 l 5
 0 -24 0.2744140625 -23.9970703125 0.09375 -24 c 5
 -0.51171875 -24.0107421875 -7.8447265625 -24.189453125 -19.3798828125 -26.3955078125 c 5
 -29.763671875 -28.380859375 -43.5361328125 -32.00390625 -58.9326171875 -38.5556640625 c 5
 -71.251953125 -43.798828125 -84.609375 -50.908203125 -98.193359375 -60.5712890625 c 5
 -115.17578125 -72.65234375 -132.540039062 -88.71484375 -148.7890625 -110.379882812 c 13
 -148.81640625 -110.416015625 l 21
 -153.1953125 -116.254882812 -160.171875 -120.03515625 -168.025390625 -120.03515625 c 5
 -181.26953125 -120.03515625 -192.022460938 -109.283203125 -192.022460938 -96.0390625 c 5
 -192.022460938 -90.6474609375 -190.240234375 -85.6689453125 -187.2109375 -81.6201171875 c 5
 -172.733398438 -62.31640625 -157.236328125 -46.4345703125 -141.608398438 -33.4609375 c 5
 -129.10546875 -23.0810546875 -116.526367188 -14.5625 -104.326171875 -7.591796875 c 5
 -79.9189453125 6.35546875 -57.05859375 14.115234375 -39.0439453125 18.45703125 c 5
 -16.517578125 23.884765625 -1.5048828125 24 0 24 c 5
EndSplineSet
Fore
SplineSet
24 0 m 129,-1,1
 24 -10 24 -10 17 -17 c 129,-1,2
 10 -24 10 -24 0 -24 c 257,3,4
 -5 -24 -5 -24 -17 -26 c 257,5,6
 -52 -32 -52 -32 -86 -52.5 c 129,-1,7
 -120 -73 -120 -73 -147 -108 c 1,8,9
 -155 -120 -155 -120 -168 -120 c 1,10,11
 -178 -120 -178 -120 -185 -113 c 129,-1,12
 -192 -106 -192 -106 -192 -96 c 1,13,14
 -192 -87 -192 -87 -186 -80 c 1,15,16
 -153 -37 -153 -37 -110 -11 c 129,-1,17
 -67 15 -67 15 -21 22 c 257,18,19
 -8 24 -8 24 0 24 c 257,20,21
 10 24 10 24 17 17 c 129,-1,0
 24 10 24 10 24 0 c 129,-1,1
EndSplineSet
Colour: ff00ff
EndChar

StartChar: mouth_smiling1b
Encoding: 48 -1 13
Width: 0
GlyphClass: 5
Flags: MW
LayerCount: 2
Back
SplineSet
-74.1968444553 78.1426951904 m 1
 -74.1968444553 78.1426951904 -74.2778126113 78.1993537673 -74.2235369702 78.1618230224 c 1
 -74.0380944675 78.0335924734 -71.805573815 76.5073483427 -67.6180886113 74.3928382308 c 1
 -63.8490847652 72.4896442237 -58.4969344841 70.1098420258 -51.6226912638 67.8373649282 c 1
 -39.2481612049 63.7466111897 -21.9464436676 60 0 60 c 1
 21.9464436676 60 39.2481612049 63.7466111897 51.6226912638 67.8373649282 c 1
 58.4969344841 70.1098420258 63.8490847652 72.4896442237 67.6180886113 74.3928382308 c 1
 71.805573815 76.5073483427 74.0380944675 78.0335924734 74.2235369702 78.1618230224 c 1
 74.2778128259 78.1993539156 74.1968442595 78.1426950505 74.1968442595 78.1426950505 c 1
 75.5528033353 79.1112372957 77.1694013884 79.7535127881 78.9432587957 79.9416085511 c 1
 84.4301018739 80.5234207819 89.3571112801 76.54086749 89.9389614105 71.0536669955 c 1
 90.1270694261 69.2796940381 89.8381473058 67.5642441874 89.1755746727 66.0352304202 c 1
 89.5731821107 66.9527860454 88.7827320926 65.1138233105 89.1803395306 66.0313789357 c 1
 89.0946989594 65.8337468487 88.226587167 63.846530178 86.5513730076 60.6645100962 c 1
 85.2111245043 58.1187474379 83.3542647588 54.8080117669 80.9619373326 51.0359704005 c 1
 78.5695769458 47.2638770641 75.6418194172 43.0298229878 72.1504108096 38.6399819873 c 1
 69.3572919177 35.1281192382 66.2029653304 31.5160122357 62.6675285091 27.9657827917 c 1
 59.132302117 24.4157646575 55.2151623922 20.9266726656 50.8945492152 17.6727101721 c 1
 47.4383138023 15.0697323212 43.7233593084 12.6173019453 39.7427842972 10.4130149064 c 1
 34.7676393164 7.65797384637 29.3759841942 5.29091095546 23.5764993694 3.51401727478 c 1
 19.5495257784 2.28020010959 15.3271422849 1.33151285291 10.9205484008 0.733153315154 c 1
 7.39535896461 0.254477318004 3.75271293013 0 0 0 c 1
 -3.75271293013 0 -7.39535896461 0.254477318004 -10.9205484008 0.733153315154 c 1
 -15.3271422849 1.33151285291 -19.5495257784 2.28020010959 -23.5764993694 3.51401727478 c 1
 -29.3759841942 5.29091095546 -34.7676393164 7.65797384637 -39.7427842972 10.4130149064 c 1
 -43.7233593084 12.6173019453 -47.4383138023 15.0697323212 -50.8945492152 17.6727101721 c 1
 -55.2151623922 20.9266726656 -59.132302117 24.4157646575 -62.6675285091 27.9657827917 c 1
 -66.2029653304 31.5160122357 -69.3572919177 35.1281192382 -72.1504108096 38.6399819873 c 1
 -75.6418194172 43.0298229878 -78.5695769458 47.2638770641 -80.9619373326 51.0359704005 c 1
 -83.3542647588 54.8080117669 -85.2111245043 58.1187474379 -86.5513730076 60.6645100962 c 1
 -88.2265871794 63.8465302015 -89.0946989384 65.8337467977 -89.1803395481 66.0313789763 c 5
 -89.8429121563 67.5603927044 -90.1318342716 69.2758425055 -89.9437262785 71.0498154148 c 1
 -89.3618762014 76.537015915 -84.4348668341 80.5195692549 -78.9480237504 79.9377570774 c 1
 -77.1741663921 79.7496613371 -75.5575683744 79.1073858916 -74.1968444553 78.1426951904 c 1
-80 70 m 1
 -80 70 -54 10 0 10 c 1
 54 10 80 70 80 70 c 1
 80 70 52 50 0 50 c 1
 -52 50 -80 70 -80 70 c 1
EndSplineSet
Fore
SplineSet
0 0 m 129,-1,1
 -32 0 -32 0 -60 20.5 c 129,-1,2
 -88 41 -88 41 -107 79 c 1,3,4
 -108 82 -108 82 -108 84 c 1,5,6
 -108 89 -108 89 -104.5 92.5 c 129,-1,7
 -101 96 -101 96 -96 96 c 1,8,9
 -92 96 -92 96 -88 93 c 1,10,11
 -71 83 -71 83 -48.5 77.5 c 129,-1,12
 -26 72 -26 72 0 72 c 129,-1,13
 26 72 26 72 48.5 77.5 c 129,-1,14
 71 83 71 83 88 93 c 1,15,16
 92 96 92 96 96 96 c 1,17,18
 101 96 101 96 104.5 92.5 c 129,-1,19
 108 89 108 89 108 84 c 1,20,21
 108 82 108 82 107 79 c 1,22,23
 88 41 88 41 60 20.5 c 129,-1,0
 32 0 32 0 0 0 c 129,-1,1
EndSplineSet
Colour: ff00ff
EndChar

StartChar: LoudlyCryingFace.3
Encoding: 337 -1 14
Width: 0
GlyphClass: 5
Flags: MW
LayerCount: 2
Back
SplineSet
0 24 m 0
 -39.7685546875 24 -72 32.2314453125 -72 72 c 0
 -72 111.768554688 -39.7685546875 120 0 120 c 0
 39.7685546875 120 72 111.768554688 72 72 c 0
 72 32.2314453125 39.7685546875 24 0 24 c 0
EndSplineSet
Fore
SplineSet
-72 72 m 129,-1,1
 -72 97 -72 97 -55 108.5 c 129,-1,2
 -38 120 -38 120 0 120 c 129,-1,3
 38 120 38 120 55 108.5 c 129,-1,4
 72 97 72 97 72 72 c 129,-1,5
 72 47 72 47 55 35.5 c 129,-1,6
 38 24 38 24 0 24 c 129,-1,7
 -38 24 -38 24 -55 35.5 c 129,-1,0
 -72 47 -72 47 -72 72 c 129,-1,1
EndSplineSet
Colour: ffff
EndChar

StartChar: mouth_flat2
Encoding: 49 -1 15
Width: 0
GlyphClass: 5
Flags: MW
LayerCount: 2
Fore
SplineSet
-24 0 m 128,-1,1
 -24 10 -24 10 -17 17 c 128,-1,2
 -10 24 -10 24 0 24 c 2,3,-1
 192 24 l 2,4,5
 202 24 202 24 209 17 c 128,-1,6
 216 10 216 10 216 0 c 128,-1,7
 216 -10 216 -10 209 -17 c 128,-1,8
 202 -24 202 -24 192 -24 c 2,9,-1
 0 -24 l 2,10,11
 -10 -24 -10 -24 -17 -17 c 128,-1,0
 -24 -10 -24 -10 -24 0 c 128,-1,1
EndSplineSet
Colour: ff00ff
EndChar

StartChar: eyebrow_loudlycrying
Encoding: 14 -1 16
Width: 0
GlyphClass: 5
Flags: MW
LayerCount: 2
Back
SplineSet
-168 -120 m 1024
-19.9833984375 13.2890625 m 5
 -19.9833984375 13.2890625 -19.98046875 13.287109375 -19.9521484375 13.3359375 c 0
 -15.677734375 19.7421875 -8.3310546875 23.998046875 0.0009765625 23.998046875 c 0
 13.24609375 23.998046875 24 13.244140625 24 -0.0009765625 c 0
 24 -4.9130859375 22.5205078125 -9.4833984375 19.9833984375 -13.2890625 c 0
 19.1494140625 -14.5400390625 8.564453125 -30.17578125 -14.0283203125 -51.638671875 c 0
 -42.2607421875 -78.458984375 -89.3037109375 -114.375 -159.100585938 -142.29296875 c 0
 -161.853515625 -143.39453125 -164.857421875 -144 -168.001953125 -144 c 0
 -181.25 -144 -192.005859375 -133.244140625 -192.005859375 -119.99609375 c 0
 -192.005859375 -109.892578125 -185.749023438 -101.23828125 -176.9296875 -97.71875 c 0
 -176.90234375 -97.69921875 -176.899414062 -97.70703125 -176.899414062 -97.70703125 c 2
 -126.0625 -77.3720703125 -89.1328125 -52.677734375 -63.865234375 -31.724609375 c 0
 -49.828125 -20.083984375 -39.3974609375 -9.59765625 -32.228515625 -1.66796875 c 0
 -24.2626953125 7.142578125 -20.32421875 12.794921875 -19.955078125 13.3310546875 c 0
 -19.859375 13.470703125 -19.9833984375 13.2890625 -19.9833984375 13.2890625 c 5
EndSplineSet
Fore
SplineSet
24 0 m 1,0,1
 24 -9 24 -9 18 -16 c 1,2,3
 -7 -50 -7 -50 -53 -84 c 129,-1,4
 -99 -118 -99 -118 -156 -141 c 1,5,6
 -162 -144 -162 -144 -168 -144 c 1,7,8
 -178 -144 -178 -144 -185 -137 c 129,-1,9
 -192 -130 -192 -130 -192 -120 c 129,-1,10
 -192 -110 -192 -110 -185 -103 c 1,11,12
 -181 -99 -181 -99 -175 -97 c 1,13,14
 -121 -75 -121 -75 -81.5 -45.5 c 129,-1,15
 -42 -16 -42 -16 -21 12 c 1,16,17
 -13 24 -13 24 0 24 c 1,18,19
 10 24 10 24 17 17 c 129,-1,20
 24 10 24 10 24 0 c 1,0,1
EndSplineSet
Colour: ff00ff
EndChar

StartChar: eye_loudlycrying
Encoding: 31 -1 17
Width: 0
GlyphClass: 5
Flags: MW
LayerCount: 2
Back
SplineSet
10.7099609375 -21.48046875 m 5
 7.4384765625 -23.12109375 3.80078125 -24.0283203125 -0.0478515625 -24.0283203125 c 4
 -13.294921875 -24.0283203125 -24.0498046875 -13.2734375 -24.0498046875 -0.0263671875 c 4
 -24.0498046875 9.373046875 -18.6357421875 17.517578125 -10.7578125 21.4560546875 c 6
 -10.7099609375 21.48046875 l 6
 -9.6552734375 22.0078125 4.8671875 29.201171875 28.3076171875 35.5947265625 c 4
 38.728515625 38.4365234375 50.91796875 41.1181640625 64.49609375 42.94921875 c 4
 75.3583984375 44.4130859375 87.109375 45.3330078125 99.5556640625 45.3330078125 c 4
 131.032226562 45.3330078125 166.861328125 39.404296875 202.709960938 21.48046875 c 6
 202.7578125 21.4560546875 l 6
 210.635742188 17.517578125 216.049804688 9.373046875 216.049804688 -0.0263671875 c 4
 216.049804688 -13.2734375 205.294921875 -24.0283203125 192.047851562 -24.0283203125 c 4
 188.19921875 -24.0283203125 184.561523438 -23.12109375 181.290039062 -21.48046875 c 4
 153.138671875 -7.404296875 124.967773438 -2.6669921875 99.5556640625 -2.6669921875 c 4
 89.5263671875 -2.6669921875 79.9140625 -3.412109375 70.958984375 -4.619140625 c 4
 59.7666015625 -6.1279296875 49.60546875 -8.359375 40.9501953125 -10.720703125 c 4
 32.294921875 -13.080078125 25.1484375 -15.568359375 19.974609375 -17.5615234375 c 4
 14.224609375 -19.77734375 10.912109375 -21.3818359375 10.66015625 -21.5048828125 c 4
 10.5791015625 -21.544921875 10.7099609375 -21.48046875 10.7099609375 -21.48046875 c 5
EndSplineSet
Fore
SplineSet
-24 0 m 129,-1,1
 -24 10 -24 10 -17 17 c 1,2,3
 -13 21 -13 21 -5 24 c 1,4,5
 43 45 43 45 101 45 c 1,6,7
 155 45 155 45 202 22 c 1,8,9
 206 20 206 20 209 17 c 1,10,11
 216 10 216 10 216 0 c 129,-1,12
 216 -10 216 -10 209 -17 c 129,-1,13
 202 -24 202 -24 192 -24 c 1,14,15
 186 -24 186 -24 180 -21 c 1,16,17
 144 -3 144 -3 100 -3 c 1,18,19
 52 -3 52 -3 12 -21 c 1,20,21
 6 -24 6 -24 0 -24 c 1,22,23
 -10 -24 -10 -24 -17 -17 c 129,-1,0
 -24 -10 -24 -10 -24 0 c 129,-1,1
EndSplineSet
Colour: ff00ff
EndChar

StartChar: tears2
Encoding: 81 -1 18
Width: 0
GlyphClass: 5
Flags: MW
LayerCount: 2
Back
SplineSet
-240 -120 m 1
 -144 -120 l 1
 -144 336 l 1
 -240 336 l 1
 -240 -120 l 1
144 -120 m 1
 240 -120 l 1
 240 336 l 1
 144 336 l 1
 144 -120 l 1
EndSplineSet
Fore
SplineSet
-240 -96 m 1,0,-1
 -240 336 l 1,1,-1
 -144 336 l 1,2,-1
 -144 -96 l 1,3,-1
 -240 -96 l 1,0,-1
144 -96 m 1,4,-1
 144 336 l 1,5,-1
 240 336 l 1,6,-1
 240 -96 l 1,7,-1
 144 -96 l 1,4,-1
EndSplineSet
Colour: ffff00
EndChar

StartChar: cryingmouth1
Encoding: 50 -1 19
Width: 0
GlyphClass: 5
Flags: MW
LayerCount: 2
Fore
SplineSet
0 0 m 129,-1,1
 -60 0 -60 0 -78 18 c 129,-1,2
 -96 36 -96 36 -96 72 c 1,3,4
 -96 125 -96 125 -66.5 170.5 c 129,-1,5
 -37 216 -37 216 0 216 c 129,-1,6
 37 216 37 216 66.5 170.5 c 129,-1,7
 96 125 96 125 96 72 c 1,8,9
 96 36 96 36 78 18 c 129,-1,0
 60 0 60 0 0 0 c 129,-1,1
EndSplineSet
Colour: ff00ff
EndChar

StartChar: GrinningFace.1
Encoding: 121 -1 22
Width: 0
GlyphClass: 5
Flags: MW
LayerCount: 2
Back
SplineSet
-432 288 m 4
 -432 49.4130859375 -238.586914062 -144 0 -144 c 4
 238.586914062 -144 432 49.4130859375 432 288 c 4
 432 526.586914062 238.586914062 720 0 720 c 4
 -238.586914062 720 -432 526.586914062 -432 288 c 4
0 216 m 4
 -86.953125 216 -144.646484375 226.126953125 -216 240 c 4
 -232.295898438 243.142578125 -264 240 -264 192 c 4
 -264 96 -153.719726562 -24 0 -24 c 4
 153.696289062 -24 264 96 264 192 c 4
 264 240 232.295898438 243.168945312 216 240 c 4
 144.646484375 226.126953125 86.953125 216 0 216 c 4
-216 192 m 5
 -216 192 -144 168 0 168 c 4
 144 168 216 192 216 192 c 5
 216 192 168 96 0 96 c 4
 -168 96 -216 192 -216 192 c 5
-204 396 m 4
 -204 349.607421875 -177.135742188 312 -144 312 c 4
 -110.864257812 312 -84 349.607421875 -84 396 c 4
 -84 442.392578125 -110.864257812 480 -144 480 c 4
 -177.135742188 480 -204 442.392578125 -204 396 c 4
84 396 m 4
 84 349.607421875 110.864257812 312 144 312 c 4
 177.135742188 312 204 349.607421875 204 396 c 4
 204 442.392578125 177.135742188 480 144 480 c 4
 110.864257812 480 84 442.392578125 84 396 c 4
EndSplineSet
Fore
Refer: 510 -1 S 1 0 0 1 0 72 2
Refer: 35 -1 N 1 0 0 1 0 -24 0
Colour: ffff
EndChar

StartChar: GrinningFaceWithBigEyes.1
Encoding: 122 -1 24
Width: 0
GlyphClass: 5
Flags: MW
LayerCount: 2
Back
SplineSet
-96 420 m 0
 -96 360.361328125 -122.857421875 288 -156 288 c 0
 -189.142578125 288 -216 360.361328125 -216 420 c 0
 -216 479.638671875 -189.142578125 552 -156 552 c 0
 -122.857421875 552 -96 479.638671875 -96 420 c 0
216 420 m 4
 216 360.361328125 189.142578125 288 156 288 c 4
 122.857421875 288 96 360.361328125 96 420 c 4
 96 479.638671875 122.857421875 552 156 552 c 4
 189.142578125 552 216 479.638671875 216 420 c 4
432 288 m 0
 432 49.416015625 238.583984375 -144 0 -144 c 0
 -238.560546875 -144 -432 49.416015625 -432 288 c 0
 -432 526.560546875 -238.560546875 720 0 720 c 0
 238.583984375 720 432 526.560546875 432 288 c 1024
0 192 m 0
 -86.953125 192 -144.646484375 202.126953125 -216 216 c 0
 -232.295898438 219.142578125 -264 216 -264 168 c 0
 -264 72 -153.719726562 -48 0 -48 c 0
 153.696289062 -48 264 72 264 168 c 0
 264 216 232.295898438 219.168945312 216 216 c 0
 144.646484375 202.126953125 86.953125 192 0 192 c 0
-216 168 m 1
 -216 168 -144 144 0 144 c 0
 144 144 216 168 216 168 c 1
 216 168 168 72 0 72 c 0
 -168 72 -216 168 -216 168 c 1
EndSplineSet
Fore
Refer: 35 -1 N 1 0 0 1 0 -48 0
Refer: 48 -1 N 1 0 0 1 156 288 0
Refer: 48 -1 N 1 0 0 1 -156 288 0
Colour: ffff
EndChar

StartChar: KissingFace.1
Encoding: 155 -1 26
Width: 0
Flags: MW
LayerCount: 2
Back
SplineSet
432 288 m 0
 432 49.416015625 238.583984375 -144 0 -144 c 0
 -238.560546875 -144 -432 49.416015625 -432 288 c 0
 -432 526.560546875 -238.560546875 720 0 720 c 0
 238.583984375 720 432 526.560546875 432 288 c 1024
-192 348 m 0
 -192 301.607421875 -165.135742188 264 -132 264 c 0
 -98.8642578125 264 -72 301.607421875 -72 348 c 0
 -72 394.392578125 -98.8642578125 432 -132 432 c 0
 -165.135742188 432 -192 394.392578125 -192 348 c 0
72 348 m 0
 72 301.607421875 98.8642578125 264 132 264 c 0
 165.135742188 264 192 301.607421875 192 348 c 0
 192 394.392578125 165.135742188 432 132 432 c 0
 98.8642578125 432 72 394.392578125 72 348 c 0
68.904296875 48 m 1
 100.943359375 57.888671875 132 75.7431640625 132 108 c 0
 132 170.857421875 14.111328125 179.231445312 0.6728515625 179.9765625 c 0
 -5.904296875 180.623046875 -11.54296875 175.342773438 -11.9765625 168.743164062 c 0
 -12.384765625 162.168945312 -7.416015625 156.48046875 -0.8388671875 156.0234375 c 0
 0 155.9765625 84 148.846679688 84 108 c 0
 84 67.1533203125 0 60.0234375 -0.8388671875 59.9765625 c 0
 -1.1533203125 59.953125 -1.392578125 59.7841796875 -1.7041015625 59.7353515625 c 0
 -2.9765625 59.591796875 -4.1533203125 59.3037109375 -5.2802734375 58.7529296875 c 2
 -5.638671875 58.53515625 l 2
 -6.7919921875 57.888671875 -7.8232421875 57.119140625 -8.6884765625 56.134765625 c 0
 -9.0234375 55.7763671875 -9.2392578125 55.392578125 -9.52734375 55.0078125 c 0
 -10.080078125 54.2392578125 -10.583984375 53.47265625 -10.96875 52.53515625 c 0
 -11.2568359375 51.8388671875 -11.400390625 51.072265625 -11.54296875 50.3271484375 c 0
 -11.638671875 49.7763671875 -11.927734375 49.2724609375 -11.9765625 48.7197265625 c 0
 -11.9765625 48.45703125 -11.880859375 48.2158203125 -11.880859375 47.9765625 c 0
 -11.880859375 47.7353515625 -12 47.47265625 -11.9765625 47.2314453125 c 0
 -11.953125 46.6572265625 -11.6650390625 46.1533203125 -11.54296875 45.599609375 c 0
 -11.400390625 44.857421875 -11.2802734375 44.134765625 -10.9921875 43.439453125 c 0
 -10.6806640625 42.7197265625 -10.2470703125 42.072265625 -9.8154296875 41.423828125 c 0
 -9.408203125 40.8466796875 -9.046875 40.2236328125 -8.568359375 39.7197265625 c 0
 -8.015625 39.1689453125 -7.369140625 38.7353515625 -6.6962890625 38.2568359375 c 0
 -6.119140625 37.8466796875 -5.591796875 37.439453125 -4.919921875 37.126953125 c 0
 -4.1533203125 36.7685546875 -3.3349609375 36.623046875 -2.49609375 36.48046875 c 0
 -1.919921875 36.3349609375 -1.439453125 36.046875 -0.8388671875 36 c 0
 0 35.9765625 84 28.8466796875 84 -12 c 0
 84 -52.8466796875 0 -59.9765625 -0.8388671875 -60.0234375 c 0
 -7.416015625 -60.50390625 -12.384765625 -66.1923828125 -11.9765625 -72.7431640625 c 0
 -11.568359375 -79.103515625 -6.2880859375 -84 0 -84 c 2
 0.6728515625 -83.9765625 l 2
 14.111328125 -83.2314453125 132 -74.857421875 132 -12 c 0
 132 20.2568359375 100.943359375 38.111328125 68.904296875 48 c 1
EndSplineSet
Fore
Refer: 228 -1 N 1 0 0 1 132 -60 0
Refer: 228 -1 N 1 0 0 1 -132 -60 0
Refer: 67 -1 N 1 0 0 1 0 48 0
Colour: ffff
EndChar

StartChar: GrinningFaceWithSmilingEyes.1
Encoding: 123 -1 28
Width: 0
GlyphClass: 5
Flags: MW
LayerCount: 2
Back
SplineSet
432 288 m 0
 432 49.416015625 238.583984375 -144 0 -144 c 0
 -238.560546875 -144 -432 49.416015625 -432 288 c 0
 -432 526.560546875 -238.560546875 720 0 720 c 0
 238.583984375 720 432 526.560546875 432 288 c 1024
250.96875 292.873046875 m 0
 249.52734375 296.111328125 214.9921875 372 144 372 c 0
 73.03125 372 38.47265625 296.111328125 37.03125 292.873046875 c 0
 34.8232421875 287.904296875 36.2646484375 282.095703125 40.51171875 278.688476562 c 0
 44.7119140625 275.280273438 50.7353515625 275.161132812 55.1533203125 278.353515625 c 0
 55.439453125 278.568359375 85.439453125 300 144 300 c 0
 202.223632812 300 232.176757812 278.857421875 232.846679688 278.376953125 c 0
 234.9609375 276.791992188 237.50390625 276 240 276 c 0
 242.638671875 276 245.303710938 276.888671875 247.48828125 278.615234375 c 0
 251.735351562 282.0234375 253.200195312 287.880859375 250.96875 292.873046875 c 0
-37.03125 292.873046875 m 0
 -38.47265625 296.111328125 -73.0078125 372 -144 372 c 0
 -214.96875 372 -249.52734375 296.111328125 -250.96875 292.873046875 c 0
 -253.176757812 287.904296875 -251.735351562 282.095703125 -247.51171875 278.688476562 c 0
 -243.288085938 275.280273438 -237.264648438 275.161132812 -232.873046875 278.353515625 c 0
 -232.560546875 278.568359375 -202.583984375 300 -144 300 c 0
 -85.7763671875 300 -55.8232421875 278.857421875 -55.1533203125 278.376953125 c 0
 -53.0390625 276.791992188 -50.49609375 276 -48 276 c 0
 -45.361328125 276 -42.6962890625 276.888671875 -40.51171875 278.615234375 c 0
 -36.2392578125 282.0234375 -34.8232421875 287.880859375 -37.03125 292.873046875 c 0
0 192 m 0
 -86.953125 192 -144.646484375 202.126953125 -216 216 c 0
 -232.295898438 219.142578125 -264 216 -264 168 c 0
 -264 72 -153.719726562 -48 0 -48 c 0
 153.696289062 -48 264 72 264 168 c 0
 264 216 232.295898438 219.168945312 216 216 c 0
 144.646484375 202.126953125 86.953125 192 0 192 c 0
-216 168 m 1
 -216 168 -144 144 0 144 c 0
 144 144 216 168 216 168 c 1
 216 168 168 72 0 72 c 0
 -168 72 -216 168 -216 168 c 1
EndSplineSet
Fore
Refer: 134 -1 N 1 0 0 1 0 -84 0
Refer: 35 -1 N 1 0 0 1 0 -48 0
Colour: ffff
EndChar

StartChar: SmilingFaceWithHeartEyes.2
Encoding: 149 -1 29
Width: 0
Flags: MW
LayerCount: 2
Back
SplineSet
432 288 m 0
 432 49.416015625 238.583984375 -144 0 -144 c 0
 -238.583984375 -144 -432 49.416015625 -432 288 c 0
 -432 526.583984375 -238.583984375 720 0 720 c 0
 238.583984375 720 432 526.583984375 432 288 c 1024
0 195.623046875 m 0
 -71.1845703125 195.623046875 -118.439453125 203.927734375 -176.857421875 215.280273438 c 0
 -190.223632812 217.823242188 -216.168945312 215.280273438 -216.168945312 175.96875 c 0
 -216.168945312 97.369140625 -125.857421875 -0.888671875 0 -0.888671875 c 0
 125.857421875 -0.888671875 216.168945312 97.369140625 216.168945312 175.96875 c 0
 216.168945312 215.280273438 190.200195312 217.846679688 176.857421875 215.280273438 c 0
 118.439453125 203.927734375 71.2080078125 195.623046875 0 195.623046875 c 1024
-32.400390625 641.256835938 m 4
 -53.015625 699.599609375 -116.9765625 730.223632812 -175.342773438 709.657226562 c 0
 -210.768554688 697.176757812 -235.846679688 668.591796875 -245.615234375 635.161132812 c 1
 -274.200195312 655.056640625 -311.638671875 661.560546875 -347.015625 649.080078125 c 0
 -405.334960938 628.48828125 -436.0078125 564.48046875 -415.392578125 506.134765625 c 4
 -412.46484375 497.880859375 -408.576171875 490.223632812 -404.064453125 483.142578125 c 0
 -357.239257812 397.176757812 -221.953125 336.743164062 -140.0390625 336 c 0
 -76.7529296875 388.0078125 -9.3349609375 519.9609375 -26.8076171875 616.247070312 c 0
 -27.7197265625 624.599609375 -29.51953125 633 -32.400390625 641.256835938 c 4
32.400390625 641.256835938 m 0
 53.015625 699.599609375 117 730.223632812 175.342773438 709.657226562 c 0
 210.768554688 697.176757812 235.846679688 668.591796875 245.638671875 635.161132812 c 1
 274.223632812 655.056640625 311.665039062 661.560546875 347.0390625 649.080078125 c 0
 405.361328125 628.48828125 436.0078125 564.48046875 415.439453125 506.134765625 c 0
 412.48828125 497.880859375 408.623046875 490.223632812 404.087890625 483.142578125 c 0
 357.264648438 397.176757812 221.9765625 336.743164062 140.0390625 336 c 0
 76.7529296875 388.0078125 9.361328125 519.9609375 26.8310546875 616.247070312 c 0
 27.7197265625 624.599609375 29.51953125 633 32.400390625 641.256835938 c 0
EndSplineSet
Fore
Refer: 9 -1 N 0.550269 0.194104 -0.194104 0.550269 -140 336 0
Refer: 9 -1 N 0.550269 -0.194104 0.194104 0.550269 140 336 0
Colour: ffff
EndChar

StartChar: KissingFaceWithClosedEyes.2
Encoding: 159 -1 30
Width: 0
Flags: MW
LayerCount: 2
Back
SplineSet
432 288 m 0
 432 49.416015625 238.583984375 -144 0 -144 c 0
 -238.583984375 -144 -432 49.416015625 -432 288 c 0
 -432 526.583984375 -238.583984375 720 0 720 c 0
 238.583984375 720 432 526.583984375 432 288 c 1024
-384 216 m 0
 -384 149.725585938 -330.274414062 96 -264 96 c 0
 -197.725585938 96 -144 149.725585938 -144 216 c 0
 -144 282.274414062 -197.725585938 336 -264 336 c 0
 -330.274414062 336 -384 282.274414062 -384 216 c 0
144 216 m 0
 144 149.725585938 197.725585938 96 264 96 c 0
 330.274414062 96 384 149.725585938 384 216 c 0
 384 282.274414062 330.274414062 336 264 336 c 0
 197.725585938 336 144 282.274414062 144 216 c 0
249.984375 294.646484375 m 0
 248.51953125 296.831054688 213.623046875 348 144 348 c 0
 74.400390625 348 39.48046875 296.831054688 38.015625 294.646484375 c 0
 34.7763671875 289.799804688 35.51953125 283.369140625 39.7197265625 279.334960938 c 0
 43.896484375 275.327148438 50.423828125 274.896484375 55.1533203125 278.327148438 c 0
 55.439453125 278.568359375 85.439453125 300 144 300 c 0
 202.223632812 300 232.176757812 278.857421875 232.846679688 278.376953125 c 0
 234.984375 276.791992188 237.50390625 276 240 276 c 0
 242.9765625 276 245.953125 277.103515625 248.256835938 279.288085938 c 0
 252.50390625 283.295898438 253.223632812 289.799804688 249.984375 294.646484375 c 0
-144 348 m 0
 -213.599609375 348 -248.51953125 296.831054688 -249.984375 294.646484375 c 0
 -253.200195312 289.799804688 -252.48046875 283.369140625 -248.280273438 279.334960938 c 0
 -244.080078125 275.327148438 -237.552734375 274.896484375 -232.873046875 278.327148438 c 0
 -232.560546875 278.568359375 -202.583984375 300 -144 300 c 0
 -85.7763671875 300 -55.8232421875 278.857421875 -55.1533203125 278.376953125 c 0
 -53.015625 276.791992188 -50.49609375 276 -48 276 c 0
 -45.0234375 276 -42.046875 277.103515625 -39.7431640625 279.288085938 c 0
 -35.49609375 283.295898438 -34.7529296875 289.799804688 -38.015625 294.672851562 c 0
 -39.48046875 296.831054688 -74.376953125 348 -144 348 c 0
92.904296875 72 m 1
 124.943359375 81.888671875 156 99.7431640625 156 132 c 0
 156 194.857421875 38.111328125 203.231445312 24.646484375 203.9765625 c 0
 18 204.838867188 12.408203125 199.319335938 12.0234375 192.743164062 c 0
 11.615234375 186.168945312 16.583984375 180.48046875 23.1611328125 180.0234375 c 0
 24 179.9765625 108 172.846679688 108 132 c 0
 108 91.1533203125 24 84.0234375 23.1611328125 83.9765625 c 0
 22.919921875 83.953125 22.7529296875 83.8310546875 22.53515625 83.8076171875 c 0
 19.560546875 83.615234375 17.015625 82.2470703125 15.095703125 79.9921875 c 2
 14.7353515625 79.48828125 l 2
 14.0390625 78.552734375 13.416015625 77.615234375 12.984375 76.48828125 c 0
 12.7197265625 75.8388671875 12.599609375 75.119140625 12.48046875 74.423828125 c 0
 12.361328125 73.8466796875 12.072265625 73.3193359375 12.0234375 72.7431640625 c 0
 12 72.50390625 12.119140625 72.2646484375 12.119140625 72 c 0
 12.119140625 71.7353515625 12 71.49609375 12.0234375 71.2568359375 c 0
 12.072265625 70.6572265625 12.3349609375 70.1533203125 12.48046875 69.576171875 c 0
 12.623046875 68.880859375 12.7431640625 68.1611328125 13.0078125 67.48828125 c 0
 13.3193359375 66.7197265625 13.7763671875 66.046875 14.2314453125 65.376953125 c 0
 14.638671875 64.8232421875 14.953125 64.2470703125 15.431640625 63.7685546875 c 0
 15.984375 63.1923828125 16.6806640625 62.7353515625 17.376953125 62.2802734375 c 0
 17.953125 61.873046875 18.45703125 61.48828125 19.080078125 61.1767578125 c 0
 19.8232421875 60.8154296875 20.638671875 60.6728515625 21.50390625 60.52734375 c 0
 22.056640625 60.384765625 22.560546875 60.095703125 23.1611328125 60.046875 c 0
 24 59.9765625 108 52.8466796875 108 12 c 0
 108 -28.8466796875 24 -35.9765625 23.1611328125 -36.0234375 c 0
 16.607421875 -36.50390625 11.615234375 -42.1923828125 12.0234375 -48.7431640625 c 0
 12.431640625 -55.103515625 17.6884765625 -60 24 -60 c 2
 24.646484375 -59.9765625 l 2
 38.111328125 -59.2314453125 156 -50.857421875 156 12 c 0
 156 44.2568359375 124.943359375 62.111328125 92.904296875 72 c 1
312.0234375 336 m 0
 304.704101562 336 297.52734375 339.311523438 292.799804688 345.599609375 c 0
 229.416015625 430.103515625 147.334960938 431.9765625 143.857421875 432 c 0
 130.657226562 432.142578125 120 442.943359375 120.072265625 456.119140625 c 0
 120.142578125 469.342773438 130.799804688 480 144 480 c 0
 148.416015625 480 252.888671875 478.799804688 331.200195312 374.400390625 c 0
 339.168945312 363.791992188 337.0078125 348.743164062 326.400390625 340.799804688 c 0
 322.080078125 337.560546875 317.0390625 336 312.0234375 336 c 0
-312.0234375 336 m 0
 -317.015625 336 -322.080078125 337.560546875 -326.400390625 340.799804688 c 0
 -337.0078125 348.743164062 -339.142578125 363.791992188 -331.200195312 374.400390625 c 0
 -252.912109375 478.799804688 -148.416015625 480 -144 480 c 0
 -130.752929688 480 -120 469.247070312 -120 456 c 0
 -120 442.776367188 -130.680664062 432.046875 -143.904296875 432 c 0
 -147.646484375 431.953125 -229.560546875 429.935546875 -292.823242188 345.599609375 c 0
 -297.50390625 339.311523438 -304.727539062 336 -312.0234375 336 c 0
EndSplineSet
Fore
Refer: 67 -1 N 1 0 0 1 24 72 0
Refer: 66 -1 N -1 0 0 -1 144 348 0
Refer: 66 -1 N -1 0 0 -1 -144 348 0
Refer: 11 -1 N -1 0 0 1 144 456 0
Refer: 11 -1 N 1 0 0 1 -144 456 0
Colour: ffff
EndChar

StartChar: SmilingFaceWithHearts.1
Encoding: 145 -1 32
Width: 0
Flags: MW
LayerCount: 2
Back
SplineSet
-432 288 m 0
 -432 49.4130859375 -238.586914062 -144 0 -144 c 0
 238.586914062 -144 432 49.4130859375 432 288 c 0
 432 526.586914062 238.586914062 720 0 720 c 0
 -238.586914062 720 -432 526.586914062 -432 288 c 0
-48 313.0078125 m 0
 -58.056640625 313.0078125 -67.416015625 319.369140625 -70.7763671875 329.423828125 c 0
 -75.646484375 343.799804688 -95.2080078125 385.0078125 -120 385.0078125 c 0
 -145.48828125 385.0078125 -165.311523438 341.161132812 -169.223632812 329.423828125 c 0
 -173.423828125 316.873046875 -186.935546875 310.03125 -199.583984375 314.256835938 c 0
 -212.161132812 318.431640625 -218.953125 332.0390625 -214.752929688 344.615234375 c 0
 -211.752929688 353.665039062 -183.45703125 433.03125 -119.9765625 433.03125 c 0
 -56.49609375 433.03125 -28.2236328125 353.665039062 -25.2001953125 344.615234375 c 0
 -21 332.0390625 -27.7919921875 318.431640625 -40.369140625 314.256835938 c 0
 -42.912109375 313.392578125 -45.48046875 313.0078125 -48 313.0078125 c 0
192 313.0078125 m 0
 181.943359375 313.0078125 172.583984375 319.369140625 169.247070312 329.423828125 c 0
 164.376953125 343.799804688 144.791992188 385.0078125 120 385.0078125 c 0
 94.51171875 385.0078125 74.6650390625 341.161132812 70.7529296875 329.423828125 c 0
 66.552734375 316.873046875 53.087890625 310.03125 40.392578125 314.256835938 c 0
 27.8388671875 318.431640625 21.0234375 332.0390625 25.2236328125 344.615234375 c 0
 28.2236328125 353.665039062 56.51953125 433.03125 119.9765625 433.03125 c 0
 183.431640625 433.03125 211.727539062 353.665039062 214.727539062 344.615234375 c 0
 218.927734375 332.0390625 212.134765625 318.431640625 199.560546875 314.256835938 c 0
 197.064453125 313.392578125 194.51953125 313.0078125 192 313.0078125 c 0
224.0390625 223.416015625 m 0
 219.768554688 227.280273438 213.384765625 227.51953125 208.799804688 224.111328125 c 0
 207.865234375 223.416015625 114.672851562 154.51171875 0 154.51171875 c 0
 -114.384765625 154.51171875 -207.888671875 223.416015625 -208.799804688 224.111328125 c 0
 -213.384765625 227.51953125 -219.768554688 227.231445312 -224.0390625 223.416015625 c 0
 -228.288085938 219.576171875 -229.247070312 213.239257812 -226.295898438 208.342773438 c 0
 -223.200195312 203.184570312 -149.087890625 82.51171875 0 82.51171875 c 0
 149.087890625 82.51171875 223.223632812 203.184570312 226.295898438 208.342773438 c 0
 229.247070312 213.264648438 228.311523438 219.552734375 224.0390625 223.416015625 c 0
77.49609375 625.272460938 m 0
 77.49609375 619.51171875 78.2158203125 613.943359375 79.46484375 608.568359375 c 0
 89.6650390625 545.134765625 160.200195312 478.223632812 210.743164062 459.838867188 c 0
 250.704101562 474.361328125 303.046875 519.264648438 328.295898438 568.776367188 c 0
 278.161132812 627.334960938 212.638671875 672.311523438 138 697.46484375 c 0
 103.630859375 691.295898438 77.49609375 661.416015625 77.49609375 625.272460938 c 0
-102.168945312 22.126953125 m 0
 -100.799804688 27.935546875 -100.0078125 33.984375 -100.0078125 40.2236328125 c 0
 -100.0078125 84.2158203125 -135.672851562 119.880859375 -179.665039062 119.880859375 c 0
 -206.376953125 119.880859375 -229.919921875 106.704101562 -244.392578125 86.54296875 c 1
 -258.838867188 106.680664062 -282.408203125 119.880859375 -309.119140625 119.880859375 c 0
 -338.904296875 119.880859375 -364.583984375 103.342773438 -378.239257812 79.126953125 c 0
 -334.46484375 0.046875 -266.638671875 -63.8388671875 -184.607421875 -102.646484375 c 0
 -145.319335938 -70.2236328125 -109.46484375 -23.2802734375 -102.168945312 22.126953125 c 0
391.223632812 104.591796875 m 0
 384.45703125 127.392578125 363.576171875 144.119140625 338.568359375 144.119140625 c 0
 320.064453125 144.119140625 303.743164062 135 293.735351562 121.03125 c 1
 283.727539062 135 267.408203125 144.119140625 248.904296875 144.119140625 c 0
 218.423828125 144.119140625 193.727539062 119.423828125 193.727539062 88.943359375 c 0
 193.727539062 84.623046875 194.280273438 80.447265625 195.215820312 76.416015625 c 0
 202.583984375 30.6962890625 251.568359375 -17.087890625 289.03125 -33.046875 c 0
 331.657226562 5.353515625 366.576171875 52.080078125 391.223632812 104.591796875 c 0
375 641.54296875 m 0
 375 682.153320312 342.072265625 715.056640625 301.48828125 715.056640625 c 0
 276.838867188 715.056640625 255.095703125 702.888671875 241.752929688 684.288085938 c 1
 228.408203125 702.888671875 206.665039062 715.056640625 182.015625 715.056640625 c 0
 141.408203125 715.056640625 108.50390625 682.153320312 108.50390625 641.54296875 c 0
 108.50390625 635.784179688 109.223632812 630.215820312 110.47265625 624.838867188 c 0
 120.696289062 561.408203125 191.208007812 494.49609375 241.752929688 476.111328125 c 0
 292.295898438 494.49609375 362.807617188 561.408203125 373.0078125 624.815429688 c 0
 374.280273438 630.215820312 375 635.784179688 375 641.54296875 c 0
-139.0078125 38.2080078125 m 0
 -139.0078125 82.2001953125 -174.672851562 117.865234375 -218.665039062 117.865234375 c 0
 -245.376953125 117.865234375 -268.919921875 104.688476562 -283.392578125 84.52734375 c 1
 -297.838867188 104.688476562 -321.408203125 117.865234375 -348.119140625 117.865234375 c 0
 -392.111328125 117.865234375 -427.776367188 82.2001953125 -427.776367188 38.2080078125 c 0
 -427.776367188 31.96875 -426.984375 25.943359375 -425.638671875 20.111328125 c 0
 -414.576171875 -48.599609375 -338.184570312 -121.103515625 -283.416015625 -141.0234375 c 0
 -228.646484375 -121.126953125 -152.256835938 -48.623046875 -141.192382812 20.087890625 c 0
 -139.799804688 25.943359375 -139.0078125 31.9921875 -139.0078125 38.2080078125 c 0
430.752929688 92.953125 m 0
 430.752929688 123.431640625 406.056640625 148.126953125 375.576171875 148.126953125 c 0
 357.072265625 148.126953125 340.752929688 139.0078125 330.743164062 125.0390625 c 1
 320.735351562 139.0078125 304.416015625 148.126953125 285.912109375 148.126953125 c 0
 255.431640625 148.126953125 230.735351562 123.431640625 230.735351562 92.953125 c 0
 230.735351562 88.630859375 231.288085938 84.45703125 232.223632812 80.423828125 c 0
 239.880859375 32.8310546875 292.799804688 -17.400390625 330.743164062 -31.1767578125 c 0
 368.665039062 -17.400390625 421.607421875 32.8310546875 429.239257812 80.423828125 c 0
 430.200195312 84.45703125 430.752929688 88.630859375 430.752929688 92.953125 c 0
EndSplineSet
Fore
Refer: 489 -1 N 1 0 0 1 0 71 0
Refer: 8 -1 N 1 0 0 1 120 409 0
Refer: 8 -1 N 1 0 0 1 -120 409 0
Colour: ffff
EndChar

StartChar: zigzag_mouth
Encoding: 51 -1 33
Width: 0
GlyphClass: 5
Flags: MW
LayerCount: 2
Fore
SplineSet
0 0 m 129,-1,1
 -10 0 -10 0 -17 7 c 1,2,3
 -18 8 -18 8 -21 12 c 9,4,-1
 -94 103 l 1,5,-1
 -96 104 l 1,6,-1
 -147 36 l 17,7,8
 -150 32 -150 32 -151 31 c 1,9,10
 -158 24 -158 24 -168 24 c 129,-1,11
 -178 24 -178 24 -185 31 c 9,12,-1
 -209 55 l 17,13,14
 -216 62 -216 62 -216 72 c 129,-1,15
 -216 82 -216 82 -209 89 c 129,-1,16
 -202 96 -202 96 -192 96 c 129,-1,17
 -182 96 -182 96 -175 89 c 9,18,-1
 -171 85 l 1,19,-1
 -171 84 l 1,20,-1
 -117 156 l 17,21,22
 -114 160 -114 160 -113 161 c 1,23,24
 -106 168 -106 168 -96 168 c 129,-1,25
 -86 168 -86 168 -78 160 c 9,26,-1
 0 62 l 1,27,-1
 78 160 l 17,28,29
 86 168 86 168 96 168 c 129,-1,30
 106 168 106 168 113 161 c 1,31,32
 114 160 114 160 117 156 c 9,33,-1
 171 84 l 1,34,-1
 171 85 l 1,35,-1
 175 89 l 17,36,37
 182 96 182 96 192 96 c 129,-1,38
 202 96 202 96 209 89 c 129,-1,39
 216 82 216 82 216 72 c 129,-1,40
 216 62 216 62 209 55 c 9,41,-1
 185 31 l 17,42,43
 178 24 178 24 168 24 c 129,-1,44
 158 24 158 24 151 31 c 1,45,46
 150 32 150 32 147 36 c 9,47,-1
 96 104 l 1,48,-1
 94 103 l 1,49,-1
 21 12 l 17,50,51
 18 8 18 8 17 7 c 1,52,0
 10 0 10 0 0 0 c 129,-1,1
EndSplineSet
Colour: ff00ff
EndChar

StartChar: eye_squinting
Encoding: 32 -1 34
Width: 0
GlyphClass: 5
Flags: MW
LayerCount: 2
Back
SplineSet
0 -24 m 5
 0 -24 -0.0852854145495 -23.999664076 -0.0121652881564 -24.0000876498 c 4
 0.292736301292 -24.0018538983 3.27207661097 -24.0266421513 8.31769608342 -24.3215926271 c 4
 12.8586032484 -24.5870392658 19.0731004732 -25.0714215186 26.5141897974 -25.9502903364 c 4
 33.9551239362 -26.8291408252 42.6224756658 -28.1027672468 52.0652645797 -29.938603576 c 4
 59.6193732644 -31.4072488338 67.6694024238 -33.2356353346 75.9831292088 -35.5030153669 c 4
 86.3754178669 -38.33727591 97.17820171 -41.8583540612 107.942347983 -46.2012785894 c 4
 116.553850425 -49.6756930235 125.139244274 -53.6752339704 133.480129417 -58.2568469361 c 4
 141.821729771 -62.8388527645 149.916700061 -68.0014871965 157.573593067 -73.7986414836 c 4
 163.699770932 -78.4368672299 169.545985438 -83.4804554379 175.032765 -88.967235 c 5
 192 -48 l 5
 180.605582768 -48 169.451678616 -48.5999374748 158.584416291 -49.687513376 c 4
 145.000224343 -51.0469946656 131.863669838 -53.1682137857 119.260764716 -55.8390281163 c 4
 106.657734299 -58.5098689995 94.5879211361 -61.7304653746 83.1355122801 -65.295913024 c 4
 68.8199512681 -69.7527381341 55.4685078337 -74.748379956 43.2463749826 -79.8945411564 c 4
 21.2470594469 -89.1574108556 2.90189729927 -98.9067614159 -10.7963465006 -106.939239456 c 4
 -27.918428007 -116.979412904 -37.7841799339 -124.341842729 -38.3798419991 -124.788589262 c 6
 -38.3798419991 -124.788589262 -38.3762875298 -124.793338019 -38.4165979241 -124.816156205 c 4
 -44.2148974607 -129.172295319 -47.9952565552 -136.149343525 -47.9952565552 -144.002374378 c 4
 -47.9952565552 -157.246697283 -37.2425456695 -167.999408168 -23.9982227653 -167.999408168 c 4
 -18.6069307148 -167.999408168 -13.6285022813 -166.217668846 -9.62015800088 -163.211410738 c 5
 -9.62015800088 -163.211410738 -9.68703067218 -163.261151922 -9.62789184495 -163.217329748 c 4
 -9.3764861909 -163.031036871 -6.95935986485 -161.249360246 -2.6424984881 -158.382527622 c 4
 1.24262376499 -155.802413448 6.66648005992 -152.343408858 13.4322590479 -148.376041074 c 4
 25.6108294192 -141.234680438 42.1384000867 -132.4502709 61.8400447704 -124.15484156 c 4
 77.6013652441 -117.518496097 95.39041351 -111.196937725 114.59077177 -106.242006561 c 4
 127.924454698 -102.801056128 141.937164309 -100.018743762 156.423803942 -98.2288886719 c 4
 168.013305595 -96.7969811317 179.905595284 -96 192 -96 c 5
 191 -96 193.002794882 -95.9932517817 192.002794882 -95.9932517817 c 5
 195.060681506 -95.9932517817 198.168555497 -95.405031903 201.1675048 -94.1627673192 c 4
 213.403599902 -89.0941696027 219.222503161 -75.0444804633 214.153664255 -62.8078031062 c 4
 212.911340558 -59.8087110988 211.129560121 -57.1950901213 208.967235 -55.032765 c 4
 201.812039253 -47.8775692535 194.276373174 -41.3890400674 186.508116045 -35.5075702485 c 4
 176.796965307 -28.1551050792 166.723025589 -21.7500291622 156.538894332 -16.1559288942 c 4
 146.354047863 -10.5614357634 136.056888497 -5.77647486636 125.873060784 -1.66768685401 c 4
 113.143044361 3.46839167592 100.587951538 7.54928627426 88.6259242892 10.8116573422 c 4
 79.0561983484 13.4215825987 69.8650536679 15.5070830581 61.2643120602 17.1792112869 c 4
 50.5135381086 19.2693418159 40.6847075157 20.71369245 32.1941146051 21.7165183843 c 4
 23.7036768799 22.7193259896 16.5513023284 23.2803195275 11.1572677201 23.595637217 c 4
 4.41496027301 23.989770544 0.419735792634 23.9999999999 -3.19809031316e-24 24 c 4
 -13.24596 24 -24 13.24596 -24 0 c 4
 -24 -13.24596 -13.24596 -24 -1.44000000101e-08 -24 c 4
 0 -24 0 -24 0 -24 c 5
0 0 m 4
 0 0 120 0 192 -72 c 5
 72 -72 -24 -144 -24 -144 c 1028
EndSplineSet
Fore
SplineSet
-24 0 m 133,-1,1
 -24 10 -24 10 -17 17 c 129,-1,2
 -10 24 -10 24 0 24 c 1,3,4
 30 24 30 24 71.5 15 c 129,-1,5
 113 6 113 6 147 -11 c 129,-1,6
 181 -28 181 -28 208 -54 c 257,7,8
 216 -62 216 -62 216 -72 c 129,-1,9
 216 -82 216 -82 209 -89 c 129,-1,10
 202 -96 202 -96 192 -96 c 1,11,12
 140 -96 140 -96 86 -115 c 129,-1,13
 32 -134 32 -134 -8 -162 c 1,14,15
 -15 -168 -15 -168 -24 -168 c 257,16,17
 -34 -168 -34 -168 -41 -161 c 129,-1,18
 -48 -154 -48 -154 -48 -144 c 257,19,20
 -48 -131 -48 -131 -36 -123 c 1,21,22
 2 -97 2 -97 43 -80 c 129,-1,23
 84 -63 84 -63 126 -54 c 1,24,25
 92 -38 92 -38 57 -31 c 129,-1,26
 22 -24 22 -24 0 -24 c 1,27,28
 -10 -24 -10 -24 -17 -17 c 129,-1,0
 -24 -10 -24 -10 -24 0 c 133,-1,1
EndSplineSet
Colour: ff00ff
EndChar

StartChar: mouth_grinning
Encoding: 52 -1 35
Width: 0
GlyphClass: 5
Flags: MW
LayerCount: 2
Back
SplineSet
0 240 m 4
 86.953125 240 144.646484375 250.126953125 216 264 c 4
 232.295898438 267.142578125 264 264 264 216 c 4
 264 120 153.696289062 0 0 0 c 4
 -153.696289062 0 -264 120 -264 216 c 4
 -264 264 -232.295898438 267.142578125 -216 264 c 4
 -144.646484375 250.126953125 -86.953125 240 0 240 c 4
EndSplineSet
Fore
SplineSet
0 0 m 131,-1,1
 -70 -7.1054273576e-15 -70 -7.1054273576e-15 -131 32 c 128,-1,2
 -192 64 -192 64 -228 115 c 128,-1,3
 -264 166 -264 166 -264 216 c 3,4,5
 -264 243 -264 243 -251 255.5 c 128,-1,6
 -238 268 -238 268 -216 264 c 1,7,8
 -167 254 -167 254 -114.5 247 c 128,-1,9
 -62 240 -62 240 0 240 c 131,-1,10
 62 240 62 240 114.5 247 c 128,-1,11
 167 254 167 254 216 264 c 1,12,13
 238 268 238 268 251 255.5 c 128,-1,14
 264 243 264 243 264 216 c 3,15,16
 264 166 264 166 228 115 c 128,-1,17
 192 64 192 64 131 32 c 128,-1,0
 70 -7.1054273576e-15 70 -7.1054273576e-15 0 0 c 131,-1,1
EndSplineSet
Colour: ff00ff
EndChar

StartChar: LoudlyCryingFace.2
Encoding: 336 -1 37
Width: 0
Flags: MW
LayerCount: 2
Back
SplineSet
0 24 m 0
 -39.7685546875 24 -72 32.2314453125 -72 72 c 0
 -72 111.768554688 -39.7685546875 120 0 120 c 0
 39.7685546875 120 72 111.768554688 72 72 c 0
 72 32.2314453125 39.7685546875 24 0 24 c 0
432 288 m 0
 432 49.416015625 238.583984375 -144 0 -144 c 0
 -238.583984375 -144 -432 49.416015625 -432 288 c 0
 -432 526.583984375 -238.583984375 720 0 720 c 0
 238.583984375 720 432 526.583984375 432 288 c 1024
96 72 m 0
 96 5.6884765625 53.015625 0 0 0 c 0
 -53.0390625 0 -96 5.6884765625 -96 72 c 0
 -96 138.264648438 -53.0390625 216 0 216 c 0
 53.015625 216 96 138.264648438 96 72 c 0
288 360 m 0
 285.0234375 360 282 360.552734375 279.095703125 361.727539062 c 0
 153.599609375 411.912109375 102.168945312 487.51171875 100.03125 490.704101562 c 0
 92.6650390625 501.743164062 95.638671875 516.646484375 106.680664062 523.9921875 c 0
 117.696289062 531.334960938 132.52734375 528.408203125 139.919921875 517.416015625 c 0
 140.376953125 516.768554688 186.239257812 450.576171875 296.904296875 406.319335938 c 0
 309.215820312 401.376953125 315.215820312 387.431640625 310.295898438 375.119140625 c 0
 306.52734375 365.711914062 297.50390625 360 288 360 c 0
-288 360 m 0
 -297.52734375 360 -306.52734375 365.711914062 -310.295898438 375.095703125 c 0
 -315.215820312 387.408203125 -309.239257812 401.376953125 -296.927734375 406.295898438 c 0
 -186.239257812 450.552734375 -140.376953125 516.743164062 -139.919921875 517.392578125 c 0
 -132.52734375 528.334960938 -117.623046875 531.239257812 -106.630859375 523.873046875 c 0
 -95.6650390625 516.48046875 -92.6884765625 501.672851562 -100.03125 490.680664062 c 0
 -102.168945312 487.48828125 -153.599609375 411.888671875 -279.072265625 361.704101562 c 0
 -282 360.552734375 -285.0234375 360 -288 360 c 0
144 336 m 1
 240 336 l 1
 240 -120 l 1
 144 -118.896484375 l 1
 144 336 l 1
-240 -120 m 1
 -144 -118.896484375 l 1
 -144 336 l 1
 -240 336 l 1
 -240 -120 l 1
-72.0234375 288 m 0
 -75.623046875 288 -79.2958984375 288.815429688 -82.7275390625 290.51953125 c 0
 -167.015625 332.665039062 -252.408203125 290.953125 -253.247070312 290.51953125 c 0
 -265.126953125 284.54296875 -279.52734375 289.416015625 -285.45703125 301.247070312 c 0
 -291.384765625 313.103515625 -286.583984375 327.52734375 -274.727539062 333.45703125 c 0
 -270.361328125 335.615234375 -166.776367188 386.184570312 -61.2470703125 333.45703125 c 0
 -49.392578125 327.52734375 -44.591796875 313.103515625 -50.51953125 301.247070312 c 0
 -54.7431640625 292.846679688 -63.2158203125 288 -72.0234375 288 c 0
263.9765625 288 m 0
 260.376953125 288 256.704101562 288.815429688 253.272460938 290.51953125 c 0
 168.9609375 332.665039062 83.591796875 290.953125 82.7529296875 290.51953125 c 0
 70.896484375 284.568359375 56.49609375 289.392578125 50.54296875 301.247070312 c 0
 44.615234375 313.103515625 49.416015625 327.52734375 61.2724609375 333.45703125 c 0
 65.638671875 335.615234375 169.295898438 386.161132812 274.752929688 333.45703125 c 0
 286.607421875 327.52734375 291.408203125 313.103515625 285.48046875 301.247070312 c 0
 281.256835938 292.846679688 272.784179688 288 263.9765625 288 c 0
-432 -96 m 0
 -432 -122.509765625 -238.586914062 -144 0 -144 c 0
 238.586914062 -144 432 -122.509765625 432 -96 c 0
 432 -69.490234375 238.586914062 -48 0 -48 c 0
 -238.586914062 -48 -432 -69.490234375 -432 -96 c 0
EndSplineSet
Fore
Refer: 19 -1 S 1 0 0 1 0 0 0
Refer: 17 -1 N 1 0 0 1 72 312 0
Refer: 17 -1 N 1 0 0 1 -264 312 0
Refer: 16 -1 N -1 0 0 1 120 504 0
Refer: 16 -1 N 1 0 0 1 -120 504 0
Colour: ffff
EndChar

StartChar: SmilingFace.2
Encoding: 157 -1 39
Width: 0
Flags: MW
LayerCount: 2
Back
SplineSet
-111.516601562 128.483398438 m 1
 -111.516601562 128.483398438 -111.767578125 128.725585938 -111.766601562 128.724609375 c 2
 -111.766601562 128.724609375 -111.236328125 128.208984375 -109.40625 127.05078125 c 0
 -107.2109375 125.662109375 -103.346679688 123.536132812 -97.26171875 121.196289062 c 0
 -81.8662109375 115.275390625 -52.2138671875 108 0 108 c 0
 52.2138671875 108 81.8662109375 115.275390625 97.26171875 121.196289062 c 0
 103.346679688 123.536132812 107.2109375 125.662109375 109.40625 127.05078125 c 0
 111.236328125 128.208984375 111.766601562 128.724609375 111.766601562 128.724609375 c 1
 111.766601562 128.724609375 111.515625 128.483398438 111.516601562 128.483398438 c 0
 113.688476562 130.655273438 116.688476562 132 120 132 c 0
 126.623046875 132 132 126.623046875 132 120 c 0
 132 118.994140625 131.875976562 118.017578125 131.642578125 117.083984375 c 0
 131.475585938 116.416992188 127.938476562 102.36328125 118.233398438 84.525390625 c 0
 110.4765625 70.26953125 98.7109375 53.4697265625 81.265625 39.513671875 c 0
 70.3671875 30.7958984375 57.2490234375 23.228515625 41.73828125 18.2646484375 c 0
 29.3330078125 14.294921875 15.431640625 12 0 12 c 0
 -15.431640625 12 -29.3330078125 14.294921875 -41.73828125 18.2646484375 c 0
 -57.2490234375 23.228515625 -70.3671875 30.7958984375 -81.265625 39.513671875 c 0
 -98.7109375 53.4697265625 -110.4765625 70.26953125 -118.233398438 84.525390625 c 0
 -127.938476562 102.36328125 -131.475585938 116.416992188 -131.642578125 117.083984375 c 0
 -131.875976562 118.017578125 -132 118.994140625 -132 120 c 0
 -132 126.623046875 -126.623046875 132 -120 132 c 0
 -116.688476562 132 -113.688476562 130.655273438 -111.516601562 128.483398438 c 1
432 288 m 0
 432 49.416015625 238.583984375 -144 0 -144 c 0
 -238.560546875 -144 -432 49.416015625 -432 288 c 0
 -432 526.560546875 -238.560546875 720 0 720 c 0
 238.583984375 720 432 526.560546875 432 288 c 1024
144 192 m 0
 144 125.725585938 197.725585938 72 264 72 c 0
 330.274414062 72 384 125.725585938 384 192 c 0
 384 258.274414062 330.274414062 312 264 312 c 0
 197.725585938 312 144 258.274414062 144 192 c 0
-384 192 m 0
 -384 125.725585938 -330.274414062 72 -264 72 c 0
 -197.725585938 72 -144 125.725585938 -144 192 c 0
 -144 258.274414062 -197.725585938 312 -264 312 c 0
 -330.274414062 312 -384 258.274414062 -384 192 c 0
264 384 m 0
 257.857421875 384 251.711914062 386.353515625 247.03125 391.03125 c 0
 185.184570312 452.831054688 77.7119140625 432.696289062 76.6572265625 432.45703125 c 0
 63.50390625 429.838867188 51.046875 438.384765625 48.48046875 451.342773438 c 0
 45.912109375 464.327148438 54.2880859375 476.927734375 67.2724609375 479.51953125 c 0
 72.7197265625 480.623046875 200.784179688 505.080078125 280.943359375 424.96875 c 0
 290.327148438 415.583984375 290.327148438 400.416015625 280.943359375 391.03125 c 0
 276.288085938 386.353515625 270.142578125 384 264 384 c 0
-264 384 m 0
 -270.142578125 384 -276.288085938 386.353515625 -280.96875 391.03125 c 0
 -290.353515625 400.416015625 -290.353515625 415.583984375 -280.96875 424.96875 c 0
 -200.807617188 505.153320312 -72.6962890625 480.599609375 -67.2958984375 479.51953125 c 0
 -54.2880859375 476.927734375 -45.865234375 464.280273438 -48.48046875 451.272460938 c 0
 -51.072265625 438.311523438 -63.6728515625 429.865234375 -76.6806640625 432.431640625 c 0
 -78.3349609375 432.791992188 -185.376953125 452.665039062 -247.03125 391.0078125 c 0
 -251.711914062 386.353515625 -257.857421875 384 -264 384 c 0
192 264 m 0
 185.857421875 264 179.711914062 266.353515625 175.03125 271.03125 c 0
 143.735351562 302.353515625 76.873046875 294.408203125 53.7841796875 288.696289062 c 0
 40.8232421875 285.52734375 27.935546875 293.376953125 24.7197265625 306.215820312 c 0
 21.52734375 319.080078125 29.3271484375 332.064453125 42.1923828125 335.280273438 c 0
 46.6572265625 336.384765625 151.9921875 361.943359375 208.96875 304.96875 c 0
 218.353515625 295.583984375 218.353515625 280.416015625 208.96875 271.03125 c 0
 204.288085938 266.353515625 198.142578125 264 192 264 c 0
-192 264 m 0
 -198.142578125 264 -204.288085938 266.353515625 -208.96875 271.03125 c 0
 -218.353515625 280.416015625 -218.353515625 295.583984375 -208.96875 304.96875 c 0
 -152.015625 361.919921875 -46.630859375 336.384765625 -42.1689453125 335.280273438 c 0
 -29.3271484375 332.064453125 -21.52734375 319.080078125 -24.7197265625 306.215820312 c 0
 -27.888671875 293.353515625 -40.873046875 285.50390625 -53.7607421875 288.696289062 c 0
 -76.896484375 294.384765625 -143.735351562 302.303710938 -175.0078125 271.03125 c 0
 -179.711914062 266.353515625 -185.857421875 264 -192 264 c 0
EndSplineSet
Fore
Refer: 7 -1 N 1 0 0 1 0 12 0
Refer: 1 -1 N -1 0 0 1 48 312 0
Refer: 1 -1 N 1 0 0 1 -48 312 0
Colour: ffff
EndChar

StartChar: FlushedFace.4
Encoding: 317 -1 43
Width: 0
Flags: MW
LayerCount: 2
Back
SplineSet
432 288 m 0
 432 49.416015625 238.583984375 -144 0 -144 c 0
 -238.560546875 -144 -432 49.416015625 -432 288 c 0
 -432 526.560546875 -238.560546875 720 0 720 c 0
 238.583984375 720 432 526.560546875 432 288 c 1024
144 168 m 0
 144 101.725585938 197.725585938 48 264 48 c 0
 330.274414062 48 384 101.725585938 384 168 c 0
 384 234.274414062 330.274414062 288 264 288 c 0
 197.725585938 288 144 234.274414062 144 168 c 0
-384 168 m 0
 -384 101.725585938 -330.274414062 48 -264 48 c 0
 -197.725585938 48 -144 101.725585938 -144 168 c 0
 -144 234.274414062 -197.725585938 288 -264 288 c 0
 -330.274414062 288 -384 234.274414062 -384 168 c 0
24 324 m 0
 24 251.09765625 83.09765625 192 156 192 c 0
 228.90234375 192 288 251.09765625 288 324 c 0
 288 396.90234375 228.90234375 456 156 456 c 0
 83.09765625 456 24 396.90234375 24 324 c 0
-288 324 m 0
 -288 251.09765625 -228.90234375 192 -156 192 c 0
 -83.09765625 192 -24 251.09765625 -24 324 c 0
 -24 396.90234375 -83.09765625 456 -156 456 c 0
 -228.90234375 456 -288 396.90234375 -288 324 c 0
-216 324 m 0
 -216 290.864257812 -189.135742188 264 -156 264 c 0
 -122.864257812 264 -96 290.864257812 -96 324 c 0
 -96 357.135742188 -122.864257812 384 -156 384 c 0
 -189.135742188 384 -216 357.135742188 -216 324 c 0
96 324 m 0
 96 290.864257812 122.864257812 264 156 264 c 0
 189.135742188 264 216 290.864257812 216 324 c 0
 216 357.135742188 189.135742188 384 156 384 c 0
 122.864257812 384 96 357.135742188 96 324 c 0
96 0 m 2
 -96 0 l 2
 -109.247070312 0 -120 10.7275390625 -120 24 c 0
 -120 37.2724609375 -109.247070312 48 -96 48 c 2
 96 48 l 2
 109.272460938 48 120 37.2724609375 120 24 c 0
 120 10.7275390625 109.272460938 0 96 0 c 2
288.0234375 456 m 0
 280.704101562 456 273.52734375 459.311523438 268.799804688 465.599609375 c 0
 205.439453125 550.103515625 123.334960938 551.953125 119.857421875 552 c 0
 106.657226562 552.142578125 96 562.943359375 96.072265625 576.119140625 c 0
 96.142578125 589.342773438 106.799804688 600 120 600 c 0
 124.416015625 600 228.888671875 598.799804688 307.200195312 494.400390625 c 0
 315.168945312 483.791992188 313.0078125 468.743164062 302.400390625 460.799804688 c 0
 298.080078125 457.560546875 293.0390625 456 288.0234375 456 c 0
-288.0234375 456 m 0
 -293.015625 456 -298.080078125 457.560546875 -302.400390625 460.799804688 c 0
 -313.0078125 468.743164062 -315.142578125 483.791992188 -307.200195312 494.400390625 c 0
 -228.912109375 598.799804688 -124.416015625 600 -120 600 c 0
 -106.752929688 600 -96 589.247070312 -96 576 c 0
 -96 562.776367188 -106.680664062 552.046875 -119.904296875 552 c 0
 -123.623046875 551.953125 -205.53515625 549.935546875 -268.799804688 465.599609375 c 0
 -273.50390625 459.311523438 -280.727539062 456 -288.0234375 456 c 0
EndSplineSet
Fore
Refer: 11 -1 N -1 0 0 1 120 576 0
Refer: 11 -1 N 1 0 0 1 -120 576 0
Refer: 15 -1 N 1 0 0 1 -96 24 0
Colour: ffff
EndChar

StartChar: ConfoundedFace.1
Encoding: 342 -1 44
Width: 0
Flags: MW
LayerCount: 2
Back
SplineSet
-208.966796875 55.033203125 m 13
 -184.966796875 31.033203125 l 21
 -184.563476562 30.6298828125 -184.143554688 30.2373046875 -183.706054688 29.8583984375 c 5
 -173.700195312 21.1806640625 -158.526367188 22.2666015625 -149.842773438 32.2802734375 c 5
 -149.462890625 32.7177734375 -149.1015625 33.166015625 -148.758789062 33.6220703125 c 13
 -76.7890625 129.620117188 l 5
 -114.75 129.024414062 l 5
 -18.75 9.0244140625 l 21
 -14.3486328125 3.5224609375 -7.578125 -0.00390625 0.0087890625 -0.00390625 c 5
 7.595703125 -0.00390625 14.3662109375 3.5224609375 18.767578125 9.0244140625 c 13
 114.75 129.024414062 l 5
 76.7890625 129.620117188 l 5
 148.7890625 33.6201171875 l 21
 149.130859375 33.1630859375 149.4921875 32.7158203125 149.872070312 32.27734375 c 5
 158.555664062 22.2646484375 173.729492188 21.1787109375 183.735351562 29.8564453125 c 5
 184.172851562 30.2353515625 184.592773438 30.626953125 184.99609375 31.0302734375 c 13
 208.966796875 55.033203125 l 21
 213.303710938 59.3828125 215.9921875 65.3818359375 215.9921875 72.0029296875 c 5
 215.9921875 85.2470703125 205.240234375 95.9990234375 191.997070312 95.9990234375 c 5
 185.375 95.9990234375 179.375976562 93.310546875 175.033203125 88.966796875 c 5
 151.033203125 64.966796875 l 5
 187.2109375 62.3798828125 l 5
 115.245117188 158.37890625 l 21
 114.641601562 159.184570312 113.979492188 159.9609375 113.260742188 160.702148438 c 5
 104.037109375 170.219726562 88.822265625 170.458984375 79.3056640625 161.235351562 c 5
 78.564453125 160.516601562 77.87890625 159.76171875 77.25 158.975585938 c 13
 -18.75 38.9755859375 l 5
 18.75 38.9755859375 l 5
 -77.216796875 158.9765625 l 21
 -77.8447265625 159.762695312 -78.5302734375 160.517578125 -79.2724609375 161.236328125 c 5
 -88.7880859375 170.458984375 -104.002929688 170.220703125 -113.227539062 160.703125 c 5
 -113.946289062 159.961914062 -114.607421875 159.185546875 -115.2109375 158.379882812 c 13
 -187.2109375 62.3798828125 l 5
 -151.033203125 64.966796875 l 5
 -175.033203125 88.966796875 l 5
 -179.375976562 93.310546875 -185.375 95.9990234375 -191.997070312 95.9990234375 c 5
 -205.240234375 95.9990234375 -215.9921875 85.2470703125 -215.9921875 72.0029296875 c 5
 -215.9921875 65.3818359375 -213.303710938 59.3828125 -208.966796875 55.033203125 c 13
-192 72 m 5
 -168 48 l 5
 -96 144 l 5
 0 24 l 5
 96 144 l 5
 168 48 l 5
 192 72 l 1029
EndSplineSet
Fore
Refer: 33 -1 N 1 0 0 1 0 0 0
Refer: 11 -1 N 1 0 0 -1 288 432 0
Refer: 11 -1 N -1 0 0 -1 -288 432 0
Refer: 34 -1 N -1 0 0 1 264 360 0
Refer: 34 -1 N 1 0 0 1 -264 360 0
Colour: ffff
EndChar

StartChar: PensiveFace.1
Encoding: 229 -1 45
Width: 0
Flags: MW
LayerCount: 2
Back
SplineSet
432 288 m 0
 432 49.416015625 238.583984375 -144 0 -144 c 0
 -238.560546875 -144 -432 49.416015625 -432 288 c 0
 -432 526.560546875 -238.560546875 720 0 720 c 0
 238.583984375 720 432 526.560546875 432 288 c 1024
-16.51171875 297.311523438 m 0
 -20.7353515625 300.743164062 -26.7607421875 300.838867188 -31.1533203125 297.646484375 c 0
 -31.439453125 297.431640625 -61.392578125 276 -120 276 c 0
 -178.583984375 276 -208.560546875 297.431640625 -208.799804688 297.599609375 c 0
 -213.192382812 300.888671875 -219.239257812 300.791992188 -223.46484375 297.384765625 c 0
 -227.735351562 293.9765625 -229.176757812 288.119140625 -226.96875 283.126953125 c 0
 -225.52734375 279.888671875 -190.96875 204 -120 204 c 0
 -49.0078125 204 -14.47265625 279.888671875 -13.03125 283.126953125 c 0
 -10.8232421875 288.095703125 -12.2646484375 293.904296875 -16.51171875 297.311523438 c 0
223.48828125 297.311523438 m 0
 219.264648438 300.743164062 213.264648438 300.865234375 208.846679688 297.646484375 c 0
 208.560546875 297.431640625 178.583984375 276 120 276 c 0
 61.439453125 276 31.439453125 297.431640625 31.2001953125 297.599609375 c 0
 26.8076171875 300.888671875 20.7841796875 300.791992188 16.53515625 297.384765625 c 0
 12.2646484375 293.9765625 10.8232421875 288.119140625 13.03125 283.126953125 c 0
 14.47265625 279.888671875 49.03125 204 120 204 c 0
 190.9921875 204 225.52734375 279.888671875 226.96875 283.126953125 c 0
 229.176757812 288.095703125 227.735351562 293.904296875 223.48828125 297.311523438 c 0
96 48 m 2
 -96 48 l 2
 -109.247070312 48 -120 58.7275390625 -120 72 c 0
 -120 85.2724609375 -109.247070312 96 -96 96 c 2
 96 96 l 2
 109.272460938 96 120 85.2724609375 120 72 c 0
 120 58.7275390625 109.272460938 48 96 48 c 2
-288 384 m 0
 -301.247070312 384 -312 394.752929688 -312 408 c 0
 -312 421.223632812 -301.319335938 431.953125 -288.095703125 432 c 0
 -284.353515625 432.046875 -202.439453125 434.064453125 -139.176757812 518.400390625 c 0
 -131.231445312 528.9609375 -116.208007812 531.168945312 -105.576171875 523.200195312 c 0
 -94.96875 515.256835938 -92.8310546875 500.208007812 -100.776367188 489.599609375 c 0
 -179.087890625 385.200195312 -283.583984375 384 -288 384 c 0
288 384 m 0
 283.583984375 384 179.111328125 385.200195312 100.799804688 489.599609375 c 0
 92.8310546875 500.208007812 94.9921875 515.256835938 105.599609375 523.200195312 c 0
 116.184570312 531.192382812 131.208007812 529.0078125 139.176757812 518.400390625 c 0
 202.560546875 433.896484375 284.638671875 432.0234375 288.119140625 432 c 0
 301.319335938 431.857421875 311.9765625 421.056640625 311.904296875 407.880859375 c 0
 311.857421875 394.657226562 301.200195312 384 288 384 c 0
EndSplineSet
Fore
Refer: 15 -1 N 1 0 0 1 -96 72 0
Refer: 13 -1 N 1 0 0 1 120 204 0
Refer: 13 -1 N 1 0 0 1 -120 204 0
Refer: 11 -1 N 1 0 0 -1 288 408 0
Refer: 11 -1 N -1 0 0 -1 -288 408 0
Colour: ffff
EndChar

StartChar: teeth_grinning
Encoding: 72 -1 46
Width: 0
GlyphClass: 5
Flags: MW
LayerCount: 2
Back
SplineSet
-216 216 m 5
 -216 216 -144 192 0 192 c 4
 144 192 216 216 216 216 c 5
 216 216 168 120 0 120 c 4
 -168 120 -216 216 -216 216 c 5
EndSplineSet
Fore
SplineSet
0 120 m 131,-1,1
 -78 120 -78 120 -135 147 c 128,-1,2
 -192 174 -192 174 -216 216 c 1,3,4
 -180 205 -180 205 -123 198.5 c 128,-1,5
 -66 192 -66 192 0 192 c 131,-1,6
 66 192 66 192 123 198.5 c 128,-1,7
 180 205 180 205 216 216 c 1,8,9
 192 174 192 174 135 147 c 128,-1,0
 78 120 78 120 0 120 c 131,-1,1
EndSplineSet
Colour: ff00ff
EndChar

StartChar: waterdrop
Encoding: 3 -1 47
Width: 0
GlyphClass: 5
Flags: MW
LayerCount: 2
Back
SplineSet
120 -240 m 0
 120 -306.229492188 66.2294921875 -360 0 -360 c 0
 -66.2294921875 -360 -120 -306.229492188 -120 -240 c 0
 -120 -173.711914062 -24 0 0 0 c 0
 24 0 120 -173.711914062 120 -240 c 0
EndSplineSet
Fore
SplineSet
0 0 m 131,-1,1
 18 0 18 0 69 -96 c 128,-1,2
 120 -192 120 -192 120 -240 c 131,-1,3
 120 -288 120 -288 85 -324 c 128,-1,4
 50 -360 50 -360 0 -360 c 131,-1,5
 -50 -360 -50 -360 -85 -324 c 128,-1,6
 -120 -288 -120 -288 -120 -240 c 131,-1,7
 -120 -192 -120 -192 -69 -96 c 128,-1,0
 -18 0 -18 0 0 0 c 131,-1,1
EndSplineSet
Colour: ff00ff
EndChar

StartChar: eye_big
Encoding: 33 -1 48
Width: 0
GlyphClass: 5
Flags: MW
LayerCount: 2
Back
SplineSet
60 132 m 4
 60 72.361328125 33.142578125 0 0 0 c 4
 -33.142578125 0 -60 72.361328125 -60 132 c 4
 -60 191.638671875 -33.142578125 264 0 264 c 4
 33.142578125 264 60 191.638671875 60 132 c 4
EndSplineSet
Fore
SplineSet
0 0 m 131,-1,1
 -23 0 -23 0 -41.5 42 c 128,-1,2
 -60 84 -60 84 -60 132 c 131,-1,3
 -60 180 -60 180 -41.5 222 c 128,-1,4
 -23 264 -23 264 0 264 c 131,-1,5
 23 264 23 264 41.5 222 c 128,-1,6
 60 180 60 180 60 132 c 131,-1,7
 60 84 60 84 41.5 42 c 128,-1,0
 23 0 23 0 0 0 c 131,-1,1
EndSplineSet
Colour: ff00ff
EndChar

StartChar: BeamingFaceWithSmilingEyes.1
Encoding: 124 -1 49
Width: 0
GlyphClass: 5
Flags: MW
LayerCount: 2
Back
SplineSet
432 288 m 0
 432 49.416015625 238.583984375 -144 0 -144 c 0
 -238.560546875 -144 -432 49.416015625 -432 288 c 0
 -432 526.560546875 -238.560546875 720 0 720 c 0
 238.583984375 720 432 526.560546875 432 288 c 1024
-48 288 m 0
 -58.056640625 288 -67.416015625 294.361328125 -70.7763671875 304.416015625 c 0
 -75.646484375 318.791992188 -95.1845703125 360 -120 360 c 0
 -145.48828125 360 -165.311523438 316.153320312 -169.223632812 304.416015625 c 0
 -173.423828125 291.865234375 -186.935546875 285.0234375 -199.583984375 289.247070312 c 0
 -212.161132812 293.423828125 -218.953125 307.03125 -214.752929688 319.607421875 c 0
 -211.752929688 328.630859375 -183.45703125 408 -120 408 c 0
 -56.54296875 408 -28.2470703125 328.630859375 -25.2236328125 319.583984375 c 0
 -21.0234375 307.0078125 -27.8154296875 293.400390625 -40.392578125 289.223632812 c 0
 -42.935546875 288.408203125 -45.50390625 288 -48 288 c 0
192 288 m 0
 181.943359375 288 172.583984375 294.361328125 169.247070312 304.416015625 c 0
 164.376953125 318.791992188 144.791992188 360 120 360 c 0
 94.51171875 360 74.6650390625 316.153320312 70.7529296875 304.416015625 c 0
 66.552734375 291.865234375 53.087890625 285.0234375 40.392578125 289.247070312 c 0
 27.8388671875 293.423828125 21.0234375 307.03125 25.2236328125 319.607421875 c 0
 28.2470703125 328.630859375 56.51953125 408 120 408 c 0
 183.48046875 408 211.752929688 328.630859375 214.752929688 319.583984375 c 0
 218.953125 307.0078125 212.161132812 293.400390625 199.583984375 289.223632812 c 0
 197.064453125 288.408203125 194.49609375 288 192 288 c 0
0 192 m 0
 -86.953125 192 -144.646484375 202.126953125 -216 216 c 0
 -232.295898438 219.142578125 -264 216 -264 168 c 0
 -264 72 -153.719726562 -48 0 -48 c 0
 153.696289062 -48 264 72 264 168 c 0
 264 216 232.295898438 219.168945312 216 216 c 0
 144.646484375 202.126953125 86.953125 192 0 192 c 0
-216 168 m 1
 -216 168 -144 144 0 144 c 0
 144 144 216 168 216 168 c 1
 216 168 183.743164062 6 0 6 c 0
 -183.743164062 6 -216 168 -216 168 c 1
0 57.7431640625 m 0
 -86.3037109375 57.7431640625 -150.52734375 66.6728515625 -190.48828125 75.623046875 c 2
 -210.288085938 120.52734375 l 1
 -190.53515625 113.0390625 -116.953125 99 0.0234375 99 c 0
 118.919921875 99 192.912109375 113.784179688 212.760742188 121.51171875 c 1
 195.935546875 77.3037109375 l 2
 156.719726562 68.1845703125 89.880859375 57.7431640625 0 57.7431640625 c 0
EndSplineSet
Fore
Refer: 8 -1 N 1 0 0 1 120 384 0
Refer: 8 -1 N 1 0 0 1 -120 384 0
Refer: 35 -1 N 1 0 0 1 0 -48 0
Colour: ffff
EndChar

StartChar: GrinningSquintingFace.1
Encoding: 127 -1 50
Width: 0
GlyphClass: 5
Flags: MW
LayerCount: 2
Back
SplineSet
432 288 m 0
 432 49.416015625 238.583984375 -144 0 -144 c 0
 -238.560546875 -144 -432 49.416015625 -432 288 c 0
 -432 526.560546875 -238.560546875 720 0 720 c 0
 238.583984375 720 432 526.560546875 432 288 c 1024
0 192 m 0
 -86.953125 192 -144.646484375 202.126953125 -216 216 c 0
 -232.295898438 219.142578125 -264 216 -264 168 c 0
 -264 72 -153.719726562 -48 0 -48 c 0
 153.696289062 -48 264 72 264 168 c 0
 264 216 232.295898438 219.168945312 216 216 c 0
 144.646484375 202.126953125 86.953125 192 0 192 c 0
-216 168 m 1
 -216 168 -144 144 0 144 c 0
 144 144 216 168 216 168 c 1
 216 168 168 72 0 72 c 0
 -168 72 -216 168 -216 168 c 1
-287.9765625 240 m 0
 -295.272460938 240 -302.47265625 243.311523438 -307.200195312 249.599609375 c 0
 -315.168945312 260.184570312 -313.0078125 275.231445312 -302.400390625 283.176757812 c 0
 -298.96875 285.743164062 -231.576171875 335.568359375 -137.857421875 353.568359375 c 1
 -197.256835938 383.353515625 -263.184570312 384 -264.0234375 384 c 0
 -277.272460938 384.046875 -288 394.799804688 -287.9765625 408.046875 c 0
 -287.9765625 421.272460938 -277.247070312 432 -264 432 c 0
 -258.696289062 432 -133.153320312 431.087890625 -55.03125 352.96875 c 0
 -48.1689453125 346.103515625 -46.103515625 335.784179688 -49.8232421875 326.807617188 c 0
 -53.54296875 317.831054688 -62.3037109375 312 -72 312 c 0
 -182.711914062 312 -272.711914062 245.47265625 -273.599609375 244.799804688 c 0
 -277.919921875 241.560546875 -282.984375 240 -287.9765625 240 c 0
287.9765625 240.0234375 m 0
 282.984375 240.0234375 277.943359375 241.560546875 273.623046875 244.776367188 c 0
 272.711914062 245.47265625 182.161132812 312 72 312 c 0
 62.3037109375 312 53.51953125 317.831054688 49.8232421875 326.807617188 c 0
 46.103515625 335.784179688 48.1689453125 346.103515625 55.03125 352.96875 c 0
 133.176757812 431.087890625 258.696289062 432 264 432 c 0
 277.247070312 432 287.953125 421.272460938 287.9765625 408.046875 c 0
 288 394.799804688 277.272460938 384.046875 264.046875 384 c 0
 263.184570312 384 197.256835938 383.353515625 137.857421875 353.568359375 c 1
 231.576171875 335.568359375 298.96875 285.768554688 302.376953125 283.176757812 c 0
 312.9609375 275.231445312 315.119140625 260.231445312 307.200195312 249.623046875 c 0
 302.49609375 243.361328125 295.295898438 240.0234375 287.9765625 240.0234375 c 0
EndSplineSet
Fore
Refer: 34 -1 N -1 0 0 1 264 408 0
Refer: 34 -1 N 1 0 0 1 -264 408 0
Refer: 35 -1 N 1 0 0 1 0 -48 0
Colour: ffff
EndChar

StartChar: GrinningFaceWithSweat.3
Encoding: 128 -1 51
Width: 0
GlyphClass: 5
Flags: MW
LayerCount: 2
Back
SplineSet
432 288 m 0
 432 49.416015625 238.583984375 -144 0 -144 c 0
 -238.560546875 -144 -432 49.416015625 -432 288 c 0
 -432 526.560546875 -238.560546875 720 0 720 c 0
 238.583984375 720 432 526.560546875 432 288 c 1024
250.96875 292.873046875 m 0
 249.52734375 296.111328125 214.9921875 372 144 372 c 0
 73.03125 372 38.47265625 296.111328125 37.03125 292.873046875 c 0
 34.8232421875 287.904296875 36.2646484375 282.095703125 40.51171875 278.688476562 c 0
 44.7119140625 275.280273438 50.7353515625 275.161132812 55.1533203125 278.353515625 c 0
 55.439453125 278.568359375 85.439453125 300 144 300 c 0
 202.223632812 300 232.176757812 278.857421875 232.846679688 278.376953125 c 0
 234.9609375 276.791992188 237.50390625 276 240 276 c 0
 242.638671875 276 245.303710938 276.888671875 247.48828125 278.615234375 c 0
 251.735351562 282.0234375 253.200195312 287.880859375 250.96875 292.873046875 c 0
-37.03125 292.873046875 m 0
 -38.47265625 296.111328125 -73.0078125 372 -144 372 c 0
 -214.96875 372 -249.52734375 296.111328125 -250.96875 292.873046875 c 0
 -253.176757812 287.904296875 -251.735351562 282.095703125 -247.51171875 278.688476562 c 0
 -243.288085938 275.280273438 -237.264648438 275.161132812 -232.873046875 278.353515625 c 0
 -232.560546875 278.568359375 -202.583984375 300 -144 300 c 0
 -85.7763671875 300 -55.8232421875 278.857421875 -55.1533203125 278.376953125 c 0
 -53.0390625 276.791992188 -50.49609375 276 -48 276 c 0
 -45.361328125 276 -42.6962890625 276.888671875 -40.51171875 278.615234375 c 0
 -36.2392578125 282.0234375 -34.8232421875 287.880859375 -37.03125 292.873046875 c 0
0 192 m 0
 -86.953125 192 -144.646484375 202.126953125 -216 216 c 0
 -232.295898438 219.142578125 -264 216 -264 168 c 0
 -264 72 -153.719726562 -48 0 -48 c 0
 153.696289062 -48 264 72 264 168 c 0
 264 216 232.295898438 219.168945312 216 216 c 0
 144.646484375 202.126953125 86.953125 192 0 192 c 0
-216 168 m 1
 -216 168 -144 144 0 144 c 0
 144 144 216 168 216 168 c 1
 216 168 168 72 0 72 c 0
 -168 72 -216 168 -216 168 c 1
408 456 m 0
 408 389.711914062 354.288085938 336 288 336 c 0
 221.711914062 336 168 389.711914062 168 456 c 0
 168 522.288085938 264 696 288 696 c 0
 312 696 408 522.288085938 408 456 c 0
EndSplineSet
Fore
Refer: 47 -1 N 1 0 0 1 288 696 0
Colour: ffff
EndChar

StartChar: RollingOnTheFloorLaughing.1
Encoding: 129 -1 52
Width: 0
GlyphClass: 5
Flags: MW
LayerCount: 2
Back
SplineSet
305.47265625 593.47265625 m 0
 474.168945312 424.776367188 474.168945312 151.223632812 305.47265625 -17.47265625 c 0
 136.776367188 -186.168945312 -136.752929688 -186.168945312 -305.47265625 -17.47265625 c 0
 -474.168945312 151.223632812 -474.168945312 424.776367188 -305.47265625 593.47265625 c 0
 -136.776367188 762.168945312 136.752929688 762.168945312 305.47265625 593.47265625 c 1024
30.6962890625 257.280273438 m 0
 -53.1611328125 173.423828125 -118.560546875 127.583984375 -200.784179688 72.142578125 c 0
 -219.52734375 59.447265625 -247.056640625 25.8466796875 -200.760742188 -20.47265625 c 0
 -108.192382812 -113.0390625 113.904296875 -122.400390625 262.126953125 25.8232421875 c 0
 410.376953125 174.072265625 401.0390625 396.142578125 308.423828125 488.735351562 c 0
 262.126953125 535.056640625 228.50390625 507.50390625 215.831054688 488.735351562 c 0
 160.439453125 406.583984375 114.576171875 341.161132812 30.6962890625 257.280273438 c 0
-154.46484375 25.8466796875 m 2
 -154.46484375 25.8466796875 -61.873046875 72.142578125 76.9921875 211.03125 c 0
 215.880859375 349.896484375 262.153320312 442.46484375 262.153320312 442.46484375 c 1
 262.153320312 442.46484375 308.423828125 303.576171875 146.423828125 141.576171875 c 0
 -15.576171875 -20.447265625 -154.46484375 25.8466796875 -154.46484375 25.8466796875 c 2
-233.638671875 114.384765625 m 0
 -238.799804688 109.223632812 -246.239257812 106.46484375 -254.015625 107.591796875 c 0
 -267.142578125 109.46484375 -276.264648438 121.607421875 -274.369140625 134.735351562 c 0
 -273.768554688 138.9609375 -261.334960938 221.857421875 -207.791992188 300.865234375 c 1
 -270.838867188 279.912109375 -317.927734375 233.760742188 -318.52734375 233.161132812 c 0
 -327.912109375 223.823242188 -343.103515625 223.846679688 -352.46484375 233.231445312 c 0
 -361.823242188 242.591796875 -361.823242188 257.760742188 -352.46484375 267.119140625 c 0
 -348.719726562 270.865234375 -259.295898438 358.9921875 -148.823242188 358.9921875 c 0
 -139.103515625 358.9921875 -130.369140625 353.161132812 -126.646484375 344.184570312 c 0
 -122.927734375 335.208007812 -124.9921875 324.888671875 -131.857421875 318.0234375 c 0
 -210.142578125 239.735351562 -226.727539062 129.046875 -226.896484375 127.96875 c 0
 -227.638671875 122.591796875 -230.111328125 117.912109375 -233.638671875 114.384765625 c 0
173.591796875 521.665039062 m 0
 170.064453125 518.134765625 165.408203125 515.665039062 160.080078125 514.896484375 c 0
 158.953125 514.727539062 47.857421875 497.735351562 -30.0234375 419.857421875 c 0
 -36.888671875 412.9921875 -47.2080078125 410.927734375 -56.1845703125 414.646484375 c 0
 -65.1611328125 418.369140625 -70.9921875 427.103515625 -70.9921875 436.823242188 c 0
 -70.9921875 547.319335938 17.134765625 636.719726562 20.880859375 640.46484375 c 0
 30.2392578125 649.823242188 45.408203125 649.823242188 54.7685546875 640.46484375 c 0
 64.1533203125 631.126953125 64.1767578125 615.912109375 54.8388671875 606.552734375 c 0
 54.2158203125 605.927734375 8.064453125 558.865234375 -12.888671875 495.815429688 c 1
 66.119140625 549.361328125 148.9921875 561.791992188 153.215820312 562.392578125 c 0
 166.319335938 564.264648438 178.46484375 555.192382812 180.361328125 542.064453125 c 0
 181.53515625 534.288085938 178.776367188 526.823242188 173.591796875 521.665039062 c 0
290.423828125 430.680664062 m 0
 356.208007812 422.665039062 416.0390625 469.51171875 424.03125 535.319335938 c 0
 432.046875 601.103515625 385.223632812 660.935546875 319.416015625 668.953125 c 0
 253.630859375 676.943359375 69.599609375 602.638671875 66.6962890625 578.807617188 c 0
 63.7919921875 555 224.638671875 438.719726562 290.423828125 430.680664062 c 0
-140.231445312 0.0234375 m 0
 -132.215820312 -65.7607421875 -179.064453125 -125.591796875 -244.873046875 -133.583984375 c 0
 -310.657226562 -141.599609375 -370.48828125 -94.7763671875 -378.50390625 -28.96875 c 0
 -386.51953125 36.8388671875 -312.192382812 220.873046875 -288.361328125 223.776367188 c 0
 -264.552734375 226.657226562 -148.272460938 65.8076171875 -140.231445312 0.0234375 c 0
EndSplineSet
Fore
Refer: 34 -1 N -0.707108 -0.707108 -0.707108 0.707108 38 623.5 0
Refer: 34 -1 N 0.707108 0.707108 -0.707108 0.707108 -335.5 250 0
Refer: 35 -1 N 0.964492 0.964492 -0.964492 0.964492 262 26 0
Colour: ffff
EndChar

StartChar: eyebrow_joy
Encoding: 15 -1 53
Width: 0
GlyphClass: 5
Flags: MW
LayerCount: 2
Back
SplineSet
-4.7255859375 23.5341796875 m 2
 -4.7255859375 23.5341796875 l 0
 -4.7255859375 23.53515625 -4.7236328125 23.541015625 -4.6923828125 23.541015625 c 0
 -4.69140625 23.541015625 -4.6904296875 23.541015625 -4.689453125 23.541015625 c 0
 -3.1982421875 23.84765625 -1.6181640625 24.0078125 -0.0009765625 24.0078125 c 0
 13.2470703125 24.0078125 24.0029296875 13.251953125 24.0029296875 0.00390625 c 0
 24.0029296875 -11.626953125 15.7138671875 -21.3369140625 4.7255859375 -23.5341796875 c 1
 4.7255859375 -23.5341796875 4.8134765625 -23.515625 4.814453125 -23.515625 c 1
 4.814453125 -23.515625 4.80859375 -23.517578125 4.7958984375 -23.51953125 c 0
 4.6484375 -23.55078125 1.8525390625 -24.140625 -2.8984375 -25.525390625 c 0
 -7.173828125 -26.771484375 -13.033203125 -28.6611328125 -19.9697265625 -31.35546875 c 0
 -26.90625 -34.05078125 -34.9189453125 -37.5517578125 -43.5107421875 -42.0078125 c 0
 -50.3837890625 -45.57421875 -57.626953125 -49.7509765625 -64.9931640625 -54.61328125 c 0
 -78.2568359375 -63.3662109375 -91.9013671875 -74.3271484375 -104.620117188 -87.953125 c 0
 -111.6875 -95.525390625 -118.47265625 -103.922851562 -124.771484375 -113.254882812 c 0
 -132.645507812 -124.918945312 -139.764648438 -138.044921875 -145.70703125 -152.899414062 c 2
 -145.71875 -152.930664062 l 2
 -149.2578125 -161.77734375 -157.912109375 -168.033203125 -168.015625 -168.033203125 c 0
 -181.264648438 -168.033203125 -192.01953125 -157.27734375 -192.01953125 -144.029296875 c 0
 -192.01953125 -140.884765625 -191.4140625 -137.881835938 -190.29296875 -135.100585938 c 0
 -183.06640625 -117.033203125 -174.306640625 -100.850585938 -164.583984375 -86.4462890625 c 0
 -156.805664062 -74.923828125 -148.4140625 -64.541015625 -139.711914062 -55.2177734375 c 0
 -124.044921875 -38.431640625 -107.385742188 -25.0830078125 -91.384765625 -14.5224609375 c 0
 -82.4931640625 -8.654296875 -73.7998046875 -3.6435546875 -65.5654296875 0.62890625 c 0
 -55.2724609375 5.96875 -45.6953125 10.1533203125 -37.328125 13.404296875 c 0
 -28.9599609375 16.6552734375 -21.7998046875 18.97265625 -16.333984375 20.5654296875 c 0
 -9.5029296875 22.556640625 -5.31640625 23.416015625 -4.7255859375 23.5341796875 c 2
0 0 m 0
 0 0 -120 -24 -168 -144 c 1024
EndSplineSet
Fore
SplineSet
24 0 m 129,-1,1
 24 -10 24 -10 17 -17 c 1,2,3
 12 -22 12 -22 3 -24 c 1,4,5
 -41 -35 -41 -35 -82 -67 c 129,-1,6
 -123 -99 -123 -99 -145 -151 c 257,7,8
 -147 -157 -147 -157 -151 -161 c 257,9,10
 -158 -168 -158 -168 -168 -168 c 129,-1,11
 -178 -168 -178 -168 -185 -161 c 129,-1,12
 -192 -154 -192 -154 -192 -144 c 1,13,14
 -192 -140 -192 -140 -191 -137 c 257,15,16
 -166 -74 -166 -74 -116 -33 c 129,-1,17
 -66 8 -66 8 -7 23 c 1,18,19
 -3 24 -3 24 0 24 c 1,20,21
 10 24 10 24 17 17 c 129,-1,0
 24 10 24 10 24 0 c 129,-1,1
EndSplineSet
Colour: ff00ff
EndChar

StartChar: BeamingFaceWithSmilingEyes.2
Encoding: 125 -1 54
Width: 0
Flags: MW
LayerCount: 2
Back
SplineSet
-216 168 m 1
 -216 168 -144 144 0 144 c 1
 144 144 216 168 216 168 c 1
 216 168 183.743164062 6 0 6 c 1
 -183.743164062 6 -216 168 -216 168 c 1
0 57.748046875 m 5
 -86.3037109375 57.748046875 -150.52734375 66.677734375 -190.48828125 75.6279296875 c 13
 -210.311523438 120.532226562 l 5
 -190.53515625 113.069335938 -116.9765625 99.0048828125 0 99.0048828125 c 5
 118.896484375 99.0048828125 192.888671875 113.7890625 212.735351562 121.493164062 c 5
 195.912109375 77.28515625 l 21
 156.719726562 68.189453125 89.880859375 57.748046875 0 57.748046875 c 5
EndSplineSet
Fore
SplineSet
0 6 m 129,-1,1
 -60 6 -60 6 -105.5 28.5 c 129,-1,2
 -151 51 -151 51 -179 90 c 129,-1,3
 -207 129 -207 129 -216 168 c 1,4,5
 -130 144 -130 144 0 144 c 129,-1,6
 130 144 130 144 216 168 c 1,7,8
 207 129 207 129 179 90 c 129,-1,9
 151 51 151 51 105.5 28.5 c 129,-1,0
 60 6 60 6 0 6 c 129,-1,1
EndSplineSet
Colour: ffff
EndChar

StartChar: BeamingFaceWithSmilingEyes.3
Encoding: 126 -1 55
Width: 0
Flags: MW
LayerCount: 2
Back
SplineSet
0 57.748046875 m 5
 -86.3037109375 57.748046875 -150.52734375 66.677734375 -190.48828125 75.6279296875 c 13
 -210.311523438 120.532226562 l 5
 -190.53515625 113.069335938 -116.9765625 99.0048828125 0 99.0048828125 c 5
 118.896484375 99.0048828125 192.888671875 113.7890625 212.735351562 121.493164062 c 5
 195.912109375 77.28515625 l 21
 156.719726562 68.189453125 89.880859375 57.748046875 0 57.748046875 c 5
EndSplineSet
Fore
SplineSet
0 58 m 128,-1,1
 -112 58 -112 58 -192 76 c 1,2,-1
 -212 120 l 1,3,4
 -129 99 -129 99 0 99 c 0,5,6
 128 99 128 99 212 120 c 1,7,-1
 195 77 l 1,8,0
 112 58 112 58 0 58 c 128,-1,1
EndSplineSet
Colour: ffff
EndChar

StartChar: SlightlySmilingFace.1
Encoding: 134 -1 56
Width: 0
Flags: MW
LayerCount: 2
Back
SplineSet
-432 288 m 0
 -432 49.4130859375 -238.586914062 -144 0 -144 c 0
 238.586914062 -144 432 49.4130859375 432 288 c 0
 432 526.586914062 238.586914062 720 0 720 c 0
 -238.586914062 720 -432 526.586914062 -432 288 c 0
-179.638671875 153.095703125 m 0
 -178.560546875 148.799804688 -151.607421875 48 0 48 c 0
 151.630859375 48 178.560546875 148.799804688 179.638671875 153.095703125 c 0
 180.9609375 158.303710938 178.607421875 163.704101562 173.953125 166.392578125 c 0
 169.272460938 169.056640625 163.416015625 168.264648438 159.552734375 164.54296875 c 0
 159.095703125 164.087890625 112.657226562 120 0 120 c 0
 -112.657226562 120 -159.119140625 164.087890625 -159.552734375 164.51953125 c 0
 -161.857421875 166.799804688 -164.927734375 168 -168 168 c 0
 -170.015625 168 -172.056640625 167.49609375 -173.904296875 166.46484375 c 0
 -178.607421875 163.776367188 -180.9609375 158.327148438 -179.638671875 153.095703125 c 0
-204 396 m 0
 -204 349.607421875 -177.135742188 312 -144 312 c 0
 -110.864257812 312 -84 349.607421875 -84 396 c 0
 -84 442.392578125 -110.864257812 480 -144 480 c 0
 -177.135742188 480 -204 442.392578125 -204 396 c 0
84 396 m 0
 84 349.607421875 110.864257812 312 144 312 c 0
 177.135742188 312 204 349.607421875 204 396 c 0
 204 442.392578125 177.135742188 480 144 480 c 0
 110.864257812 480 84 442.392578125 84 396 c 0
EndSplineSet
Fore
Refer: 510 -1 N 1 0 0 1 0 72 2
Refer: 65 -1 N 1 0 0 1 0 48 0
Colour: ffff
EndChar

StartChar: StarStruck.3
Encoding: 151 -1 57
Width: 0
Flags: MW
LayerCount: 2
Back
SplineSet
432 288 m 0
 432 49.416015625 238.583984375 -144 0 -144 c 0
 -238.583984375 -144 -432 49.416015625 -432 288 c 0
 -432 526.583984375 -238.583984375 720 0 720 c 0
 238.583984375 720 432 526.583984375 432 288 c 1024
0 216 m 0
 -86.953125 216 -144.646484375 226.126953125 -216 240 c 0
 -232.295898438 243.142578125 -264 240 -264 192 c 0
 -264 96 -153.719726562 -24 0 -24 c 0
 153.696289062 -24 264 96 264 192 c 0
 264 240 232.295898438 243.168945312 216 240 c 0
 144.646484375 226.126953125 86.953125 216 0 216 c 0
-216 192 m 1
 -216 192 -144 168 0 168 c 0
 144 168 216 192 216 192 c 1
 216 192 168 96 0 96 c 0
 -168 96 -216 192 -216 192 c 1
-55.630859375 614.087890625 m 2
 -164.638671875 594.865234375 l 1
 -220.799804688 696.935546875 l 2
 -226.9921875 708.192382812 -239.711914062 714.215820312 -252.288085938 712.0078125 c 0
 -264.935546875 709.776367188 -274.776367188 699.743164062 -276.743164062 687.072265625 c 2
 -294.623046875 571.943359375 l 1
 -403.630859375 552.719726562 l 2
 -416.47265625 550.46484375 -426.384765625 540.119140625 -428.134765625 527.184570312 c 0
 -429.888671875 514.247070312 -423.072265625 501.672851562 -411.264648438 496.056640625 c 2
 -313.583984375 449.688476562 l 1
 -331.53515625 334.200195312 l 2
 -333.52734375 321.334960938 -327 308.665039062 -315.384765625 302.784179688 c 0
 -311.087890625 300.623046875 -306.48046875 299.591796875 -301.896484375 299.591796875 c 0
 -294.046875 299.591796875 -286.295898438 302.665039062 -280.51171875 308.51953125 c 2
 -196.223632812 393.984375 l 1
 -87.7919921875 342.50390625 l 2
 -76.03125 336.935546875 -62.015625 339.552734375 -53.087890625 349.03125 c 0
 -44.1611328125 358.51171875 -42.384765625 372.646484375 -48.646484375 384.046875 c 2
 -105 486.48046875 l 1
 -29.0390625 563.47265625 l 2
 -19.873046875 572.760742188 -17.7841796875 586.919921875 -23.8310546875 598.48828125 c 0
 -29.927734375 610.056640625 -42.865234375 616.319335938 -55.630859375 614.087890625 c 2
55.630859375 614.087890625 m 2
 164.638671875 594.865234375 l 1
 220.799804688 696.935546875 l 2
 226.9921875 708.192382812 239.711914062 714.215820312 252.288085938 712.0078125 c 0
 264.912109375 709.776367188 274.752929688 699.743164062 276.719726562 687.072265625 c 2
 294.599609375 571.943359375 l 1
 403.607421875 552.719726562 l 2
 416.47265625 550.46484375 426.384765625 540.142578125 428.111328125 527.208007812 c 0
 429.838867188 514.272460938 423.046875 501.696289062 411.239257812 496.080078125 c 2
 313.560546875 449.711914062 l 1
 331.51171875 334.223632812 l 2
 333.50390625 321.361328125 326.9765625 308.688476562 315.361328125 302.807617188 c 0
 311.064453125 300.646484375 306.45703125 299.615234375 301.873046875 299.615234375 c 0
 294.0234375 299.615234375 286.272460938 302.688476562 280.48828125 308.54296875 c 2
 196.200195312 394.0078125 l 1
 87.7685546875 342.52734375 l 2
 76.0078125 336.9609375 61.9921875 339.576171875 53.064453125 349.056640625 c 0
 44.134765625 358.53515625 42.361328125 372.672851562 48.623046875 384.072265625 c 2
 104.9765625 486.48046875 l 1
 29.015625 563.47265625 l 2
 19.8466796875 572.760742188 17.7607421875 586.919921875 23.8076171875 598.48828125 c 0
 29.927734375 610.056640625 42.865234375 616.319335938 55.630859375 614.087890625 c 2
EndSplineSet
Fore
Refer: 87 -1 N 0.820673 -0.144707 0.144707 0.820673 247.092 682.459 0
Refer: 87 -1 N 0.820672 0.144707 -0.144707 0.820672 -247.092 682.459 0
Colour: ffff
EndChar

StartChar: UpsideDownFace.1
Encoding: 135 -1 58
Width: 0
Flags: MW
LayerCount: 2
Back
SplineSet
-432 288 m 0
 -432 526.583984375 -238.583984375 720 0 720 c 0
 238.583984375 720 432 526.583984375 432 288 c 0
 432 49.416015625 238.583984375 -144 0 -144 c 0
 -238.583984375 -144 -432 49.416015625 -432 288 c 1024
-224.0390625 411.095703125 m 0
 -219.768554688 407.231445312 -213.384765625 406.9921875 -208.799804688 410.400390625 c 0
 -207.865234375 411.095703125 -114.672851562 480 0 480 c 0
 114.384765625 480 207.888671875 411.095703125 208.799804688 410.400390625 c 0
 213.384765625 406.9921875 219.768554688 407.280273438 224.0390625 411.095703125 c 0
 228.288085938 414.935546875 229.247070312 421.272460938 226.295898438 426.168945312 c 0
 223.200195312 431.303710938 149.087890625 552 0 552 c 0
 -149.087890625 552 -223.223632812 431.327148438 -226.295898438 426.168945312 c 0
 -229.247070312 421.247070312 -228.311523438 414.935546875 -224.0390625 411.095703125 c 0
-216 204 m 0
 -216 157.607421875 -189.135742188 120 -156 120 c 0
 -122.864257812 120 -96 157.607421875 -96 204 c 0
 -96 250.392578125 -122.864257812 288 -156 288 c 0
 -189.135742188 288 -216 250.392578125 -216 204 c 0
96 204 m 0
 96 157.607421875 122.864257812 120 156 120 c 0
 189.135742188 120 216 157.607421875 216 204 c 0
 216 250.392578125 189.135742188 288 156 288 c 0
 122.864257812 288 96 250.392578125 96 204 c 0
EndSplineSet
Fore
Refer: 92 -1 N 1 0 0 1 0 -120 0
Refer: 10 -1 N -1 0 0 -1 0 552 0
Colour: ffff
EndChar

StartChar: FaceBlowingKiss.1
Encoding: 152 -1 59
Width: 0
Flags: MW
LayerCount: 2
Back
SplineSet
-432 288 m 0
 -432 49.4130859375 -238.586914062 -144 0 -144 c 0
 238.586914062 -144 432 49.4130859375 432 288 c 0
 432 526.586914062 238.586914062 720 0 720 c 0
 -238.586914062 720 -432 526.586914062 -432 288 c 0
-216 348 m 0
 -216 301.607421875 -189.135742188 264 -156 264 c 0
 -122.864257812 264 -96 301.607421875 -96 348 c 0
 -96 394.392578125 -122.864257812 432 -156 432 c 0
 -189.135742188 432 -216 394.392578125 -216 348 c 0
250.96875 292.873046875 m 0
 249.52734375 296.111328125 214.9921875 372 144 372 c 0
 73.03125 372 38.47265625 296.111328125 37.03125 292.873046875 c 0
 34.8232421875 287.904296875 36.2646484375 282.095703125 40.51171875 278.688476562 c 0
 44.7119140625 275.280273438 50.7353515625 275.161132812 55.1533203125 278.353515625 c 0
 55.439453125 278.568359375 85.439453125 300 144 300 c 0
 202.223632812 300 232.176757812 278.857421875 232.846679688 278.376953125 c 0
 234.9609375 276.791992188 237.50390625 276 240 276 c 0
 242.638671875 276 245.303710938 276.888671875 247.48828125 278.615234375 c 0
 251.735351562 282.0234375 253.200195312 287.880859375 250.96875 292.873046875 c 0
-288.0234375 456 m 0
 -293.015625 456 -298.080078125 457.560546875 -302.400390625 460.799804688 c 0
 -313.0078125 468.743164062 -315.142578125 483.791992188 -307.200195312 494.400390625 c 0
 -228.912109375 598.799804688 -124.416015625 600 -120 600 c 0
 -106.752929688 600 -96 589.247070312 -96 576 c 0
 -96 562.776367188 -106.680664062 552.046875 -119.904296875 552 c 0
 -123.623046875 551.953125 -205.53515625 549.935546875 -268.799804688 465.599609375 c 0
 -273.50390625 459.311523438 -280.727539062 456 -288.0234375 456 c 0
264.0234375 384 m 0
 256.704101562 384 249.52734375 387.311523438 244.799804688 393.599609375 c 0
 182.591796875 476.54296875 77.7353515625 456.672851562 76.7041015625 456.48046875 c 0
 63.576171875 453.838867188 51.072265625 462.334960938 48.45703125 475.295898438 c 0
 45.865234375 488.280273438 54.2880859375 500.927734375 67.2724609375 503.54296875 c 0
 72.8154296875 504.672851562 203.0390625 529.272460938 283.176757812 422.423828125 c 0
 291.142578125 411.815429688 288.984375 396.768554688 278.376953125 388.823242188 c 0
 274.080078125 385.560546875 269.0390625 384 264.0234375 384 c 0
49.896484375 70.9921875 m 1
 81.935546875 80.880859375 112.9921875 98.7353515625 112.9921875 130.9921875 c 0
 112.9921875 193.846679688 -4.896484375 202.223632812 -18.3349609375 202.96875 c 0
 -24.912109375 203.591796875 -30.552734375 198.334960938 -30.984375 191.735351562 c 0
 -31.392578125 185.161132812 -26.423828125 179.47265625 -19.8466796875 179.015625 c 0
 -19.0078125 178.96875 64.9921875 171.838867188 64.9921875 130.9921875 c 0
 64.9921875 90.142578125 -19.0078125 83.015625 -19.8466796875 82.96875 c 0
 -20.1845703125 82.943359375 -20.423828125 82.7529296875 -20.7353515625 82.7041015625 c 0
 -21.984375 82.560546875 -23.1611328125 82.2724609375 -24.2392578125 81.7431640625 c 2
 -24.6962890625 81.48046875 l 2
 -25.8232421875 80.857421875 -26.8076171875 80.111328125 -27.6962890625 79.126953125 c 0
 -28.03125 78.7685546875 -28.2724609375 78.384765625 -28.560546875 77.9765625 c 0
 -29.111328125 77.2080078125 -29.615234375 76.46484375 -29.9765625 75.52734375 c 0
 -30.2646484375 74.8310546875 -30.408203125 74.064453125 -30.552734375 73.3193359375 c 0
 -30.646484375 72.7685546875 -30.935546875 72.2646484375 -30.984375 71.7119140625 c 0
 -30.984375 71.447265625 -30.888671875 71.2080078125 -30.888671875 70.96875 c 0
 -30.888671875 70.7275390625 -31.0078125 70.46484375 -30.984375 70.2236328125 c 0
 -30.9609375 69.646484375 -30.6728515625 69.142578125 -30.552734375 68.591796875 c 0
 -30.408203125 67.8466796875 -30.2880859375 67.126953125 -30 66.431640625 c 0
 -29.6884765625 65.7119140625 -29.2568359375 65.064453125 -28.8232421875 64.416015625 c 0
 -28.416015625 63.8388671875 -28.056640625 63.2158203125 -27.576171875 62.7119140625 c 0
 -27.0234375 62.1611328125 -26.376953125 61.7275390625 -25.7041015625 61.2470703125 c 0
 -25.126953125 60.8388671875 -24.599609375 60.431640625 -23.927734375 60.119140625 c 0
 -23.1611328125 59.7607421875 -22.3427734375 59.615234375 -21.50390625 59.47265625 c 0
 -20.927734375 59.3271484375 -20.447265625 59.0390625 -19.8466796875 58.9921875 c 0
 -19.0078125 58.943359375 64.9921875 51.8154296875 64.9921875 10.96875 c 0
 64.9921875 -29.880859375 -19.0078125 -37.0078125 -19.8466796875 -37.056640625 c 0
 -26.423828125 -37.53515625 -31.392578125 -43.2236328125 -30.984375 -49.7763671875 c 0
 -30.576171875 -56.134765625 -25.2958984375 -61.03125 -19.0078125 -61.03125 c 2
 -18.3349609375 -61.0078125 l 2
 -4.896484375 -60.2646484375 112.9921875 -51.888671875 112.9921875 10.96875 c 0
 112.9921875 43.2470703125 81.935546875 61.103515625 49.896484375 70.9921875 c 1
388.846679688 100.727539062 m 0
 383.184570312 119.688476562 370.153320312 136.392578125 350.9765625 145.727539062 c 0
 328.846679688 156.50390625 304.03125 155.111328125 283.943359375 144.288085938 c 1
 280.103515625 166.752929688 265.943359375 187.223632812 243.865234375 197.9765625 c 0
 207.45703125 215.735351562 163.51171875 200.615234375 145.776367188 164.231445312 c 0
 143.256835938 159.072265625 141.45703125 153.743164062 140.256835938 148.416015625 c 0
 121.657226562 87.072265625 155.615234375 -3.7685546875 192.865234375 -42.3349609375 c 0
 222.384765625 -45.45703125 263.735351562 -37.583984375 301.176757812 -21.384765625 c 0
 337.176757812 13.6572265625 366.768554688 55.0078125 388.846679688 100.727539062 c 0
423.696289062 66.6728515625 m 0
 441.431640625 103.056640625 426.334960938 147 389.9765625 164.735351562 c 0
 367.846679688 175.51171875 343.03125 174.119140625 322.943359375 163.295898438 c 1
 319.103515625 185.760742188 304.943359375 206.231445312 282.865234375 216.984375 c 0
 246.45703125 234.743164062 202.51171875 219.599609375 184.776367188 183.239257812 c 0
 182.256835938 178.080078125 180.45703125 172.752929688 179.256835938 167.423828125 c 0
 160.680664062 106.080078125 194.615234375 15.2392578125 231.865234375 -23.3271484375 c 0
 285.215820312 -28.943359375 377.711914062 0.1689453125 414.623046875 52.53515625 c 0
 418.103515625 56.8310546875 421.176757812 61.51171875 423.696289062 66.6728515625 c 0
EndSplineSet
Fore
Refer: 228 -1 N 1 0 0 1 -156 -60 0
Refer: 67 -1 N 1 0 0 1 -19 71 0
Refer: 68 -1 N 1 0 0 1 72 480 0
Refer: 11 -1 N 1 0 0 1 -120 576 0
Refer: 13 -1 N -1 0 0 -1 144 372 0
Colour: ffff
EndChar

StartChar: FaceWithTearsOfJoy.1
Encoding: 132 -1 60
Width: 0
Flags: MW
LayerCount: 2
Back
SplineSet
432 288 m 0
 432 49.416015625 238.583984375 -144 0 -144 c 0
 -238.560546875 -144 -432 49.416015625 -432 288 c 0
 -432 526.560546875 -238.560546875 720 0 720 c 0
 238.583984375 720 432 526.560546875 432 288 c 1024
250.96875 292.873046875 m 0
 249.52734375 296.111328125 214.9921875 372 144 372 c 0
 73.03125 372 38.47265625 296.111328125 37.03125 292.873046875 c 0
 34.8232421875 287.904296875 36.2646484375 282.095703125 40.51171875 278.688476562 c 0
 44.7119140625 275.280273438 50.7353515625 275.161132812 55.1533203125 278.353515625 c 0
 55.439453125 278.568359375 85.439453125 300 144 300 c 0
 202.223632812 300 232.176757812 278.857421875 232.846679688 278.376953125 c 0
 234.9609375 276.791992188 237.50390625 276 240 276 c 0
 242.638671875 276 245.303710938 276.888671875 247.48828125 278.615234375 c 0
 251.735351562 282.0234375 253.200195312 287.880859375 250.96875 292.873046875 c 0
-37.03125 292.873046875 m 0
 -38.47265625 296.111328125 -73.0078125 372 -144 372 c 0
 -214.96875 372 -249.52734375 296.111328125 -250.96875 292.873046875 c 0
 -253.176757812 287.904296875 -251.735351562 282.095703125 -247.51171875 278.688476562 c 0
 -243.288085938 275.280273438 -237.264648438 275.161132812 -232.873046875 278.353515625 c 0
 -232.560546875 278.568359375 -202.583984375 300 -144 300 c 0
 -85.7763671875 300 -55.8232421875 278.857421875 -55.1533203125 278.376953125 c 0
 -53.0390625 276.791992188 -50.49609375 276 -48 276 c 0
 -45.361328125 276 -42.6962890625 276.888671875 -40.51171875 278.615234375 c 0
 -36.2392578125 282.0234375 -34.8232421875 287.880859375 -37.03125 292.873046875 c 0
312 336 m 0
 302.49609375 336 293.47265625 341.711914062 289.704101562 351.095703125 c 0
 247.03125 457.776367188 140.353515625 480.239257812 139.272460938 480.48046875 c 0
 126.288085938 483.072265625 117.838867188 495.719726562 120.45703125 508.727539062 c 0
 123.046875 521.735351562 135.696289062 530.111328125 148.704101562 527.54296875 c 0
 154.126953125 526.46484375 282.046875 499.51171875 334.272460938 368.953125 c 0
 339.192382812 356.638671875 333.192382812 342.672851562 320.880859375 337.752929688 c 0
 318 336.552734375 314.9765625 336 312 336 c 0
-312 336 m 0
 -314.9765625 336 -317.9765625 336.552734375 -320.904296875 337.727539062 c 0
 -333.215820312 342.646484375 -339.192382812 356.615234375 -334.272460938 368.927734375 c 0
 -282.046875 499.48828125 -154.126953125 526.439453125 -148.704101562 527.51953125 c 0
 -135.672851562 530.064453125 -123.072265625 521.688476562 -120.45703125 508.704101562 c 0
 -117.865234375 495.743164062 -126.264648438 483.119140625 -139.200195312 480.48046875 c 0
 -143.638671875 479.568359375 -247.342773438 456.9609375 -289.704101562 351.095703125 c 0
 -293.47265625 341.711914062 -302.49609375 336 -312 336 c 0
0 192 m 0
 -86.953125 192 -144.646484375 202.126953125 -216 216 c 0
 -232.295898438 219.142578125 -264 216 -264 168 c 0
 -264 72 -153.719726562 -48 0 -48 c 0
 153.696289062 -48 264 72 264 168 c 0
 264 216 232.295898438 219.168945312 216 216 c 0
 144.646484375 202.126953125 86.953125 192 0 192 c 0
-216 168 m 1
 -216 168 -144 144 0 144 c 0
 144 144 216 168 216 168 c 1
 216 168 168 72 0 72 c 0
 -168 72 -216 168 -216 168 c 1
-171.672851562 42.50390625 m 0
 -187.9921875 -21.7431640625 -253.272460938 -60.576171875 -317.51953125 -44.2568359375 c 0
 -381.743164062 -27.9609375 -420.599609375 37.3193359375 -404.303710938 101.568359375 c 0
 -388.0078125 165.815429688 -252.215820312 310.560546875 -228.935546875 304.657226562 c 0
 -205.657226562 298.727539062 -155.376953125 106.727539062 -171.672851562 42.50390625 c 0
171.192382812 42.50390625 m 0
 187.51171875 -21.7431640625 252.791992188 -60.576171875 317.0390625 -44.2568359375 c 0
 381.288085938 -27.9609375 420.142578125 37.3193359375 403.823242188 101.568359375 c 0
 387.50390625 165.815429688 251.711914062 310.560546875 228.431640625 304.657226562 c 0
 205.200195312 298.727539062 154.896484375 106.727539062 171.192382812 42.50390625 c 0
EndSplineSet
Fore
Refer: 53 -1 N -1 0 0 1 144 504 0
Refer: 53 -1 N 1 0 0 1 -144 504 0
Refer: 28 -1 N 1 0 0 1 0 0 0
Colour: ffff
EndChar

StartChar: MeltingFace.1
Encoding: 137 -1 61
Width: 0
Flags: MW
LayerCount: 2
Back
SplineSet
409.680664062 -61.392578125 m 4
 423.086914062 -53.33203125 432.065429688 -38.6416015625 432.065429688 -21.8720703125 c 4
 432.065429688 -16.884765625 431.212890625 -12.107421875 429.743164062 -7.607421875 c 4
 423.52734375 11.8310546875 404.064453125 24 383.638671875 24 c 6
 336 24 l 6
 322.752929688 24 312 34.7529296875 312 48 c 4
 312 61.2470703125 322.752929688 72 336 72 c 6
 372 72 l 6
 391.645507812 72.2626953125 407.514648438 88.291015625 407.514648438 108 c 4
 407.514648438 127.870117188 391.3828125 144.001953125 371.509765625 144.001953125 c 4
 371.348632812 144.001953125 371.203125 144.001953125 371.0390625 144 c 4
 351.838867188 143.49609375 336 158.953125 336 178.153320312 c 6
 336 178.223632812 l 6
 336 185.256835938 337.439453125 192.095703125 340.223632812 198.552734375 c 4
 360.534179688 244.126953125 371.829101562 294.592773438 371.829101562 347.676757812 c 4
 371.829101562 355.560546875 371.770507812 363.373046875 371.280273438 371.134765625 c 4
 359.47265625 560.161132812 201.865234375 713.54296875 12.576171875 719.784179688 c 4
 -198.623046875 726.743164062 -372 557.615234375 -372 348 c 4
 -372 291.095703125 -358.846679688 237.384765625 -336 189.142578125 c 6
 -336 144.0234375 l 6
 -336 117.9609375 -356.760742188 95.51953125 -382.823242188 96.0234375 c 4
 -383.15625 96.0302734375 -383.491210938 96.03515625 -383.826171875 96.03515625 c 4
 -410.318359375 96.03515625 -431.826171875 74.5263671875 -431.826171875 48.03515625 c 4
 -431.826171875 46.666015625 -431.751953125 45.3564453125 -431.638671875 44.015625 c 4
 -429.576171875 18.599609375 -406.342773438 0 -380.807617188 0 c 6
 -187.873046875 0 l 6
 -187.844726562 0 -187.81640625 0 -187.788085938 0 c 4
 -172.291015625 0 -159.709960938 -12.5810546875 -159.709960938 -28.080078125 c 4
 -159.709960938 -35.861328125 -162.87890625 -42.912109375 -168 -48 c 5
 -168.001953125 -47.998046875 -240.719726562 -66.1689453125 -240.719726562 -66.1689453125 c 6
 -254.072265625 -69.517578125 -263.969726562 -81.607421875 -263.969726562 -95.990234375 c 4
 -263.969726562 -110.374023438 -254.072265625 -122.458984375 -240.719726562 -125.807617188 c 4
 -194.353515625 -137.400390625 -146.784179688 -143.49609375 -99 -143.953125 c 6
 -33.912109375 -144.576171875 l 6
 -0.1689453125 -144.912109375 33.361328125 -137.134765625 62.7841796875 -120.576171875 c 4
 91.560546875 -104.388671875 124.764648438 -95.1513671875 160.106445312 -95.1513671875 c 4
 173.111328125 -95.1513671875 185.880859375 -96.2763671875 198.192382812 -98.6650390625 c 4
 270.865234375 -112.776367188 346.200195312 -99.48046875 409.680664062 -61.392578125 c 4
17.6650390625 143.927734375 m 0
 -0.431640625 143.927734375 -18.431640625 145.799804688 -36.1923828125 149.54296875 c 0
 -100.823242188 163.247070312 -156.264648438 200.303710938 -188.303710938 251.208007812 c 0
 -190.525390625 254.845703125 -191.805664062 259.120117188 -191.805664062 263.690429688 c 0
 -191.805664062 276.9375 -181.052734375 287.690429688 -167.805664062 287.690429688 c 0
 -159.370117188 287.690429688 -151.975585938 283.380859375 -147.696289062 276.791992188 c 0
 -122.904296875 237.384765625 -77.49609375 207.384765625 -26.2568359375 196.51171875 c 0
 16.1533203125 187.51171875 81.912109375 187.080078125 154.607421875 235.919921875 c 0
 158.430664062 238.48828125 163.029296875 239.98828125 167.9765625 239.98828125 c 0
 181.223632812 239.98828125 191.978515625 229.232421875 191.978515625 215.986328125 c 0
 191.978515625 207.684570312 187.8046875 200.390625 181.392578125 196.080078125 c 0
 130.295898438 161.760742188 73.6572265625 143.927734375 17.6650390625 143.927734375 c 0
-144 432 m 0
 -144 392.236328125 -122.509765625 360 -96 360 c 0
 -69.490234375 360 -48 392.236328125 -48 432 c 0
 -48 471.763671875 -69.490234375 504 -96 504 c 0
 -122.509765625 504 -144 471.763671875 -144 432 c 0
72 384 m 0
 72 344.236328125 93.490234375 312 120 312 c 0
 146.509765625 312 168 344.236328125 168 384 c 0
 168 423.763671875 146.509765625 456 120 456 c 0
 93.490234375 456 72 423.763671875 72 384 c 0
EndSplineSet
Fore
Refer: 71 -1 N 1 0 0 1 0 0 0
Refer: 3 -1 N 0.125 0 0 0.1875 120 384 0
Refer: 3 -1 N 0.125 0 0 0.1875 -96 432 0
Colour: ffff
EndChar

StartChar: WinkingFace.1
Encoding: 138 -1 62
Width: 0
Flags: MW
LayerCount: 2
Back
SplineSet
432 288 m 0
 432 49.416015625 238.583984375 -144 0 -144 c 0
 -238.560546875 -144 -432 49.416015625 -432 288 c 0
 -432 526.560546875 -238.560546875 720 0 720 c 0
 238.583984375 720 432 526.560546875 432 288 c 1024
-216 324 m 0
 -216 277.607421875 -189.135742188 240 -156 240 c 0
 -122.864257812 240 -96 277.607421875 -96 324 c 0
 -96 370.392578125 -122.864257812 408 -156 408 c 0
 -189.135742188 408 -216 370.392578125 -216 324 c 0
250.96875 292.873046875 m 0
 249.52734375 296.111328125 214.9921875 372 144 372 c 0
 73.03125 372 38.47265625 296.111328125 37.03125 292.873046875 c 0
 34.8232421875 287.904296875 36.2646484375 282.095703125 40.51171875 278.688476562 c 0
 44.7119140625 275.280273438 50.7353515625 275.161132812 55.1533203125 278.353515625 c 0
 55.439453125 278.568359375 85.439453125 300 144 300 c 0
 202.223632812 300 232.176757812 278.857421875 232.846679688 278.376953125 c 0
 234.9609375 276.791992188 237.50390625 276 240 276 c 0
 242.638671875 276 245.303710938 276.888671875 247.48828125 278.615234375 c 0
 251.735351562 282.0234375 253.200195312 287.880859375 250.96875 292.873046875 c 0
-288.0234375 421.0078125 m 0
 -293.015625 421.0078125 -298.080078125 422.568359375 -302.400390625 425.807617188 c 0
 -313.0078125 433.752929688 -315.142578125 448.799804688 -307.200195312 459.408203125 c 0
 -228.912109375 563.807617188 -124.416015625 565.0078125 -120 565.0078125 c 0
 -106.752929688 565.0078125 -96 554.256835938 -96 541.0078125 c 0
 -96 527.784179688 -106.680664062 517.056640625 -119.904296875 517.0078125 c 0
 -123.646484375 516.9609375 -205.560546875 514.943359375 -268.823242188 430.607421875 c 0
 -273.50390625 424.319335938 -280.727539062 421.0078125 -288.0234375 421.0078125 c 0
264.0234375 370.0078125 m 0
 256.704101562 370.0078125 249.52734375 373.319335938 244.799804688 379.607421875 c 0
 182.591796875 462.576171875 77.7353515625 442.657226562 76.7041015625 442.48828125 c 0
 63.576171875 439.896484375 51.072265625 448.319335938 48.45703125 461.303710938 c 0
 45.865234375 474.311523438 54.2880859375 486.935546875 67.2724609375 489.552734375 c 0
 72.8154296875 490.680664062 203.0390625 515.280273438 283.176757812 408.431640625 c 0
 291.142578125 397.823242188 288.984375 382.776367188 278.376953125 374.831054688 c 0
 274.080078125 371.54296875 269.0390625 370.0078125 264.0234375 370.0078125 c 0
126.095703125 154.153320312 m 0
 121.583984375 156.791992188 115.727539062 156.239257812 111.768554688 152.711914062 c 0
 111.52734375 152.51953125 87.45703125 132 0 132 c 0
 -87.384765625 132 -111.50390625 152.49609375 -111.50390625 152.49609375 c 2
 -115.319335938 156.334960938 -121.200195312 157.056640625 -125.904296875 154.46484375 c 0
 -130.583984375 151.799804688 -132.935546875 146.327148438 -131.615234375 141.095703125 c 0
 -131.376953125 140.0390625 -104.161132812 36 0 36 c 0
 104.161132812 36 131.376953125 140.0390625 131.638671875 141.095703125 c 0
 132.912109375 146.208007812 130.583984375 151.439453125 126.095703125 154.153320312 c 0
EndSplineSet
Fore
Refer: 228 -1 N 1 0 0 1 -156 -84 0
Refer: 68 -1 N 1 0 0 1 72 466 0
Refer: 11 -1 N 1 0 0 1 -120 541 0
Refer: 13 -1 N -1 0 0 -1 144 372 0
Refer: 7 -1 N 1 0 0 1 0 36 0
Colour: ffff
EndChar

StartChar: KissingFaceWithSmilingEyes.1
Encoding: 160 -1 63
Width: 0
Flags: MW
LayerCount: 2
Back
SplineSet
432 288 m 0
 432 49.416015625 238.583984375 -144 0 -144 c 0
 -238.560546875 -144 -432 49.416015625 -432 288 c 0
 -432 526.560546875 -238.560546875 720 0 720 c 0
 238.583984375 720 432 526.560546875 432 288 c 1024
68.904296875 48 m 1
 100.943359375 57.888671875 132 75.7431640625 132 108 c 0
 132 170.857421875 14.111328125 179.231445312 0.6728515625 179.9765625 c 0
 -5.904296875 180.623046875 -11.54296875 175.342773438 -11.9765625 168.743164062 c 0
 -12.384765625 162.168945312 -7.416015625 156.48046875 -0.8388671875 156.0234375 c 0
 0 155.9765625 84 148.846679688 84 108 c 0
 84 67.1533203125 0 60.0234375 -0.8388671875 59.9765625 c 0
 -1.1533203125 59.953125 -1.392578125 59.7841796875 -1.7041015625 59.7353515625 c 0
 -2.9765625 59.591796875 -4.1533203125 59.3037109375 -5.2802734375 58.7529296875 c 2
 -5.638671875 58.53515625 l 2
 -6.7919921875 57.888671875 -7.8232421875 57.119140625 -8.6884765625 56.134765625 c 0
 -9.0234375 55.7763671875 -9.2392578125 55.392578125 -9.52734375 55.0078125 c 0
 -10.080078125 54.2392578125 -10.583984375 53.47265625 -10.96875 52.53515625 c 0
 -11.2568359375 51.8388671875 -11.400390625 51.072265625 -11.54296875 50.3271484375 c 0
 -11.638671875 49.7763671875 -11.927734375 49.2724609375 -11.9765625 48.7197265625 c 0
 -11.9765625 48.45703125 -11.880859375 48.2158203125 -11.880859375 47.9765625 c 0
 -11.880859375 47.7353515625 -12 47.47265625 -11.9765625 47.2314453125 c 0
 -11.953125 46.6572265625 -11.6650390625 46.1533203125 -11.54296875 45.599609375 c 0
 -11.400390625 44.857421875 -11.2802734375 44.134765625 -10.9921875 43.439453125 c 0
 -10.6806640625 42.7197265625 -10.2470703125 42.072265625 -9.8154296875 41.423828125 c 0
 -9.408203125 40.8466796875 -9.046875 40.2236328125 -8.568359375 39.7197265625 c 0
 -8.015625 39.1689453125 -7.369140625 38.7353515625 -6.6962890625 38.2568359375 c 0
 -6.119140625 37.8466796875 -5.591796875 37.439453125 -4.919921875 37.126953125 c 0
 -4.1533203125 36.7685546875 -3.3349609375 36.623046875 -2.49609375 36.48046875 c 0
 -1.919921875 36.3349609375 -1.439453125 36.046875 -0.8388671875 36 c 0
 0 35.9765625 84 28.8466796875 84 -12 c 0
 84 -52.8466796875 0 -59.9765625 -0.8388671875 -60.0234375 c 0
 -7.416015625 -60.50390625 -12.384765625 -66.1923828125 -11.9765625 -72.7431640625 c 0
 -11.568359375 -79.103515625 -6.2880859375 -84 0 -84 c 2
 0.6728515625 -83.9765625 l 2
 14.111328125 -83.2314453125 132 -74.857421875 132 -12 c 0
 132 20.2568359375 100.943359375 38.111328125 68.904296875 48 c 1
-48 264 m 0
 -58.056640625 264 -67.416015625 270.361328125 -70.7763671875 280.416015625 c 0
 -75.646484375 294.791992188 -95.1845703125 336 -120 336 c 0
 -145.48828125 336 -165.311523438 292.153320312 -169.223632812 280.416015625 c 0
 -173.423828125 267.865234375 -186.935546875 261.0234375 -199.583984375 265.247070312 c 0
 -212.161132812 269.423828125 -218.953125 283.0078125 -214.752929688 295.607421875 c 0
 -211.752929688 304.630859375 -183.45703125 384 -120 384 c 0
 -56.54296875 384 -28.2470703125 304.630859375 -25.2236328125 295.583984375 c 0
 -21.0234375 283.0078125 -27.8154296875 269.400390625 -40.392578125 265.223632812 c 0
 -42.935546875 264.408203125 -45.50390625 264 -48 264 c 0
192 264 m 0
 181.943359375 264 172.583984375 270.361328125 169.247070312 280.416015625 c 0
 164.376953125 294.791992188 144.791992188 336 120 336 c 0
 94.51171875 336 74.6650390625 292.153320312 70.7529296875 280.416015625 c 0
 66.552734375 267.865234375 53.087890625 261.0234375 40.392578125 265.247070312 c 0
 27.8388671875 269.423828125 21.0234375 283.0078125 25.2236328125 295.607421875 c 0
 28.2470703125 304.630859375 56.51953125 384 120 384 c 0
 183.48046875 384 211.752929688 304.630859375 214.752929688 295.583984375 c 0
 218.953125 283.0078125 212.161132812 269.400390625 199.583984375 265.223632812 c 0
 197.064453125 264.408203125 194.49609375 264 192 264 c 0
EndSplineSet
Fore
Refer: 67 -1 N 1 0 0 1 0 48 0
Refer: 8 -1 N 1 0 0 1 -120 360 0
Refer: 8 -1 N 1 0 0 1 120 360 0
Colour: ffff
EndChar

StartChar: SmilingFaceWithTear.1
Encoding: 161 -1 64
Width: 0
Flags: MW
LayerCount: 2
Back
SplineSet
-432 288 m 0
 -432 49.4130859375 -238.586914062 -144 0 -144 c 0
 238.586914062 -144 432 49.4130859375 432 288 c 0
 432 526.586914062 238.586914062 720 0 720 c 0
 -238.586914062 720 -432 526.586914062 -432 288 c 0
-204 396 m 0
 -204 349.607421875 -177.135742188 312 -144 312 c 0
 -110.864257812 312 -84 349.607421875 -84 396 c 0
 -84 442.392578125 -110.864257812 480 -144 480 c 0
 -177.135742188 480 -204 442.392578125 -204 396 c 0
84 396 m 0
 84 349.607421875 110.864257812 312 144 312 c 0
 177.135742188 312 204 349.607421875 204 396 c 0
 204 442.392578125 177.135742188 480 144 480 c 0
 110.864257812 480 84 442.392578125 84 396 c 0
224.0390625 176.904296875 m 0
 219.768554688 180.768554688 213.384765625 181.0078125 208.799804688 177.599609375 c 0
 207.865234375 176.904296875 114.672851562 108 0 108 c 0
 -114.384765625 108 -207.888671875 176.904296875 -208.799804688 177.599609375 c 0
 -213.384765625 181.0078125 -219.768554688 180.719726562 -224.0390625 176.904296875 c 0
 -228.288085938 173.064453125 -229.247070312 166.727539062 -226.295898438 161.831054688 c 0
 -223.200195312 156.672851562 -149.087890625 36 0 36 c 0
 149.087890625 36 223.223632812 156.672851562 226.295898438 161.831054688 c 0
 229.247070312 166.752929688 228.311523438 173.064453125 224.0390625 176.904296875 c 0
276 60 m 0
 276 -6.2880859375 222.288085938 -60 156 -60 c 0
 89.7119140625 -60 36 -6.2880859375 36 60 c 0
 36 126.288085938 132 300 156 300 c 0
 180 300 276 126.288085938 276 60 c 0
EndSplineSet
Fore
Refer: 510 -1 N 1 0 0 1 0 72 2
Refer: 489 -1 N 1 0 0 1 0 24 0
Colour: ffff
EndChar

StartChar: mouth_smiling3
Encoding: 53 -1 65
Width: 0
GlyphClass: 5
Flags: MW
LayerCount: 2
Back
SplineSet
-159.516601562 116.483398438 m 5
 -159.572564573 116.539361448 l 4
 -159.572564573 116.539361448 -159.571010045 116.53780692 -159.567382812 116.534179688 c 4
 -159.565429688 116.532226562 -158.466796875 115.4609375 -156.189453125 113.650390625 c 4
 -154.138671875 112.021484375 -151.1328125 109.794921875 -147.107421875 107.2109375 c 4
 -139.862304688 102.560546875 -129.317382812 96.75390625 -115.083984375 91.2001953125 c 4
 -89.4697265625 81.2041015625 -51.880859375 72 0 72 c 4
 51.880859375 72 89.4697265625 81.2041015625 115.083984375 91.2001953125 c 4
 129.317382812 96.75390625 139.862304688 102.560546875 147.107421875 107.2109375 c 4
 151.1328125 109.794921875 154.138671875 112.021484375 156.189453125 113.650390625 c 4
 158.466796875 115.4609375 159.565429688 116.532226562 159.567382812 116.534179688 c 4
 159.571010045 116.53780692 159.572564573 116.539361448 159.572564573 116.539361448 c 4
 159.516601562 116.483398438 l 5
 160.932617188 117.899414062 162.72265625 118.98046875 164.788085938 119.551757812 c 4
 165.857614402 119.847939961 166.933723562 119.989256404 167.992494309 119.989256404 c 4
 173.252335347 119.989256404 178.084268086 116.501596962 179.555664062 111.1875 c 4
 179.851985642 110.117506036 179.993299622 109.04122798 179.993299622 107.982256821 c 4
 179.993299622 106.996109321 179.870753205 106.024970232 179.63671875 105.087890625 c 5
 179.66716877 105.210513678 179.678589779 105.255460223 179.67900902 105.255460223 c 5
 179.67900902 105.255460223 179.599523562 104.923987912 179.599523562 104.916542122 c 5
 179.599523562 104.916542122 179.61097672 104.957578756 179.642578125 105.083984375 c 5
 179.475585938 104.415039062 177.758789062 97.763671875 172.922851562 88.01171875 c 4
 169.055664062 80.2138671875 163.18359375 70.4228515625 154.49609375 60.2021484375 c 4
 148.463867188 53.10546875 141.07421875 45.8056640625 132.088867188 38.8544921875 c 4
 120.857421875 30.166015625 107.140625 22.0341796875 90.556640625 15.4990234375 c 4
 66.669921875 6.0849609375 36.8955078125 0 0 0 c 4
 -36.8955078125 0 -66.669921875 6.0849609375 -90.556640625 15.4990234375 c 4
 -107.140625 22.0341796875 -120.857421875 30.166015625 -132.088867188 38.8544921875 c 4
 -141.07421875 45.8056640625 -148.463867188 53.10546875 -154.49609375 60.2021484375 c 4
 -163.18359375 70.4228515625 -169.055664062 80.2138671875 -172.922851562 88.01171875 c 4
 -177.758789062 97.763671875 -179.475585938 104.415039062 -179.642578125 105.083984375 c 4
 -179.876979391 106.020648067 -179.99953784 106.991567876 -179.99953784 107.977499399 c 4
 -179.99953784 109.037146545 -179.857967493 110.114134099 -179.561523438 111.184570312 c 4
 -178.090056451 116.498923731 -173.258405113 119.985986565 -167.998495691 119.985986565 c 4
 -166.940016102 119.985986565 -165.864193922 119.844775667 -164.794921875 119.548828125 c 4
 -162.728515625 118.9765625 -160.938476562 117.896484375 -159.516601562 116.483398438 c 5
EndSplineSet
Fore
SplineSet
0 0 m 129,-1,1
 -71 0 -71 0 -117 28.5 c 129,-1,2
 -163 57 -163 57 -179 103 c 1,3,4
 -180 106 -180 106 -180 108 c 1,5,6
 -180 113 -180 113 -176.5 116.5 c 129,-1,7
 -173 120 -173 120 -168 120 c 1,8,9
 -164 120 -164 120 -160 117 c 1,10,11
 -139 98 -139 98 -97 85 c 129,-1,12
 -55 72 -55 72 0 72 c 129,-1,13
 55 72 55 72 97 85 c 129,-1,14
 139 98 139 98 160 117 c 1,15,16
 164 120 164 120 168 120 c 1,17,18
 173 120 173 120 176.5 116.5 c 129,-1,19
 180 113 180 113 180 108 c 1,20,21
 180 106 180 106 179 103 c 1,22,23
 163 57 163 57 117 28.5 c 129,-1,0
 71 0 71 0 0 0 c 129,-1,1
EndSplineSet
Colour: ff00ff
EndChar

StartChar: smile_1c
Encoding: 73 -1 66
Width: 0
GlyphClass: 5
Flags: MW
LayerCount: 2
Back
SplineSet
104.280273438 68.638671875 m 4
 108.48046875 64.607421875 109.223632812 58.1767578125 105.984375 53.3271484375 c 4
 104.54296875 51.1455078125 69.623046875 0 0 0 c 4
 -69.623046875 0 -104.51953125 51.1455078125 -105.984375 53.3271484375 c 4
 -109.200195312 58.2001953125 -108.48046875 64.6806640625 -104.231445312 68.7119140625 c 4
 -99.984375 72.7451171875 -93.431640625 73.080078125 -88.7998046875 69.599609375 c 4
 -88.560546875 69.408203125 -58.583984375 48 0 48 c 4
 58.583984375 48 88.583984375 69.408203125 88.8466796875 69.6494140625 c 4
 93.55078125 73.103515625 100.080078125 72.6962890625 104.280273438 68.638671875 c 4
EndSplineSet
Fore
SplineSet
0 0 m 129,-1,1
 -33 0 -33 0 -60.5 14.5 c 129,-1,2
 -88 29 -88 29 -105 52 c 1,3,4
 -108 56 -108 56 -108 60 c 1,5,6
 -108 65 -108 65 -104.5 68.5 c 129,-1,7
 -101 72 -101 72 -96 72 c 1,8,9
 -92 72 -92 72 -88 69 c 1,10,11
 -74 60 -74 60 -50.5 54 c 129,-1,12
 -27 48 -27 48 0 48 c 129,-1,13
 27 48 27 48 50.5 54 c 129,-1,14
 74 60 74 60 88 69 c 1,15,16
 92 72 92 72 96 72 c 1,17,18
 101 72 101 72 104.5 68.5 c 129,-1,19
 108 65 108 65 108 60 c 1,20,21
 108 56 108 56 105 52 c 1,22,23
 88 29 88 29 60.5 14.5 c 129,-1,0
 33 0 33 0 0 0 c 129,-1,1
EndSplineSet
Colour: ff00ff
EndChar

StartChar: mouth_kissing
Encoding: 54 -1 67
Width: 0
GlyphClass: 5
Flags: MW
LayerCount: 2
Back
SplineSet
0.607421875 11.984375 m 5
 0.8896484375 11.970703125 12.671875 11.3779296875 29.0341796875 8.916015625 c 4
 42.130859375 6.9462890625 58.154296875 3.796875 73.73046875 -1.36328125 c 4
 79.5029296875 -3.275390625 85.220703125 -5.466796875 90.724609375 -8.0126953125 c 4
 95.1279296875 -10.048828125 99.396484375 -12.310546875 103.4453125 -14.857421875 c 4
 107.493164062 -17.404296875 111.327148438 -20.2373046875 114.831054688 -23.4384765625 c 4
 117.6328125 -25.9990234375 120.225585938 -28.7978515625 122.51171875 -31.8701171875 c 4
 125.083007812 -35.32421875 127.263671875 -39.12890625 128.876953125 -43.2568359375 c 4
 130.89453125 -48.419921875 132 -54.0595703125 132 -60 c 4
 132 -65.9404296875 130.89453125 -71.580078125 128.876953125 -76.7431640625 c 4
 127.263671875 -80.87109375 125.083007812 -84.67578125 122.51171875 -88.1298828125 c 4
 120.225585938 -91.2021484375 117.6328125 -94.0009765625 114.831054688 -96.5615234375 c 4
 111.327148438 -99.7626953125 107.493164062 -102.595703125 103.4453125 -105.142578125 c 4
 99.396484375 -107.689453125 95.1279296875 -109.951171875 90.724609375 -111.987304688 c 4
 85.220703125 -114.533203125 79.5029296875 -116.724609375 73.73046875 -118.63671875 c 4
 58.154296875 -123.796875 42.130859375 -126.946289062 29.0341796875 -128.916015625 c 4
 12.671875 -131.377929688 0.8896484375 -131.970703125 0.607421875 -131.984375 c 4
 -2.435546875 -132.13671875 -5.5380859375 -131.138671875 -7.9892578125 -128.951171875 c 4
 -12.931640625 -124.538085938 -13.3642578125 -116.9453125 -8.955078125 -112.006835938 c 4
 -6.7685546875 -109.55859375 -3.798828125 -108.21875 -0.7578125 -108.028320312 c 6
 -0.7578125 -108.028320312 0.603515625 -107.946289062 3.6318359375 -107.622070312 c 4
 7.2734375 -107.231445312 12.91796875 -106.506835938 19.5625 -105.2578125 c 4
 29.12890625 -103.458007812 40.7705078125 -100.544921875 51.384765625 -96.150390625 c 4
 57.75 -93.5146484375 63.7138671875 -90.3544921875 68.642578125 -86.75390625 c 4
 73.03125 -83.548828125 76.55859375 -80.03515625 79.08203125 -76.2763671875 c 4
 80.8369140625 -73.6611328125 82.1328125 -70.9169921875 82.9638671875 -67.904296875 c 4
 83.62890625 -65.4912109375 84 -62.8896484375 84 -60 c 4
 84 -57.1103515625 83.62890625 -54.5087890625 82.9638671875 -52.095703125 c 4
 82.1328125 -49.0830078125 80.8369140625 -46.3388671875 79.08203125 -43.7236328125 c 4
 76.55859375 -39.96484375 73.03125 -36.451171875 68.642578125 -33.24609375 c 4
 63.7138671875 -29.6455078125 57.75 -26.4853515625 51.384765625 -23.849609375 c 4
 43.427734375 -20.5556640625 34.884765625 -18.0830078125 27.078125 -16.3037109375 c 4
 20.13671875 -14.720703125 13.7783203125 -13.6796875 8.8984375 -13.01953125 c 4
 2.625 -12.169921875 -0.7587890625 -11.9765625 -0.7587890625 -11.9765625 c 6
 -3.57421875 -11.80078125 -6.3388671875 -10.6376953125 -8.48828125 -8.4892578125 c 4
 -13.171875 -3.806640625 -13.173828125 3.796875 -8.4912109375 8.4814453125 c 4
 -6.3408203125 10.6318359375 -3.5751953125 11.794921875 -0.7587890625 11.9716796875 c 6
 -0.7587890625 11.9716796875 0.603515625 12.0537109375 3.6318359375 12.3779296875 c 4
 7.2734375 12.7685546875 12.91796875 13.4931640625 19.5625 14.7421875 c 4
 29.12890625 16.5419921875 40.7705078125 19.455078125 51.384765625 23.849609375 c 4
 57.75 26.4853515625 63.7138671875 29.6455078125 68.642578125 33.24609375 c 4
 73.03125 36.451171875 76.55859375 39.96484375 79.08203125 43.7236328125 c 4
 80.8369140625 46.3388671875 82.1328125 49.0830078125 82.9638671875 52.095703125 c 4
 83.62890625 54.5087890625 84 57.1103515625 84 60 c 4
 84 62.8896484375 83.62890625 65.4912109375 82.9638671875 67.904296875 c 4
 82.1328125 70.9169921875 80.8369140625 73.6611328125 79.08203125 76.2763671875 c 4
 76.55859375 80.03515625 73.03125 83.548828125 68.642578125 86.75390625 c 4
 63.7138671875 90.3544921875 57.75 93.5146484375 51.384765625 96.150390625 c 4
 43.427734375 99.4443359375 34.884765625 101.916992188 27.078125 103.696289062 c 4
 20.13671875 105.279296875 13.7783203125 106.3203125 8.8984375 106.98046875 c 4
 2.625 107.830078125 -0.7587890625 108.0234375 -0.7587890625 108.0234375 c 6
 -3.798828125 108.213867188 -6.7685546875 109.552734375 -8.955078125 112.001953125 c 4
 -13.365234375 116.94140625 -12.931640625 124.533203125 -7.9892578125 128.9453125 c 4
 -5.5380859375 131.134765625 -2.435546875 132.1328125 0.607421875 131.98046875 c 4
 0.890625 131.965820312 12.6708984375 131.37890625 29.0341796875 128.916015625 c 4
 42.130859375 126.946289062 58.154296875 123.796875 73.73046875 118.63671875 c 4
 79.5029296875 116.724609375 85.220703125 114.533203125 90.724609375 111.987304688 c 4
 95.1279296875 109.951171875 99.396484375 107.689453125 103.4453125 105.142578125 c 4
 107.493164062 102.595703125 111.327148438 99.7626953125 114.831054688 96.5615234375 c 4
 117.6328125 94.0009765625 120.225585938 91.2021484375 122.51171875 88.1298828125 c 4
 125.083007812 84.67578125 127.263671875 80.87109375 128.876953125 76.7431640625 c 4
 130.89453125 71.580078125 132 65.9404296875 132 60 c 4
 132 54.0595703125 130.89453125 48.419921875 128.876953125 43.2568359375 c 4
 127.263671875 39.12890625 125.083007812 35.32421875 122.51171875 31.8701171875 c 4
 120.225585938 28.7978515625 117.6328125 25.9990234375 114.831054688 23.4384765625 c 4
 111.327148438 20.2373046875 107.493164062 17.404296875 103.4453125 14.857421875 c 4
 99.396484375 12.310546875 95.1279296875 10.048828125 90.724609375 8.0126953125 c 4
 85.220703125 5.466796875 79.5029296875 3.275390625 73.73046875 1.36328125 c 4
 58.154296875 -3.796875 42.130859375 -6.9462890625 29.0341796875 -8.916015625 c 4
 12.671875 -11.3779296875 0.8896484375 -11.970703125 0.607421875 -11.984375 c 5
 0.607421875 11.984375 l 5
EndSplineSet
Fore
SplineSet
-12 0 m 129,-1,1
 -12 5 -12 5 -8.5 8.5 c 129,-1,2
 -5 12 -5 12 0 12 c 1,3,4
 38 16 38 16 61 28.5 c 129,-1,5
 84 41 84 41 84 60 c 129,-1,6
 84 79 84 79 61 91.5 c 129,-1,7
 38 104 38 104 0 108 c 1,8,9
 -5 108 -5 108 -8.5 111.5 c 129,-1,10
 -12 115 -12 115 -12 120 c 129,-1,11
 -12 125 -12 125 -8.5 128.5 c 129,-1,12
 -5 132 -5 132 0 132 c 257,13,14
 2 132 2 132 13 131 c 1,15,16
 70 125 70 125 101 106.5 c 129,-1,17
 132 88 132 88 132 60 c 1,18,19
 132 20 132 20 70 0 c 1,20,21
 132 -20 132 -20 132 -60 c 1,22,23
 132 -88 132 -88 101 -106.5 c 129,-1,24
 70 -125 70 -125 13 -131 c 1,25,26
 2 -132 2 -132 0 -132 c 257,27,28
 -5 -132 -5 -132 -8.5 -128.5 c 129,-1,29
 -12 -125 -12 -125 -12 -120 c 129,-1,30
 -12 -115 -12 -115 -8.5 -111.5 c 129,-1,31
 -5 -108 -5 -108 0 -108 c 1,32,33
 38 -104 38 -104 61 -91.5 c 129,-1,34
 84 -79 84 -79 84 -60 c 129,-1,35
 84 -41 84 -41 61 -28.5 c 129,-1,36
 38 -16 38 -16 0 -12 c 1,37,38
 -5 -12 -5 -12 -8.5 -8.5 c 129,-1,0
 -12 -5 -12 -5 -12 0 c 129,-1,1
EndSplineSet
Colour: ff00ff
EndChar

StartChar: eyebrow_5
Encoding: 16 -1 68
Width: 0
GlyphClass: 5
Flags: MW
LayerCount: 2
Back
SplineSet
4.7255859375 -23.5341796875 m 5
 4.7255859375 -23.5341796875 4.7265625 -23.541015625 4.689453125 -23.541015625 c 4
 3.19921875 -23.84765625 1.6181640625 -24.0078125 0.0009765625 -24.0078125 c 4
 -13.2470703125 -24.0078125 -24.0029296875 -13.251953125 -24.0029296875 -0.00390625 c 4
 -24.0029296875 11.626953125 -15.712890625 21.3359375 -4.7255859375 23.5341796875 c 4
 -4.0859375 23.662109375 0.765625 24.607421875 8.81640625 25.4296875 c 4
 15.2568359375 26.087890625 23.74609375 26.6669921875 33.77734375 26.6669921875 c 4
 44.6142578125 26.6669921875 57.2275390625 25.9921875 70.9609375 23.9775390625 c 4
 81.9462890625 22.3662109375 93.6513671875 19.896484375 105.719726562 16.205078125 c 4
 127.428710938 9.564453125 150.379882812 -1.0712890625 172.016601562 -17.74609375 c 4
 185.916992188 -28.4580078125 199.227539062 -41.6416015625 211.2109375 -57.6201171875 c 4
 214.217773438 -61.62890625 216 -66.607421875 216 -71.998046875 c 4
 216 -85.2421875 205.24609375 -95.9951171875 192.001953125 -95.9951171875 c 4
 184.149414062 -95.9951171875 177.171875 -92.21484375 172.81640625 -86.416015625 c 4
 172.79296875 -86.3759765625 172.7890625 -86.3798828125 172.7890625 -86.3798828125 c 6
 163.439453125 -73.9140625 153.309570312 -63.9208984375 142.754882812 -55.787109375 c 4
 126.350585938 -43.1455078125 108.806640625 -34.9453125 91.677734375 -29.705078125 c 4
 82.1689453125 -26.796875 72.80859375 -24.8125 63.9462890625 -23.5126953125 c 4
 52.8681640625 -21.8876953125 42.572265625 -21.3330078125 33.77734375 -21.3330078125 c 4
 25.63671875 -21.3330078125 18.7626953125 -21.8076171875 13.7421875 -22.3203125 c 4
 8.162109375 -22.890625 4.873046875 -23.5068359375 4.66015625 -23.546875 c 4
 4.580078125 -23.5625 4.7255859375 -23.5341796875 4.7255859375 -23.5341796875 c 5
EndSplineSet
Fore
SplineSet
-24 0 m 129,-1,1
 -24 10 -24 10 -17 17 c 1,2,3
 -11 23 -11 23 -2 24 c 1,4,5
 18 27 18 27 34 27 c 1,6,7
 86 27 86 27 132.5 6 c 129,-1,8
 179 -15 179 -15 210 -56 c 1,9,10
 216 -63 216 -63 216 -72 c 1,11,12
 216 -82 216 -82 209 -89 c 129,-1,13
 202 -96 202 -96 192 -96 c 1,14,15
 179 -96 179 -96 171 -84 c 1,16,17
 148 -54 148 -54 112 -37.5 c 129,-1,18
 76 -21 76 -21 32 -21 c 1,19,20
 21 -21 21 -21 8 -23 c 1,21,22
 3 -24 3 -24 0 -24 c 1,23,24
 -10 -24 -10 -24 -17 -17 c 129,-1,0
 -24 -10 -24 -10 -24 0 c 129,-1,1
EndSplineSet
Colour: ff00ff
EndChar

StartChar: SmilingFaceWithHalo.4
Encoding: 144 -1 69
Width: 0
Flags: MW
LayerCount: 2
Back
SplineSet
-432 288 m 1
 -432 49.4130859375 -238.586914062 -144 0 -144 c 1
 238.586914062 -144 432 49.4130859375 432 288 c 1
 432 526.586914062 238.586914062 720 0 720 c 1
 -238.586914062 720 -432 526.586914062 -432 288 c 1
224.0390625 176.904296875 m 1
 219.768554688 180.768554688 213.384765625 181.0078125 208.799804688 177.599609375 c 1
 207.865234375 176.904296875 114.672851562 108 0 108 c 1
 -114.384765625 108 -207.888671875 176.904296875 -208.799804688 177.599609375 c 1
 -213.384765625 181.0078125 -219.768554688 180.719726562 -224.0390625 176.904296875 c 1
 -228.288085938 173.064453125 -229.247070312 166.727539062 -226.295898438 161.831054688 c 1
 -223.200195312 156.672851562 -149.087890625 36 0 36 c 1
 149.087890625 36 223.223632812 156.672851562 226.295898438 161.831054688 c 1
 229.247070312 166.752929688 228.311523438 173.064453125 224.0390625 176.904296875 c 1
192 264 m 1
 181.943359375 264 172.583984375 270.361328125 169.247070312 280.416015625 c 1
 164.376953125 294.791992188 144.791992188 336 120 336 c 1
 94.51171875 336 74.6650390625 292.153320312 70.7529296875 280.416015625 c 1
 66.552734375 267.865234375 53.087890625 261.0234375 40.392578125 265.247070312 c 1
 27.8388671875 269.423828125 21.0234375 283.0078125 25.2236328125 295.607421875 c 1
 28.2470703125 304.630859375 56.51953125 384 120 384 c 1
 183.48046875 384 211.752929688 304.630859375 214.752929688 295.583984375 c 1
 218.953125 283.0078125 212.161132812 269.400390625 199.583984375 265.223632812 c 1
 197.064453125 264.408203125 194.49609375 264 192 264 c 1
-48 264 m 1
 -58.056640625 264 -67.416015625 270.361328125 -70.7763671875 280.416015625 c 1
 -75.646484375 294.791992188 -95.1845703125 336 -120 336 c 1
 -145.48828125 336 -165.311523438 292.153320312 -169.223632812 280.416015625 c 1
 -173.423828125 267.865234375 -186.935546875 261.0234375 -199.583984375 265.247070312 c 1
 -212.161132812 269.423828125 -218.953125 283.0078125 -214.752929688 295.607421875 c 1
 -211.752929688 304.630859375 -183.48046875 384 -120 384 c 1
 -56.51953125 384 -28.2470703125 304.630859375 -25.2236328125 295.583984375 c 1
 -21.0234375 283.0078125 -27.8154296875 269.400390625 -40.392578125 265.223632812 c 1
 -42.935546875 264.408203125 -45.50390625 264 -48 264 c 1
364.200195312 520.416015625 m 1
 364.200195312 520.416015625 147.192382812 516.552734375 0 516.552734375 c 1
 -93.7197265625 516.552734375 -364.943359375 519.384765625 -364.943359375 519.384765625 c 1
 -377.447265625 498.361328125 l 17
 -304.416015625 453.815429688 -159.912109375 428.353515625 0 428.353515625 c 1
 158.303710938 428.353515625 301.823242188 453.311523438 375.646484375 496.9921875 c 9
 377.51953125 498.119140625 l 1
 377.51953125 498.119140625 368.54296875 514.056640625 364.200195312 520.416015625 c 1
138.646484375 711.719726562 m 1
 109.560546875 713.9765625 79.2958984375 715.53515625 48.095703125 716.280273438 c 1
 32.2314453125 716.665039062 16.2236328125 716.904296875 0 716.904296875 c 1
 -16.126953125 716.904296875 -32.064453125 716.665039062 -47.8310546875 716.303710938 c 1
 -79.080078125 715.560546875 -109.369140625 714 -138.48046875 711.743164062 c 1
 -303.838867188 698.880859375 -427.943359375 661.176757812 -427.943359375 593.111328125 c 1
 -427.943359375 507 -229.607421875 454.607421875 0 454.607421875 c 1
 229.607421875 454.607421875 427.943359375 507 427.943359375 593.111328125 c 1
 427.943359375 661.153320312 303.912109375 698.831054688 138.646484375 711.719726562 c 1
0 542.807617188 m 1
 -164.665039062 542.807617188 -309.838867188 562.799804688 -309.838867188 608.47265625 c 1
 -309.838867188 621.334960938 -297.984375 633.0234375 -277.704101562 643.247070312 c 1
 -250.03125 657.192382812 -206.231445312 668.303710938 -153.168945312 675.623046875 c 1
 -107.303710938 681.912109375 -54.8154296875 685.46484375 0 685.46484375 c 1
 54.984375 685.46484375 107.638671875 681.912109375 153.599609375 675.552734375 c 1
 207.408203125 668.111328125 251.665039062 656.760742188 279.168945312 642.50390625 c 1
 298.53515625 632.47265625 309.838867188 621.046875 309.838867188 608.47265625 c 1
 309.838867188 562.799804688 164.665039062 542.807617188 0 542.807617188 c 1
153.599609375 675.52734375 m 17
 207.408203125 668.087890625 251.665039062 656.735351562 279.168945312 642.48046875 c 9
 280.657226562 642.072265625 l 1
 225.815429688 682.247070312 170.9765625 703.51171875 138.646484375 711.719726562 c 1
 109.560546875 713.9765625 79.2958984375 715.53515625 48.095703125 716.280273438 c 1
 48.52734375 716.111328125 l 1
 153.599609375 675.52734375 l 17
-277.704101562 643.223632812 m 1
 -250.03125 657.168945312 -206.231445312 668.280273438 -153.168945312 675.599609375 c 9
 -48.384765625 716.111328125 l 1
 -47.8310546875 716.303710938 l 1
 -79.080078125 715.560546875 -109.369140625 714 -138.48046875 711.743164062 c 1
 -170.807617188 703.53515625 -225.672851562 682.295898438 -280.53515625 642.095703125 c 1
 -277.704101562 643.223632812 l 1
251.327148438 639 m 1
 235.48828125 649.630859375 219.0234375 660.838867188 203.303710938 669.239257812 c 1
 142.727539062 701.638671875 73.51171875 720 0 720 c 1
 -70.2958984375 720 -136.680664062 703.200195312 -195.361328125 673.416015625 c 1
 -221.49609375 660.142578125 -240.50390625 649.439453125 -247.439453125 639 c 1
 251.327148438 639 l 1
EndSplineSet
Fore
SplineSet
-428 593 m 1,0,1
 -428 686 -428 686 -138 712 c 1,2,3
 -216 690 -216 690 -280 642 c 1,4,5
 -310 626 -310 626 -310 608 c 1,6,7
 -310 578 -310 578 -225.5 560.5 c 129,-1,8
 -141 543 -141 543 0 543 c 129,-1,9
 141 543 141 543 225.5 560.5 c 129,-1,10
 310 578 310 578 310 608 c 1,11,12
 310 626 310 626 280 642 c 1,13,14
 216 690 216 690 138 712 c 1,15,16
 428 686 428 686 428 593 c 1,17,18
 428 534 428 534 308.5 494.5 c 129,-1,19
 189 455 189 455 0 455 c 129,-1,20
 -189 455 -189 455 -308.5 494.5 c 129,-1,21
 -428 534 -428 534 -428 593 c 1,0,1
EndSplineSet
Colour: ffff
EndChar

StartChar: SmilingFaceWithHalo.0
Encoding: 141 -1 70
Width: 0
Flags: MW
LayerCount: 2
Fore
SplineSet
-282 641 m 1,0,1
 -282 684 -282 684 -154 710 c 1,2,3
 -106 716 -106 716 0 717 c 1,4,5
 106 716 106 716 154 710 c 1,6,7
 282 684 282 684 282 641 c 1,8,9
 207 681 207 681 0 686 c 1,10,11
 -207 681 -207 681 -282 641 c 1,0,1
EndSplineSet
Colour: ffff
EndChar

StartChar: mouth_melting
Encoding: 55 -1 71
Width: 0
Flags: MW
LayerCount: 2
Back
SplineSet
449.921875 144.415039062 m 0
 431.825195312 144.415039062 413.825195312 146.288085938 396.064453125 150.03125 c 0
 331.43359375 163.735351562 275.9921875 200.791992188 243.953125 251.696289062 c 0
 241.73046875 255.333007812 240.451171875 259.608398438 240.451171875 264.178710938 c 0
 240.451171875 277.42578125 251.204101562 288.178710938 264.451171875 288.178710938 c 0
 272.88671875 288.178710938 280.28125 283.868164062 284.560546875 277.280273438 c 0
 309.352539062 237.872070312 354.760742188 207.872070312 406 197 c 0
 448.41015625 188 514.16796875 187.568359375 586.864257812 236.407226562 c 0
 590.6875 238.9765625 595.28515625 240.4765625 600.233398438 240.4765625 c 0
 613.48046875 240.4765625 624.235351562 229.720703125 624.235351562 216.473632812 c 0
 624.235351562 208.172851562 620.061523438 200.87890625 613.6484375 196.568359375 c 0
 562.552734375 162.249023438 505.9140625 144.415039062 449.921875 144.415039062 c 0
EndSplineSet
Fore
SplineSet
18 144 m 1,0,1
 -45 144 -45 144 -100.5 173 c 129,-1,2
 -156 202 -156 202 -187 250 c 1,3,4
 -192 257 -192 257 -191.5 266 c 129,-1,5
 -191 275 -191 275 -184.5 281.5 c 129,-1,6
 -178 288 -178 288 -168 288 c 257,7,8
 -155 288 -155 288 -148 278 c 1,9,10
 -123 239 -123 239 -77.5 215.5 c 129,-1,11
 -32 192 -32 192 18 192 c 1,12,13
 88 192 88 192 154 236 c 1,14,15
 162 241 162 241 170 240.5 c 129,-1,16
 178 240 178 240 185 233.5 c 129,-1,17
 192 227 192 227 192 216 c 1,18,19
 192 203 192 203 179 195 c 1,20,21
 101 144 101 144 18 144 c 1,0,1
EndSplineSet
Colour: ffff00
EndChar

StartChar: FaceSavoringFood.1
Encoding: 163 -1 72
Width: 0
Flags: MW
LayerCount: 2
Back
SplineSet
-432 288 m 0
 -432 49.4130859375 -238.586914062 -144 0 -144 c 0
 238.586914062 -144 432 49.4130859375 432 288 c 0
 432 526.586914062 238.586914062 720 0 720 c 0
 -238.586914062 720 -432 526.586914062 -432 288 c 0
-264.0234375 312 m 0
 -267.623046875 312 -271.295898438 312.815429688 -274.727539062 314.51953125 c 0
 -286.583984375 320.447265625 -291.384765625 334.873046875 -285.45703125 346.727539062 c 0
 -284.208007812 349.247070312 -253.823242188 408 -168 408 c 0
 -82.1533203125 408 -51.7919921875 349.223632812 -50.54296875 346.727539062 c 0
 -44.615234375 334.873046875 -49.439453125 320.447265625 -61.2724609375 314.51953125 c 0
 -73.056640625 308.591796875 -87.3115234375 313.342773438 -93.3349609375 324.984375 c 0
 -94.392578125 326.927734375 -113.280273438 360 -168 360 c 0
 -223.607421875 360 -242.376953125 325.607421875 -242.54296875 325.272460938 c 0
 -246.743164062 316.846679688 -255.215820312 312 -264.0234375 312 c 0
264 312 m 0
 267.599609375 312 271.272460938 312.815429688 274.704101562 314.51953125 c 0
 286.560546875 320.447265625 291.361328125 334.873046875 285.431640625 346.727539062 c 0
 284.184570312 349.247070312 253.799804688 408 167.9765625 408 c 0
 82.126953125 408 51.7685546875 349.223632812 50.51953125 346.727539062 c 0
 44.591796875 334.873046875 49.416015625 320.447265625 61.2470703125 314.51953125 c 0
 73.03125 308.591796875 87.2880859375 313.342773438 93.3115234375 324.984375 c 0
 94.369140625 326.927734375 113.256835938 360 167.9765625 360 c 0
 223.583984375 360 242.353515625 325.607421875 242.51953125 325.272460938 c 0
 246.719726562 316.846679688 255.192382812 312 264 312 c 0
276.072265625 155.51953125 m 0
 283.823242188 173.49609375 287.134765625 185.688476562 287.256835938 186.168945312 c 0
 290.47265625 198.984375 282.696289062 211.96875 269.857421875 215.208007812 c 0
 256.9921875 218.47265625 244.0078125 210.696289062 240.696289062 197.857421875 c 0
 238.919921875 190.776367188 193.943359375 24 0 24 c 0
 -193.943359375 24 -238.919921875 190.776367188 -240.719726562 197.880859375 c 0
 -244.03125 210.696289062 -257.015625 218.47265625 -269.880859375 215.231445312 c 0
 -282.696289062 211.9921875 -290.47265625 199.0078125 -287.280273438 186.192382812 c 0
 -286.752929688 184.080078125 -232.056640625 -24 0 -24 c 0
 39.599609375 -24 73.6806640625 -17.615234375 103.560546875 -7.560546875 c 0
 207.48046875 27.431640625 256.53515625 110.280273438 276.072265625 155.51953125 c 0
345.768554688 79.6572265625 m 2
 274.823242188 152.880859375 l 1
 274.823242188 152.880859375 258.50390625 163.392578125 244.272460938 139.247070312 c 0
 225.552734375 107.51953125 194.47265625 68.8076171875 149.857421875 39.142578125 c 0
 131.111328125 26.6884765625 98.51953125 10.607421875 85.126953125 7.51171875 c 0
 67.48828125 3.45703125 75.8154296875 -15.623046875 75.8154296875 -15.623046875 c 1
 89.857421875 -12.576171875 101.0390625 -8.400390625 101.0390625 -8.400390625 c 1
 108.142578125 -15.50390625 l 1
 173.568359375 -80.927734375 l 2
 215.0390625 -122.400390625 293.568359375 -128.927734375 341.568359375 -80.927734375 c 0
 389.568359375 -32.927734375 387.264648438 38.1611328125 345.768554688 79.6572265625 c 2
285.9609375 -25.7763671875 m 0
 291.072265625 -20.6650390625 291.072265625 -12.384765625 285.9609375 -7.2724609375 c 2
 198.865234375 79.8232421875 l 1
 179.760742188 61.873046875 l 1
 267.431640625 -25.7998046875 l 2
 272.54296875 -30.888671875 280.846679688 -30.888671875 285.9609375 -25.7763671875 c 0
EndSplineSet
Fore
Refer: 6 -1 N 1 0 0 1 0 0 0
Refer: 78 -1 N 1 0 0 1 168 384 0
Refer: 78 -1 N 1 0 0 1 -168 384 0
Colour: ffff
EndChar

StartChar: FaceWithTongue.1
Encoding: 166 -1 73
Width: 0
Flags: MW
LayerCount: 2
Back
SplineSet
432 288 m 0
 432 49.416015625 238.583984375 -144 0 -144 c 0
 -238.560546875 -144 -432 49.416015625 -432 288 c 0
 -432 526.560546875 -238.560546875 720 0 720 c 0
 238.583984375 720 432 526.560546875 432 288 c 1024
-216 372 m 0
 -216 325.607421875 -189.135742188 288 -156 288 c 0
 -122.864257812 288 -96 325.607421875 -96 372 c 0
 -96 418.392578125 -122.864257812 456 -156 456 c 0
 -189.135742188 456 -216 418.392578125 -216 372 c 0
96 372 m 0
 96 325.607421875 122.864257812 288 156 288 c 0
 189.135742188 288 216 325.607421875 216 372 c 0
 216 418.392578125 189.135742188 456 156 456 c 0
 122.864257812 456 96 418.392578125 96 372 c 0
-264 209.711914062 m 1
 -264 114.576171875 -153.696289062 -6.2880859375 0 -6.2880859375 c 0
 153.696289062 -6.2880859375 264 113.711914062 264 209.711914062 c 1
 264 209.711914062 16.0078125 143.568359375 -264 209.711914062 c 1
13.080078125 153.50390625 m 2
 -13.103515625 153.623046875 l 2
 -90.2880859375 155.400390625 -144 167.927734375 -144 167.927734375 c 1
 -144 0.865234375 l 2
 -144 -71.134765625 -96 -143.134765625 0 -143.134765625 c 0
 96 -143.134765625 144 -71.134765625 144 0.865234375 c 2
 144 166.943359375 l 1
 97.873046875 157.48828125 53.111328125 153.935546875 13.080078125 153.50390625 c 2
0 -44.2314453125 m 0
 7.2236328125 -44.2314453125 13.080078125 -38.376953125 13.080078125 -31.1533203125 c 2
 13.080078125 153.50390625 l 1
 -13.103515625 153.623046875 l 1
 -13.103515625 -31.1533203125 l 2
 -13.080078125 -38.376953125 -7.2236328125 -44.2314453125 0 -44.2314453125 c 0
EndSplineSet
Fore
Refer: 79 -1 N 1 0 0 1 0 -6 0
Refer: 92 -1 N 1 0 0 1 0 48 0
Colour: ffff
EndChar

StartChar: WinkingFaceWithTongue.3
Encoding: 169 -1 74
Width: 0
Flags: MW
LayerCount: 2
Back
SplineSet
432 288 m 0
 432 49.416015625 238.583984375 -144 0 -144 c 0
 -238.560546875 -144 -432 49.416015625 -432 288 c 0
 -432 526.560546875 -238.560546875 720 0 720 c 0
 238.583984375 720 432 526.560546875 432 288 c 1024
-61.03125 340.439453125 m 0
 -62.47265625 343.680664062 -97.0078125 419.568359375 -168 419.568359375 c 0
 -238.96875 419.568359375 -273.52734375 343.680664062 -274.96875 340.439453125 c 0
 -277.176757812 335.47265625 -275.735351562 329.665039062 -271.51171875 326.256835938 c 0
 -267.264648438 322.823242188 -261.264648438 322.727539062 -256.873046875 325.919921875 c 0
 -256.560546875 326.134765625 -226.583984375 347.568359375 -168 347.568359375 c 0
 -109.776367188 347.568359375 -79.8232421875 326.423828125 -79.1533203125 325.943359375 c 0
 -77.0390625 324.361328125 -74.51953125 323.568359375 -72 323.568359375 c 0
 -69.361328125 323.568359375 -66.6962890625 324.45703125 -64.53515625 326.184570312 c 0
 -60.2392578125 329.591796875 -58.8232421875 335.447265625 -61.03125 340.439453125 c 0
312 396 m 0
 312 309.838867188 242.161132812 240 156 240 c 0
 69.8388671875 240 0 309.838867188 0 396 c 0
 0 482.161132812 69.8388671875 552 156 552 c 0
 242.161132812 552 312 482.161132812 312 396 c 0
96 396 m 0
 96 362.864257812 122.864257812 336 156 336 c 0
 189.135742188 336 216 362.864257812 216 396 c 0
 216 429.135742188 189.135742188 456 156 456 c 0
 122.864257812 456 96 429.135742188 96 396 c 0
-264 209.711914062 m 1
 -264 114.576171875 -153.696289062 -6.2880859375 0 -6.2880859375 c 0
 153.696289062 -6.2880859375 264 113.711914062 264 209.711914062 c 1
 264 209.711914062 16.0078125 143.568359375 -264 209.711914062 c 1
13.080078125 153.50390625 m 2
 -13.103515625 153.623046875 l 2
 -90.2880859375 155.400390625 -144 167.927734375 -144 167.927734375 c 1
 -144 0.865234375 l 2
 -144 -71.134765625 -96 -143.134765625 0 -143.134765625 c 0
 96 -143.134765625 144 -71.134765625 144 0.865234375 c 2
 144 166.943359375 l 1
 97.873046875 157.48828125 53.111328125 153.935546875 13.080078125 153.50390625 c 2
0 -44.2314453125 m 0
 7.2236328125 -44.2314453125 13.080078125 -38.376953125 13.080078125 -31.1533203125 c 2
 13.080078125 153.50390625 l 1
 -13.103515625 153.623046875 l 1
 -13.103515625 -31.1533203125 l 2
 -13.080078125 -38.376953125 -7.2236328125 -44.2314453125 0 -44.2314453125 c 0
EndSplineSet
Fore
Refer: 79 -1 N 1 0 0 1 0 -6 0
Refer: 13 -1 N -1 0 0 -1 -168 420 0
Colour: ffff
EndChar

StartChar: ZanyFace.3
Encoding: 172 -1 75
Width: 0
Flags: MW
LayerCount: 2
Back
SplineSet
422.327148438 378.431640625 m 4
 472.319335938 145.153320312 323.735351562 -84.50390625 90.45703125 -134.49609375 c 4
 -142.823242188 -184.48828125 -372.48046875 -35.904296875 -422.47265625 197.376953125 c 4
 -472.46484375 430.657226562 -323.857421875 660.311523438 -90.599609375 710.303710938 c 4
 142.680664062 760.319335938 372.334960938 611.711914062 422.327148438 378.431640625 c 1028
270.815429688 503.711914062 m 4
 289.51171875 416.447265625 233.927734375 330.52734375 146.665039062 311.831054688 c 4
 59.400390625 293.134765625 -26.51953125 348.719726562 -45.2392578125 435.984375 c 4
 -63.935546875 523.247070312 -8.353515625 609.168945312 78.912109375 627.865234375 c 4
 166.176757812 646.560546875 252.119140625 591 270.815429688 503.711914062 c 4
54.45703125 497.015625 m 4
 54.45703125 470.015625 76.3427734375 448.126953125 103.342773438 448.126953125 c 4
 130.342773438 448.126953125 152.231445312 470.015625 152.231445312 497.015625 c 4
 152.231445312 524.015625 130.342773438 545.904296875 103.342773438 545.904296875 c 4
 76.3427734375 545.904296875 54.45703125 524.015625 54.45703125 497.015625 c 4
-93.888671875 377.231445312 m 4
 -82.943359375 326.208007812 -115.46484375 275.9765625 -166.48828125 265.03125 c 4
 -217.51171875 254.087890625 -267.743164062 286.607421875 -278.688476562 337.630859375 c 4
 -289.630859375 388.657226562 -257.111328125 438.888671875 -206.087890625 449.831054688 c 4
 -155.064453125 460.776367188 -104.831054688 428.256835938 -93.888671875 377.231445312 c 4
-83.306640625 449.51953125 m 4
 -77.9130859375 424.349609375 -53.134765625 408.318359375 -27.9658203125 413.711914062 c 4
 -2.7958984375 419.104492188 13.2353515625 443.8828125 7.83984375 469.052734375 c 4
 2.447265625 494.221679688 -22.3291015625 510.252929688 -47.498046875 504.857421875 c 4
 -72.66796875 499.46484375 -88.69921875 474.689453125 -83.306640625 449.51953125 c 4
15 217.51171875 m 4
 -70.03125 199.295898438 -128.54296875 197.111328125 -201.239257812 195.719726562 c 4
 -217.823242188 195.361328125 -248.161132812 185.665039062 -238.103515625 138.719726562 c 4
 -217.9921875 44.857421875 -85.0078125 -49.369140625 65.3037109375 -17.1611328125 c 4
 215.591796875 15.046875 298.295898438 155.49609375 278.184570312 249.361328125 c 4
 268.126953125 296.303710938 236.447265625 292.752929688 221.184570312 286.223632812 c 4
 154.319335938 257.735351562 100.03125 235.727539062 15 217.51171875 c 4
-168 143.904296875 m 5
 -168 -0.095703125 l 6
 -168 -72.095703125 -120 -144.095703125 -24 -144.095703125 c 4
 72 -144.095703125 120 -72.095703125 120 -0.095703125 c 6
 120 143.904296875 l 5
 -168 143.904296875 l 5
-24 -45.1923828125 m 4
 -16.7763671875 -45.1923828125 -10.919921875 -39.3349609375 -10.919921875 -32.111328125 c 6
 -10.919921875 118.96875 l 5
 -37.103515625 118.96875 l 5
 -37.103515625 -32.111328125 l 6
 -37.080078125 -39.3349609375 -31.2236328125 -45.1923828125 -24 -45.1923828125 c 4
-191.184570312 148.776367188 m 6
 -191.184570312 148.776367188 -115.752929688 140.400390625 25.056640625 170.568359375 c 4
 165.865234375 200.735351562 231.239257812 239.303710938 231.239257812 239.303710938 c 5
 231.239257812 239.303710938 204.431640625 135.384765625 40.1533203125 100.176757812 c 4
 -124.126953125 64.96875 -191.184570312 148.776367188 -191.184570312 148.776367188 c 6
EndSplineSet
Fore
Refer: 35 -1 N 0.977796 0.20955 -0.20955 0.977796 65 -17 0
Colour: ffff
EndChar

StartChar: SquintingFaceWithTongue.1
Encoding: 176 -1 76
Width: 0
Flags: MW
LayerCount: 2
Back
SplineSet
432 288 m 0
 432 49.416015625 238.583984375 -144 0 -144 c 0
 -238.560546875 -144 -432 49.416015625 -432 288 c 0
 -432 526.560546875 -238.560546875 720 0 720 c 0
 238.583984375 720 432 526.560546875 432 288 c 1024
-287.9765625 240 m 0
 -295.272460938 240 -302.47265625 243.311523438 -307.200195312 249.599609375 c 0
 -315.168945312 260.184570312 -313.0078125 275.231445312 -302.400390625 283.176757812 c 0
 -298.96875 285.743164062 -231.576171875 335.568359375 -137.857421875 353.568359375 c 1
 -197.256835938 383.353515625 -263.184570312 384 -264.0234375 384 c 0
 -277.272460938 384.046875 -288 394.799804688 -287.9765625 408.046875 c 0
 -287.9765625 421.272460938 -277.247070312 432 -264 432 c 0
 -258.696289062 432 -133.153320312 431.087890625 -55.03125 352.96875 c 0
 -48.1689453125 346.103515625 -46.103515625 335.784179688 -49.8232421875 326.807617188 c 0
 -53.54296875 317.831054688 -62.3037109375 312 -72 312 c 0
 -182.711914062 312 -272.711914062 245.47265625 -273.599609375 244.799804688 c 0
 -277.919921875 241.560546875 -282.984375 240 -287.9765625 240 c 0
287.9765625 240.0234375 m 0
 282.984375 240.0234375 277.943359375 241.560546875 273.623046875 244.776367188 c 0
 272.711914062 245.47265625 182.161132812 312 72 312 c 0
 62.3037109375 312 53.51953125 317.831054688 49.8232421875 326.807617188 c 0
 46.103515625 335.784179688 48.1689453125 346.103515625 55.03125 352.96875 c 0
 133.176757812 431.087890625 258.696289062 432 264 432 c 0
 277.247070312 432 287.953125 421.272460938 287.9765625 408.046875 c 0
 288 394.799804688 277.272460938 384.046875 264.046875 384 c 0
 263.184570312 384 197.256835938 383.353515625 137.857421875 353.568359375 c 1
 231.576171875 335.568359375 298.96875 285.768554688 302.376953125 283.176757812 c 0
 312.9609375 275.231445312 315.119140625 260.231445312 307.200195312 249.623046875 c 0
 302.49609375 243.361328125 295.295898438 240.0234375 287.9765625 240.0234375 c 0
-264 209.688476562 m 1
 -264 114.552734375 -153.696289062 -6.3115234375 0 -6.3115234375 c 0
 153.696289062 -6.3115234375 264 113.688476562 264 209.688476562 c 1
 264 209.688476562 16.0078125 143.54296875 -264 209.688476562 c 1
13.080078125 153.50390625 m 2
 -13.103515625 153.623046875 l 2
 -90.2880859375 155.400390625 -144 167.927734375 -144 167.927734375 c 1
 -144 0.865234375 l 2
 -144 -71.134765625 -96 -143.134765625 0 -143.134765625 c 0
 96 -143.134765625 144 -71.134765625 144 0.865234375 c 2
 144 166.943359375 l 1
 97.873046875 157.46484375 53.111328125 153.912109375 13.080078125 153.50390625 c 2
0 -44.2568359375 m 0
 7.2236328125 -44.2568359375 13.080078125 -38.400390625 13.080078125 -31.1767578125 c 2
 13.080078125 153.48046875 l 1
 -13.103515625 153.599609375 l 1
 -13.103515625 -31.1767578125 l 2
 -13.080078125 -38.400390625 -7.2236328125 -44.2568359375 0 -44.2568359375 c 0
EndSplineSet
Fore
Refer: 79 -1 N 1 0 0 1 0 -6 0
Refer: 34 -1 N -1 0 0 1 264 408 0
Refer: 34 -1 N 1 0 0 1 -264 408 0
Colour: ffff
EndChar

StartChar: MoneyMouthFace.1
Encoding: 177 -1 77
Width: 0
Flags: MW
LayerCount: 2
Back
SplineSet
432 288 m 0
 432 49.416015625 238.583984375 -144 0 -144 c 0
 -238.560546875 -144 -432 49.416015625 -432 288 c 0
 -432 526.560546875 -238.560546875 720 0 720 c 0
 238.583984375 720 432 526.560546875 432 288 c 1024
-264 209.688476562 m 1
 -264 114.552734375 -153.696289062 -6.3115234375 0 -6.3115234375 c 0
 153.696289062 -6.3115234375 264 113.688476562 264 209.688476562 c 1
 264 209.688476562 16.0078125 143.54296875 -264 209.688476562 c 1
-144 167.927734375 m 2
 -144 0.865234375 l 2
 -144 -71.134765625 -96 -143.134765625 0 -143.134765625 c 0
 96 -143.134765625 144 -71.134765625 144 0.865234375 c 2
 144 166.943359375 l 1
 -6.984375 135.935546875 -144 167.927734375 -144 167.927734375 c 2
-137.184570312 424.080078125 m 0
 -155.327148438 431.087890625 -172.48828125 437.711914062 -172.48828125 447.311523438 c 0
 -172.48828125 463.126953125 -151.272460938 463.943359375 -147.0234375 463.943359375 c 0
 -132.0234375 463.943359375 -124.560546875 458.327148438 -117.984375 453.361328125 c 0
 -112.943359375 449.54296875 -107.711914062 445.607421875 -100.439453125 445.607421875 c 0
 -86.904296875 445.607421875 -80.7353515625 455.134765625 -80.7353515625 463.9921875 c 0
 -80.7353515625 481.657226562 -102.384765625 494.134765625 -125.327148438 499.369140625 c 2
 -125.327148438 508.799804688 l 2
 -125.327148438 521.231445312 -135.431640625 531.334960938 -147.865234375 531.334960938 c 0
 -160.295898438 531.334960938 -170.400390625 521.231445312 -170.400390625 508.799804688 c 2
 -170.400390625 498.576171875 l 2
 -197.857421875 490.583984375 -214.680664062 470.400390625 -214.680664062 444.935546875 c 0
 -214.680664062 413.47265625 -183.646484375 400.560546875 -156.264648438 389.184570312 c 0
 -136.657226562 381.0234375 -118.126953125 373.319335938 -118.126953125 361.295898438 c 0
 -118.126953125 352.51171875 -129.168945312 343.0078125 -147 343.0078125 c 0
 -165 343.0078125 -175.319335938 350.208007812 -184.439453125 356.54296875 c 0
 -190.727539062 360.935546875 -196.680664062 365.087890625 -203.784179688 365.087890625 c 0
 -214.103515625 365.087890625 -222.168945312 356.400390625 -222.168945312 345.311523438 c 0
 -222.168945312 329.015625 -199.823242188 312.768554688 -170.400390625 307.056640625 c 2
 -170.400390625 295.776367188 l 2
 -170.400390625 283.342773438 -160.295898438 273.264648438 -147.865234375 273.264648438 c 0
 -135.431640625 273.264648438 -125.327148438 283.369140625 -125.327148438 295.776367188 c 2
 -125.447265625 307.727539062 l 2
 -94.3427734375 315.288085938 -75.9609375 337.056640625 -75.9609375 366.743164062 c 0
 -75.935546875 400.439453125 -109.896484375 413.54296875 -137.184570312 424.080078125 c 0
208.657226562 366.334960938 m 0
 208.657226562 400.03125 174.696289062 413.134765625 147.408203125 423.672851562 c 0
 129.264648438 430.680664062 112.126953125 437.303710938 112.126953125 446.904296875 c 0
 112.126953125 462.719726562 133.342773438 463.53515625 137.591796875 463.53515625 c 0
 152.591796875 463.53515625 160.03125 457.919921875 166.630859375 452.953125 c 0
 171.696289062 449.134765625 176.904296875 445.200195312 184.153320312 445.200195312 c 0
 197.711914062 445.200195312 203.880859375 454.727539062 203.880859375 463.583984375 c 0
 203.880859375 481.272460938 182.231445312 493.727539062 159.288085938 498.9609375 c 2
 159.288085938 508.369140625 l 2
 159.288085938 520.799804688 149.161132812 530.904296875 136.752929688 530.904296875 c 0
 124.319335938 530.904296875 114.192382812 520.799804688 114.192382812 508.369140625 c 2
 114.192382812 498.142578125 l 2
 86.7607421875 490.153320312 69.912109375 469.96875 69.912109375 444.50390625 c 0
 69.912109375 413.0390625 100.943359375 400.126953125 128.327148438 388.752929688 c 0
 147.935546875 380.591796875 166.46484375 372.888671875 166.46484375 360.865234375 c 0
 166.46484375 352.080078125 155.447265625 342.576171875 137.615234375 342.576171875 c 0
 119.615234375 342.576171875 109.295898438 349.776367188 100.200195312 356.111328125 c 0
 93.888671875 360.50390625 87.935546875 364.657226562 80.857421875 364.657226562 c 0
 70.51171875 364.657226562 62.447265625 355.96875 62.447265625 344.880859375 c 0
 62.447265625 328.583984375 84.7919921875 312.334960938 114.192382812 306.623046875 c 2
 114.192382812 295.342773438 l 2
 114.192382812 282.935546875 124.342773438 272.831054688 136.776367188 272.831054688 c 0
 149.208007812 272.831054688 159.288085938 282.935546875 159.288085938 295.342773438 c 2
 159.215820312 307.295898438 l 2
 190.295898438 314.904296875 208.657226562 336.646484375 208.657226562 366.334960938 c 0
71.2802734375 -25.6572265625 m 0
 71.2802734375 7.1767578125 38.1845703125 19.96875 11.591796875 30.2392578125 c 0
 -6.095703125 37.056640625 -22.8232421875 43.53515625 -22.8232421875 52.873046875 c 0
 -22.8232421875 68.3037109375 -2.1611328125 69.072265625 1.9921875 69.072265625 c 0
 16.607421875 69.072265625 23.880859375 63.576171875 30.3115234375 58.7529296875 c 0
 35.2314453125 55.03125 40.3427734375 51.1923828125 47.423828125 51.1923828125 c 0
 60.623046875 51.1923828125 66.646484375 60.50390625 66.646484375 69.119140625 c 0
 66.646484375 86.3271484375 45.552734375 98.49609375 23.1611328125 103.607421875 c 2
 23.1611328125 112.799804688 l 2
 23.1611328125 124.919921875 13.2958984375 134.784179688 1.1767578125 134.784179688 c 0
 -10.943359375 134.784179688 -20.8076171875 124.919921875 -20.8076171875 112.799804688 c 2
 -20.8076171875 102.838867188 l 2
 -47.568359375 95.064453125 -63.984375 75.361328125 -63.984375 50.54296875 c 0
 -63.984375 19.873046875 -33.7197265625 7.2724609375 -7.03125 -3.8154296875 c 0
 12.095703125 -11.7607421875 30.142578125 -19.2724609375 30.142578125 -30.984375 c 0
 30.142578125 -39.552734375 19.392578125 -48.8154296875 1.9921875 -48.8154296875 c 0
 -15.552734375 -48.8154296875 -25.607421875 -41.8076171875 -34.48828125 -35.591796875 c 0
 -40.607421875 -31.3193359375 -46.416015625 -27.2646484375 -53.3271484375 -27.2646484375 c 0
 -63.384765625 -27.2646484375 -71.2802734375 -35.7607421875 -71.2802734375 -46.560546875 c 0
 -71.2802734375 -62.47265625 -49.51171875 -78.2880859375 -20.8310546875 -83.857421875 c 2
 -20.8310546875 -94.873046875 l 2
 -20.8310546875 -106.96875 -10.96875 -116.807617188 1.1767578125 -116.807617188 c 0
 13.2958984375 -116.807617188 23.134765625 -106.96875 23.134765625 -94.873046875 c 2
 23.064453125 -83.2080078125 l 2
 53.376953125 -75.7919921875 71.2802734375 -54.576171875 71.2802734375 -25.6572265625 c 0
EndSplineSet
Fore
Refer: 79 -1 N 1 0 0 1 0 -6 0
Refer: 86 -1 N 0.25 0 0 0.25 137 273 0
Refer: 86 -1 N 0.25 0 0 0.25 -148 273 0
Colour: ffff
EndChar

StartChar: eye_smiling2
Encoding: 34 -1 78
Width: 0
GlyphClass: 5
Flags: MW
LayerCount: 2
Back
SplineSet
-74.51953125 -58.7099609375 m 1
 -74.51953125 -58.7099609375 -74.515625 -58.7119140625 -74.5439453125 -58.7578125 c 0
 -78.455078125 -66.5888671875 -86.599609375 -72.0029296875 -95.998046875 -72.0029296875 c 0
 -109.245117188 -72.0029296875 -120 -61.248046875 -120 -48.0009765625 c 0
 -120 -44.15234375 -119.092773438 -40.515625 -117.48046875 -37.2900390625 c 4
 -116.953125 -36.2353515625 -114.794921875 -32.0966796875 -110.498046875 -26.3369140625 c 0
 -107.0625 -21.7314453125 -102.251953125 -16.0830078125 -95.8056640625 -10.22265625 c 0
 -87.751953125 -2.900390625 -77.12109375 4.748046875 -63.640625 10.931640625 c 0
 -54.28515625 15.224609375 -43.5771484375 18.7978515625 -31.51953125 21.109375 c 0
 -21.873046875 22.9580078125 -11.3681640625 24 0 24 c 0
 11.3681640625 24 21.873046875 22.9580078125 31.51953125 21.109375 c 0
 43.5771484375 18.7978515625 54.28515625 15.224609375 63.640625 10.931640625 c 0
 77.12109375 4.748046875 87.751953125 -2.900390625 95.8056640625 -10.22265625 c 0
 102.251953125 -16.0830078125 107.0625 -21.7314453125 110.498046875 -26.3369140625 c 0
 114.794921875 -32.0966796875 116.953125 -36.2353515625 117.48046875 -37.2900390625 c 0
 119.092773438 -40.515625 120 -44.15234375 120 -48.0009765625 c 0
 120 -61.248046875 109.245117188 -72.0029296875 95.998046875 -72.0029296875 c 0
 86.599609375 -72.0029296875 78.455078125 -66.5888671875 74.5439453125 -58.7578125 c 0
 74.515625 -58.7119140625 74.51953125 -58.7099609375 74.51953125 -58.7099609375 c 1
 74.6640625 -58.9931640625 l 1
 74.6640625 -58.9931640625 74.689453125 -59.0400390625 74.6796875 -59.021484375 c 0
 74.669921875 -59.0029296875 74.255859375 -58.240234375 73.4013671875 -56.9697265625 c 0
 72.6328125 -55.826171875 71.5078125 -54.271484375 70.0048828125 -52.470703125 c 0
 66.9560546875 -48.8193359375 62.373046875 -44.1796875 55.98046875 -39.7314453125 c 0
 49.5830078125 -35.28125 41.3642578125 -30.984375 30.71484375 -27.9814453125 c 0
 22.1923828125 -25.5791015625 12.0732421875 -24 0 -24 c 0
 -12.0732421875 -24 -22.1923828125 -25.5791015625 -30.71484375 -27.9814453125 c 0
 -41.3642578125 -30.984375 -49.5830078125 -35.28125 -55.98046875 -39.7314453125 c 0
 -62.373046875 -44.1796875 -66.9560546875 -48.8193359375 -70.0048828125 -52.470703125 c 0
 -71.5078125 -54.271484375 -72.6328125 -55.826171875 -73.4013671875 -56.9697265625 c 0
 -74.255859375 -58.240234375 -74.669921875 -59.0029296875 -74.6796875 -59.021484375 c 0
 -74.689453125 -59.0400390625 -74.6640625 -58.9931640625 -74.6640625 -58.9931640625 c 1
 -74.51953125 -58.7099609375 l 1
EndSplineSet
Fore
SplineSet
0 24 m 129,-1,1
 68 24 68 24 108 -23 c 1,2,3
 112 -28 112 -28 115 -33 c 1,4,5
 120 -40 120 -40 120 -48 c 1,6,7
 120 -58 120 -58 113 -65 c 129,-1,8
 106 -72 106 -72 96 -72 c 1,9,10
 82 -72 82 -72 74 -58 c 1,11,12
 70 -52 70 -52 66 -48 c 1,13,14
 41 -24 41 -24 0 -24 c 129,-1,15
 -41 -24 -41 -24 -66 -48 c 1,16,17
 -70 -52 -70 -52 -74 -58 c 1,18,19
 -82 -72 -82 -72 -96 -72 c 1,20,21
 -106 -72 -106 -72 -113 -65 c 129,-1,22
 -120 -58 -120 -58 -120 -48 c 1,23,24
 -120 -40 -120 -40 -115 -33 c 1,25,26
 -112 -28 -112 -28 -108 -23 c 1,27,0
 -68 24 -68 24 0 24 c 129,-1,1
EndSplineSet
Colour: ff00ff
EndChar

StartChar: mouth_tongue
Encoding: 56 -1 79
Width: 0
GlyphClass: 5
Flags: MW
LayerCount: 2
Back
SplineSet
-264 180 m 1
 16.0078125 113.857421875 264 180 264 180 c 1
 264 84 153.696289062 -36 0 -36 c 0
 -153.696289062 -36 -264 84.865234375 -264 180 c 1
EndSplineSet
Fore
SplineSet
0 0 m 129,-1,1
 -71 0 -71 0 -132 32.5 c 129,-1,2
 -193 65 -193 65 -228.5 116 c 129,-1,3
 -264 167 -264 167 -264 216 c 1,4,5
 -137 186 -137 186 1.5 186.5 c 129,-1,6
 140 187 140 187 264 216 c 1,7,8
 264 167 264 167 228.5 116 c 129,-1,9
 193 65 193 65 132 32.5 c 129,-1,0
 71 0 71 0 0 0 c 129,-1,1
EndSplineSet
Colour: ff00ff
EndChar

StartChar: eyebrow_peeking
Encoding: 17 -1 80
Width: 0
GlyphClass: 5
Flags: MW
LayerCount: 2
Back
SplineSet
7.99273168405 22.6347464334 m 1
 7.99273168405 22.6347464334 7.99358973731 22.6371763683 7.99662501831 22.6371763683 c 0
 7.99925474073 22.6371763683 8.00351874091 22.6353524026 8.01027491607 22.6285439577 c 0
 17.3189543536 19.3469464927 24.0059819515 10.4503464571 24.0059819515 0.00423220990231 c 0
 24.0059819515 -13.2442044992 13.2499311777 -24.000255273 0.00149446861617 -24.000255273 c 0
 -2.80082799331 -24.000255273 -5.491638293 -23.519017411 -7.99273168405 -22.6347464334 c 0
 -27.9978137389 -15.5618744129 -49.5204200747 -11.712890625 -71.9345703125 -11.712890625 c 0
 -84.3869917943 -11.712890625 -96.6132187894 -12.9017754444 -108.446668947 -15.1718322793 c 0
 -117.913387764 -16.9878698226 -127.128259472 -19.4955394535 -136.007268316 -22.6347464334 c 0
 -138.508361707 -23.519017411 -141.199172007 -24.000255273 -144.001494469 -24.000255273 c 0
 -157.249931178 -24.000255273 -168.005981952 -13.2442044992 -168.005981952 0.00423220990232 c 0
 -168.005981952 10.4503464571 -161.318954354 19.3469464927 -152.010274916 22.6285439577 c 0
 -152.003518741 22.6353524026 -151.999254741 22.6371763683 -151.996625018 22.6371763683 c 0
 -151.993589737 22.6371763683 -151.992731684 22.6347464334 -151.992731684 22.6347464334 c 1
 -140.866532194 26.5684561202 -129.350115323 29.7008327856 -117.529046931 31.9685143781 c 0
 -102.752763078 34.803106463 -87.4997269557 36.287109375 -71.9345703125 36.287109375 c 0
 -43.9170799253 36.287109375 -17.0139050111 31.4759369129 7.99273168405 22.6347464334 c 1
0 0 m 0
 -22.505859375 7.95703125 -46.71875 12.287109375 -71.9345703125 12.287109375 c 0
 -97.150390625 12.287109375 -121.494140625 7.95703125 -144 0 c 1024
EndSplineSet
Fore
SplineSet
24 0 m 129,-1,1
 24 -10 24 -10 17 -17 c 129,-1,2
 10 -24 10 -24 0 -24 c 1,3,4
 -5 -24 -5 -24 -10 -22 c 1,5,6
 -38 -12 -38 -12 -72 -12 c 129,-1,7
 -106 -12 -106 -12 -134 -22 c 1,8,9
 -139 -24 -139 -24 -144 -24 c 1,10,11
 -154 -24 -154 -24 -161 -17 c 129,-1,12
 -168 -10 -168 -10 -168 0 c 129,-1,13
 -168 10 -168 10 -161 17 c 1,14,15
 -157 21 -157 21 -151 23 c 1,16,17
 -114 36 -114 36 -72 36 c 129,-1,18
 -30 36 -30 36 7 23 c 1,19,20
 13 21 13 21 17 17 c 1,21,0
 24 10 24 10 24 0 c 129,-1,1
EndSplineSet
Colour: ff00ff
EndChar

StartChar: eyebrow_angry
Encoding: 18 -1 81
Width: 0
GlyphClass: 5
Flags: MW
LayerCount: 2
Back
SplineSet
0 -24 m 1
 0 -24 0 -24 -1.44000000101e-08 -24 c 0
 -13.24596 -24 -24 -13.24596 -24 0 c 0
 -24 13.24596 -13.24596 24 -3.19809031316e-24 24 c 0
 0.419735792634 23.9999999999 4.41496027301 23.989770544 11.1572677201 23.595637217 c 0
 16.5513023284 23.2803195275 23.7036768799 22.7193259896 32.1941146051 21.7165183843 c 0
 40.6847075157 20.71369245 50.5135381086 19.2693418159 61.2643120602 17.1792112869 c 0
 69.8650536679 15.5070830581 79.0561983484 13.4215825987 88.6259242892 10.8116573422 c 0
 100.587951538 7.54928627426 113.143044361 3.46839167592 125.873060784 -1.66768685401 c 0
 136.056888497 -5.77647486636 146.354047863 -10.5614357634 156.538894332 -16.1559288942 c 0
 166.723025589 -21.7500291622 176.796965307 -28.1551050792 186.508116045 -35.5075702485 c 0
 194.276373174 -41.3890400674 201.812039253 -47.8775692535 208.967235 -55.032765 c 0
 213.310638137 -59.3761681374 215.998620949 -65.3749916006 215.998620949 -71.9966729041 c 0
 215.998620949 -85.2400355109 205.246689703 -95.991966757 192.003327096 -95.991966757 c 0
 185.381645793 -95.991966757 179.382822329 -93.3039839455 175.032765 -88.967235 c 0
 169.545985438 -83.4804554379 163.699770932 -78.4368672299 157.573593067 -73.7986414836 c 0
 149.916700061 -68.0014871965 141.821729771 -62.8388527645 133.480129417 -58.2568469361 c 0
 125.139244274 -53.6752339704 116.553850425 -49.6756930235 107.942347983 -46.2012785894 c 0
 97.17820171 -41.8583540612 86.3754178669 -38.33727591 75.9831292088 -35.5030153669 c 0
 67.6694024238 -33.2356353346 59.6193732644 -31.4072488338 52.0652645797 -29.938603576 c 0
 42.6224756658 -28.1027672468 33.9551239362 -26.8291408252 26.5141897974 -25.9502903364 c 0
 19.0731004732 -25.0714215186 12.8586032484 -24.5870392658 8.31769608342 -24.3215926271 c 0
 3.27207661097 -24.0266421513 0.292736301292 -24.0018538983 -0.0121652881564 -24.0000876498 c 0
 -0.0341051786745 -23.9999605553 -0.0417835623643 -23.9999018397 -0.0417835623643 -23.9998819109 c 0
 -0.0417835623643 -23.9998761576 -0.041143608527 -23.9998736369 -0.0400220990498 -23.9998736369 c 0
 -0.0320814562384 -23.9998736369 0 -24 0 -24 c 1
0 0 m 0
 0 0 120 0 192 -72 c 1024
EndSplineSet
Fore
SplineSet
-24 0 m 129,-1,1
 -24 10 -24 10 -17 17 c 129,-1,2
 -10 24 -10 24 0 24 c 1,3,4
 53 23 53 23 110.5 4 c 129,-1,5
 168 -15 168 -15 209 -55 c 1,6,7
 216 -62 216 -62 216 -72 c 129,-1,8
 216 -82 216 -82 209 -89 c 129,-1,9
 202 -96 202 -96 192 -96 c 129,-1,10
 182 -96 182 -96 175 -89 c 1,11,12
 144 -58 144 -58 95 -41.5 c 129,-1,13
 46 -25 46 -25 -0 -24 c 1,14,15
 -10 -24 -10 -24 -17 -17 c 129,-1,0
 -24 -10 -24 -10 -24 0 c 129,-1,1
EndSplineSet
Colour: ff00ff
EndChar

StartChar: FaceSavoringFood.2
Encoding: 164 -1 82
Width: 0
Flags: MW
LayerCount: 2
Back
SplineSet
345.768554688 79.6572265625 m 1
 387.264648438 38.1611328125 389.568359375 -32.927734375 341.568359375 -80.927734375 c 0
 293.568359375 -128.927734375 215.0390625 -122.400390625 173.568359375 -80.927734375 c 2
 108.142578125 -15.50390625 l 1
 101.0390625 -8.400390625 l 1
 101.0390625 -8.400390625 89.857421875 -12.576171875 75.8154296875 -15.623046875 c 1
 75.8154296875 -15.623046875 67.48828125 3.45703125 85.126953125 7.51171875 c 0
 98.51953125 10.607421875 131.111328125 26.6884765625 149.857421875 39.142578125 c 0
 194.47265625 68.8076171875 225.552734375 107.51953125 244.272460938 139.247070312 c 0
 258.50390625 163.392578125 274.823242188 152.880859375 274.823242188 152.880859375 c 1
 345.768554688 79.6572265625 l 1
EndSplineSet
Fore
SplineSet
74.5 -1.5 m 129,-1,1
 76 6 76 6 87 8 c 1,2,3
 134 24 134 24 175 58 c 129,-1,4
 216 92 216 92 244 139 c 1,5,6
 251 150 251 150 258.5 153.5 c 129,-1,7
 266 157 266 157 275 153 c 9,8,-1
 346 80 l 17,9,10
 377 48 377 48 377 2 c 129,-1,11
 377 -44 377 -44 343.5 -79 c 129,-1,12
 310 -114 310 -114 259.5 -114.5 c 129,-1,13
 209 -115 209 -115 174 -81 c 9,14,-1
 101 -8 l 1,15,-1
 76 -16 l 1,16,0
 73 -9 73 -9 74.5 -1.5 c 129,-1,1
EndSplineSet
Colour: ffff
EndChar

StartChar: FaceSavoringFood.3
Encoding: 165 -1 83
Width: 0
Flags: MW
LayerCount: 2
Back
SplineSet
285.9609375 -25.7763671875 m 0
 280.846679688 -30.888671875 272.54296875 -30.888671875 267.431640625 -25.7998046875 c 2
 179.760742188 61.873046875 l 1
 198.865234375 79.8232421875 l 1
 285.9609375 -7.2724609375 l 2
 291.072265625 -12.384765625 291.072265625 -20.6650390625 285.9609375 -25.7763671875 c 0
EndSplineSet
Fore
SplineSet
180 62 m 1,0,-1
 199 80 l 1,1,-1
 286 -7 l 17,2,3
 290 -11 290 -11 290 -16.5 c 129,-1,4
 290 -22 290 -22 286 -26 c 129,-1,5
 282 -30 282 -30 276.5 -30 c 129,-1,6
 271 -30 271 -30 267 -26 c 9,7,-1
 180 62 l 1,0,-1
EndSplineSet
Colour: ffff
EndChar

StartChar: ZanyFace.4
Encoding: 173 -1 84
Width: 0
Flags: MW
LayerCount: 2
Back
SplineSet
-168 143.904296875 m 5
 -168 -0.095703125 l 6
 -168 -72.095703125 -120 -144.095703125 -24 -144.095703125 c 4
 72 -144.095703125 120 -72.095703125 120 -0.095703125 c 6
 120 143.904296875 l 5
 -168 143.904296875 l 5
EndSplineSet
Fore
SplineSet
-168 0 m 9,0,-1
 -168 144 l 1,1,-1
 120 144 l 1,2,-1
 120 0 l 17,3,4
 120 -60 120 -60 81 -102 c 129,-1,5
 42 -144 42 -144 -24 -144 c 129,-1,6
 -90 -144 -90 -144 -129 -102 c 129,-1,7
 -168 -60 -168 -60 -168 0 c 9,0,-1
EndSplineSet
Colour: ffff
EndChar

StartChar: ZanyFace.5
Encoding: 174 -1 85
Width: 0
Flags: MW
LayerCount: 2
Back
SplineSet
-24 -45.1923828125 m 4
 -16.7763671875 -45.1923828125 -10.919921875 -39.3349609375 -10.919921875 -32.111328125 c 6
 -10.919921875 118.96875 l 5
 -37.103515625 118.96875 l 5
 -37.103515625 -32.111328125 l 6
 -37.080078125 -39.3349609375 -31.2236328125 -45.1923828125 -24 -45.1923828125 c 4
EndSplineSet
Fore
SplineSet
-37 -32 m 2,0,-1
 -37 119 l 1,1,-1
 -11 119 l 1,2,-1
 -11 -32 l 2,3,4
 -11 -37 -11 -37 -14.5 -41 c 128,-1,5
 -18 -45 -18 -45 -24 -45 c 128,-1,6
 -30 -45 -30 -45 -33.5 -41 c 128,-1,7
 -37 -37 -37 -37 -37 -32 c 2,0,-1
EndSplineSet
Colour: ffff
EndChar

StartChar: dollarsignchar
Encoding: 5 -1 86
Width: 0
Flags: MW
LayerCount: 2
Back
SplineSet
0 0 m 4
 -49.7275390625 0 -90.142578125 40.3193359375 -90.142578125 90.046875 c 6
 -90.142578125 135.168945312 l 5
 -207.838867188 158.015625 -297.215820312 223.0078125 -297.215820312 288.192382812 c 4
 -297.215820312 332.54296875 -264.9609375 367.295898438 -223.680664062 367.295898438 c 4
 -195.264648438 367.295898438 -171.45703125 350.688476562 -146.303710938 333.119140625 c 4
 -109.823242188 307.776367188 -68.54296875 278.9765625 3.45703125 278.9765625 c 4
 74.7841796875 278.9765625 118.943359375 316.9921875 118.943359375 352.126953125 c 4
 118.943359375 400.223632812 44.8310546875 431.0390625 -33.599609375 463.680664062 c 4
 -143.134765625 509.184570312 -267.264648438 560.831054688 -267.264648438 686.688476562 c 4
 -267.264648438 788.54296875 -199.96875 869.280273438 -90.142578125 901.247070312 c 5
 -90.142578125 942.142578125 l 6
 -90.142578125 991.873046875 -49.7275390625 1032.28808594 0 1032.28808594 c 4
 49.7275390625 1032.28808594 90.142578125 991.873046875 90.142578125 942.142578125 c 6
 90.142578125 904.416015625 l 6
 181.919921875 883.48828125 268.51171875 833.568359375 268.51171875 762.912109375 c 4
 268.51171875 727.48828125 243.838867188 689.376953125 189.696289062 689.376953125 c 4
 160.607421875 689.376953125 139.680664062 705.119140625 119.51953125 720.384765625 c 4
 93.2158203125 740.256835938 63.361328125 762.719726562 3.361328125 762.719726562 c 4
 -13.630859375 762.719726562 -98.49609375 759.45703125 -98.49609375 696.192382812 c 4
 -98.49609375 657.791992188 -29.857421875 631.295898438 42.7197265625 603.264648438 c 4
 151.873046875 561.119140625 287.711914062 508.704101562 287.615234375 373.919921875 c 4
 287.615234375 255.168945312 214.080078125 168.095703125 89.6650390625 137.857421875 c 5
 90.142578125 90.046875 l 6
 90.142578125 40.416015625 49.7275390625 0 0 0 c 4
EndSplineSet
Fore
SplineSet
0 0 m 128,-1,1
 -37 0 -37 0 -63.5 26.5 c 128,-1,2
 -90 53 -90 53 -90 90 c 2,3,-1
 -90 135 l 1,4,5
 -177 152 -177 152 -237 195.5 c 128,-1,6
 -297 239 -297 239 -297 288 c 0,7,8
 -297 321 -297 321 -276 344 c 128,-1,9
 -255 367 -255 367 -223.5 367 c 128,-1,10
 -192 367 -192 367 -146 333 c 0,11,12
 -76 279 -76 279 0 279 c 0,13,14
 54 279 54 279 86.5 301.5 c 128,-1,15
 119 324 119 324 119 352 c 0,16,17
 119 382 119 382 82.5 407 c 128,-1,18
 46 432 46 432 -34 464 c 0,19,20
 -156 511 -156 511 -211.5 561.5 c 128,-1,21
 -267 612 -267 612 -267 687.5 c 128,-1,22
 -267 763 -267 763 -220 820 c 128,-1,23
 -173 877 -173 877 -90 901 c 1,24,-1
 -90 942 l 2,25,26
 -90 979 -90 979 -63.5 1005.5 c 128,-1,27
 -37 1032 -37 1032 0 1032 c 128,-1,28
 37 1032 37 1032 63.5 1005.5 c 128,-1,29
 90 979 90 979 90 942 c 2,30,-1
 90 904 l 1,31,32
 167 887 167 887 218 849 c 128,-1,33
 269 811 269 811 269 763 c 0,34,35
 269 734 269 734 248 711.5 c 128,-1,36
 227 689 227 689 190 689 c 0,37,38
 157 689 157 689 116 723 c 0,39,40
 68 763 68 763 0 763 c 0,41,42
 -37 763 -37 763 -67.5 747 c 128,-1,43
 -98 731 -98 731 -98 696 c 0,44,45
 -98 672 -98 672 -64 651 c 128,-1,46
 -30 630 -30 630 41 604 c 0,47,48
 185 551 185 551 236.5 497.5 c 128,-1,49
 288 444 288 444 288 374 c 0,50,51
 288 285 288 285 235.5 223 c 128,-1,52
 183 161 183 161 90 138 c 1,53,-1
 90 90 l 2,54,55
 90 53 90 53 63.5 26.5 c 128,-1,0
 37 0 37 0 0 0 c 128,-1,1
EndSplineSet
Colour: ff00ff
EndChar

